<svg width="22" height="22" viewBox="0 0 22 22" fill="none" xmlns="http://www.w3.org/2000/svg">
<path d="M10.5417 11.2237C13.3261 11.2237 15.5833 8.96642 15.5833 6.18199C15.5833 3.39755 13.3261 1.14032 10.5417 1.14032C7.75723 1.14032 5.5 3.39755 5.5 6.18199C5.5 8.96642 7.75723 11.2237 10.5417 11.2237Z" fill="#EC1C24"/>
<path fill-rule="evenodd" clip-rule="evenodd" d="M16.0418 12.7765C14.2396 12.7765 12.7766 14.2395 12.7766 16.0417C12.7766 17.8438 14.2396 19.3077 16.0418 19.3077C17.8439 19.3077 19.3079 17.8438 19.3079 16.0417C19.3079 14.2395 17.8439 12.7765 16.0418 12.7765ZM16.0418 14.1515C17.0849 14.1515 17.9329 14.9985 17.9329 16.0417C17.9329 17.0848 17.0849 17.9327 16.0418 17.9327C14.9986 17.9327 14.1507 17.0848 14.1507 16.0417C14.1507 14.9985 14.9986 14.1515 16.0418 14.1515Z" fill="#EC1C24"/>
<path fill-rule="evenodd" clip-rule="evenodd" d="M16.7292 13.4631V11.9167C16.7292 11.5372 16.4212 11.2292 16.0417 11.2292C15.6622 11.2292 15.3542 11.5372 15.3542 11.9167V13.464C15.3542 13.8426 15.6622 14.1515 16.0417 14.1515C16.4212 14.1506 16.7292 13.8426 16.7292 13.4631Z" fill="#EC1C24"/>
<path fill-rule="evenodd" clip-rule="evenodd" d="M18.3508 14.7052L19.4444 13.6107C19.713 13.343 19.713 12.9067 19.4444 12.639C19.1767 12.3704 18.7404 12.3704 18.4727 12.639L17.3782 13.7326C17.1106 14.0012 17.1106 14.4366 17.3782 14.7052C17.6468 14.9728 18.0822 14.9728 18.3508 14.7052Z" fill="#EC1C24"/>
<path fill-rule="evenodd" clip-rule="evenodd" d="M18.6194 16.7292H20.1668C20.5463 16.7292 20.8543 16.4212 20.8543 16.0417C20.8543 15.6622 20.5463 15.3542 20.1668 15.3542H18.6194C18.2409 15.3542 17.9329 15.6622 17.9329 16.0417C17.9319 16.4212 18.2409 16.7292 18.6194 16.7292Z" fill="#EC1C24"/>
<path fill-rule="evenodd" clip-rule="evenodd" d="M17.3782 18.3507L18.4727 19.4443C18.7404 19.7129 19.1767 19.7129 19.4444 19.4443C19.713 19.1766 19.713 18.7403 19.4444 18.4726L18.3508 17.3781C18.0822 17.1105 17.6468 17.1105 17.3782 17.3781C17.1106 17.6467 17.1106 18.0821 17.3782 18.3507Z" fill="#EC1C24"/>
<path fill-rule="evenodd" clip-rule="evenodd" d="M15.3542 18.6193V20.1667C15.3542 20.5462 15.6622 20.8542 16.0417 20.8542C16.4212 20.8542 16.7292 20.5462 16.7292 20.1667V18.6193C16.7292 18.2407 16.4212 17.9327 16.0417 17.9318C15.6622 17.9318 15.3542 18.2407 15.3542 18.6193Z" fill="#EC1C24"/>
<path fill-rule="evenodd" clip-rule="evenodd" d="M13.7325 17.3781L12.6389 18.4726C12.3704 18.7403 12.3704 19.1766 12.6389 19.4443C12.9066 19.7129 13.3429 19.7129 13.6106 19.4443L14.7051 18.3507C14.9728 18.0821 14.9728 17.6467 14.7051 17.3781C14.4365 17.1105 14.0011 17.1105 13.7325 17.3781Z" fill="#EC1C24"/>
<path fill-rule="evenodd" clip-rule="evenodd" d="M13.4632 15.3542H11.9167C11.5372 15.3542 11.2292 15.6622 11.2292 16.0417C11.2292 16.4212 11.5372 16.7292 11.9167 16.7292H13.4632C13.8427 16.7292 14.1516 16.4212 14.1507 16.0417C14.1507 15.6622 13.8427 15.3542 13.4632 15.3542Z" fill="#EC1C24"/>
<path fill-rule="evenodd" clip-rule="evenodd" d="M14.7051 13.7326L13.6106 12.639C13.3429 12.3704 12.9066 12.3704 12.6389 12.639C12.3704 12.9067 12.3704 13.343 12.6389 13.6107L13.7325 14.7052C14.0011 14.9728 14.4365 14.9728 14.7051 14.7052C14.9728 14.4366 14.9728 14.0012 14.7051 13.7326Z" fill="#EC1C24"/>
<path fill-rule="evenodd" clip-rule="evenodd" d="M11.858 19.943C11.3685 19.3142 11.4125 18.4021 11.991 17.8246L12.1688 17.6458H11.9167C11.0312 17.6458 10.3125 16.9272 10.3125 16.0417C10.3125 15.1562 11.0312 14.4375 11.9167 14.4375H12.1688L11.991 14.2587C11.3896 13.6583 11.3658 12.6967 11.9195 12.067C11.4703 12.0322 11.0101 12.0138 10.5417 12.0138C7.49654 12.0138 4.80062 12.7756 3.12679 13.9168C1.84987 14.7877 1.14587 15.8941 1.14587 17.0555V18.3847C1.14587 18.7981 1.30996 19.195 1.60237 19.4865C1.89479 19.7789 2.29079 19.943 2.70421 19.943H11.858Z" fill="#EC1C24"/>
</svg>
