<svg width="20" height="20" viewBox="0 0 20 20" fill="none" xmlns="http://www.w3.org/2000/svg">
<g clip-path="url(#clip0_11_5309)">
<path d="M17.4111 1.93224H19.3856V17.6049H17.4111V1.93224ZM13.4795 2.49949L13.2061 2.58442C12.8638 2.69259 12.4616 2.54196 12.3232 2.25527C12.2569 2.11647 12.2537 1.96309 12.3145 1.82281C12.3851 1.66055 12.5351 1.53358 12.7254 1.47422L15.808 0.514008L16.1833 3.26069C16.2044 3.40055 16.1651 3.54336 16.0723 3.66167C15.9589 3.80702 15.7766 3.90125 15.5721 3.92069C15.5476 3.92322 15.5201 3.92449 15.4937 3.92449C15.1449 3.92449 14.8487 3.70224 14.8047 3.40815L14.7572 2.99259C11.1946 7.92546 2.99091 13.2124 2.63492 13.4402C2.51408 13.5175 2.36957 13.5587 2.21661 13.5587C2.01042 13.5587 1.81647 13.4826 1.68485 13.3493C1.5638 13.2274 1.50718 13.0719 1.52471 12.9122C1.54309 12.7464 1.6426 12.5938 1.79809 12.495C1.88154 12.4413 10.0071 7.18856 13.4795 2.49949ZM15.8152 5.41329V17.6044H13.8411V5.41329H15.8152ZM12.3629 9.03588V17.6049H10.3882V9.03588H12.3629ZM8.79229 12.7992V17.6042H6.818V12.7992H8.79229ZM5.01759 14.6818V17.6044H3.04351V14.6818H5.01759ZM19.9998 19.486H0V18.0211H20L19.9998 19.486Z" fill="#EC1C24"/>
</g>
<defs>
<clipPath id="clip0_11_5309">
<rect width="20" height="20" fill="white"/>
</clipPath>
</defs>
</svg>
