<svg width="50" height="50" viewBox="0 0 50 50" fill="none" xmlns="http://www.w3.org/2000/svg">
<path d="M39.1307 17.7343L40.0408 17.107C40.4779 16.6744 40.7838 16.1271 40.9234 15.5282L40.9777 15.29C41.0702 14.855 41.1408 14.4158 41.1892 13.9738C40.605 14.109 40.0018 14.1425 39.4062 14.0727C39.0159 14.024 38.7169 13.7021 38.6971 13.3092C38.6119 12.5389 38.3053 11.8099 37.8145 11.2101C37.2973 11.7857 36.7338 12.3177 36.1296 12.8011C35.4597 13.3162 34.9842 14.0434 34.781 14.8637C34.6426 15.6463 34.8439 16.4509 35.3345 17.0762C35.8576 17.7012 36.6237 18.0716 37.4384 18.0933C38.0221 18.1 38.6 17.9774 39.1307 17.7343Z" fill="white"/>
<path d="M42.8296 3.73132C42.5428 3.30713 42.2172 2.91047 41.8571 2.54644C41.8127 3.08626 41.7315 3.6224 41.6139 4.15113C41.5175 4.54583 41.3838 5.0637 41.2006 5.58077C41.0906 5.9261 40.7561 6.14921 40.395 6.1181C40.0375 6.10017 39.7341 5.84979 39.6486 5.50216C39.1203 3.257 37.7666 1.29281 35.8565 0C36.1578 0.7078 36.3859 1.44455 36.5373 2.19876C36.783 3.23562 36.7438 4.31962 36.4238 5.33602C35.9781 6.38296 35.2049 7.25712 34.2202 7.82735C32.9218 8.68625 31.9904 9.99852 31.6081 11.5076C31.2502 13.1939 31.7497 14.948 32.9421 16.1928C33.0466 16.3039 33.1609 16.406 33.2744 16.5081C33.1004 15.8744 33.0708 15.2097 33.1877 14.563C33.4575 13.3735 34.1279 12.3128 35.0865 11.5587C35.84 10.9796 36.5084 10.2975 37.0722 9.53254C37.2015 9.34622 37.4031 9.22265 37.6278 9.19184C37.8525 9.16104 38.0799 9.22582 38.2546 9.37045C39.2254 10.1707 39.9084 11.266 40.1997 12.4899C40.7192 12.457 41.228 12.3273 41.6998 12.1073C41.9539 11.9738 42.2595 11.9846 42.5035 12.1357C42.7475 12.2867 42.8934 12.5555 42.8871 12.8424C42.8682 13.7853 42.7596 14.7242 42.563 15.6466L42.5046 15.9035C42.4762 16.0226 42.4317 16.1345 42.3952 16.2504C43.1913 15.5152 43.7664 14.5724 44.0558 13.5281L44.1247 13.2639C44.5347 11.5956 44.6145 9.86335 44.3597 8.16449C44.1885 6.59075 43.6655 5.07565 42.8296 3.73132Z" fill="white"/>
<path d="M13.8248 10.1255C13.6673 9.86977 13.6633 9.55349 13.8143 9.29418L17.4739 3H9.967L7 12.2094H11.9503C12.2319 12.2096 12.4964 12.339 12.661 12.5572C12.8256 12.7755 12.8705 13.0559 12.7814 13.3111L10.7964 19L18 10.5349H14.5806C14.2706 10.5356 13.9832 10.38 13.8248 10.1255Z" fill="white"/>
<line x1="25.5" y1="2.18557e-08" x2="25.5" y2="50" stroke="white"/>
<line y1="24.5" x2="50" y2="24.5" stroke="white"/>
<g clip-path="url(#clip0_6_3089)">
<path d="M46.4179 40.7595C45.976 40.1606 45.1765 39.2963 45.1765 39.2963C45.1765 39.2963 44.377 40.1606 43.9351 40.7596C43.2927 41.6303 42.9804 42.299 42.9804 42.8039C42.9804 44.0149 43.9656 45 45.1765 45C46.3874 45 47.3726 44.0149 47.3726 42.8039C47.3726 42.299 47.0603 41.6303 46.4179 40.7595Z" fill="white"/>
<path d="M42.4949 33.691L42.3361 33.6926C42.1315 33.6948 41.9392 33.6168 41.7939 33.4731C41.6486 33.3294 41.5686 33.1377 41.5686 32.9333V31.3529H40.1569V30.4118H42.5098V29.4706H40.1569V29H39.2157V29.4706H36.8627V30.4118H39.2157V31.3529H37.8039V32.8169C37.8039 33.3071 37.4051 33.7059 36.9149 33.7059H35.7245C35.7505 33.8443 35.7647 33.9867 35.7647 34.1325V36.5734C35.7647 36.7192 35.7505 36.8616 35.7245 37H42.5098C43.0288 37 43.451 37.4222 43.451 37.9412V38.4118H46.7451V37.9412C46.7451 35.5976 44.8385 33.691 42.4949 33.691Z" fill="white"/>
<path d="M33.4557 32.7647H32.6274V37.9412H33.4557C34.2099 37.9412 34.8235 37.3276 34.8235 36.5734V34.1325C34.8235 33.3783 34.2099 32.7647 33.4557 32.7647Z" fill="white"/>
</g>
<g clip-path="url(#clip1_6_3089)">
<path d="M15.8835 39.5998C15.4588 39.1805 14.9286 39.1805 14.5066 39.5998C14.1847 39.919 13.8627 40.2382 13.5462 40.5628C13.4597 40.6521 13.3866 40.671 13.2811 40.6115C13.0728 40.4979 12.851 40.4059 12.6508 40.2815C11.7175 39.6944 10.9357 38.9397 10.2432 38.0903C9.89965 37.6683 9.59396 37.2165 9.38026 36.7079C9.33697 36.6051 9.34509 36.5375 9.42895 36.4536C9.75086 36.1425 10.0647 35.8233 10.3812 35.5041C10.8221 35.0605 10.8221 34.5411 10.3785 34.0947C10.1269 33.8404 9.8753 33.5916 9.62372 33.3373C9.36402 33.0776 9.10703 32.8152 8.84463 32.5582C8.41992 32.1443 7.8897 32.1443 7.46769 32.5609C7.14307 32.8801 6.83198 33.2074 6.50195 33.5212C6.19626 33.8107 6.04207 34.1651 6.0096 34.579C5.95821 35.2525 6.12322 35.8883 6.35587 36.5077C6.83198 37.79 7.55697 38.9289 8.43615 39.9731C9.62372 41.3852 11.0412 42.5024 12.6995 43.3086C13.4461 43.6711 14.2198 43.9497 15.0611 43.9957C15.64 44.0281 16.1432 43.8821 16.5463 43.4303C16.8222 43.1219 17.1333 42.8406 17.4255 42.5457C17.8583 42.1075 17.861 41.5773 17.4309 41.1444C16.9169 40.6277 16.4002 40.1137 15.8835 39.5998Z" fill="white"/>
<path d="M15.3668 37.4437L16.365 37.2733C16.2081 36.3563 15.7753 35.5258 15.1179 34.8657C14.4227 34.1705 13.5435 33.7322 12.5751 33.597L12.4344 34.6006C13.1837 34.7061 13.8654 35.0443 14.4038 35.5826C14.9123 36.0912 15.2451 36.735 15.3668 37.4437Z" fill="white"/>
<path d="M16.9277 33.1046C15.7753 31.9522 14.3172 31.2245 12.7076 31L12.567 32.0036C13.9574 32.1984 15.218 32.8287 16.2135 33.8215C17.1576 34.7656 17.7771 35.9586 18.0017 37.2706L18.9999 37.1002C18.7375 35.5799 18.0206 34.2002 16.9277 33.1046Z" fill="white"/>
</g>
<defs>
<clipPath id="clip0_6_3089">
<rect width="16" height="16" fill="white" transform="translate(32 29)"/>
</clipPath>
<clipPath id="clip1_6_3089">
<rect width="13" height="13" fill="white" transform="translate(6 31)"/>
</clipPath>
</defs>
</svg>
