<svg width="40" height="40" viewBox="0 0 40 40" fill="none" xmlns="http://www.w3.org/2000/svg">
<g clip-path="url(#clip0_6_3169)">
<path d="M38.5547 22.1237H29.6055C29.6829 22.0005 29.7573 21.875 29.826 21.7455C30.9937 19.5462 30.6463 16.9374 29.1532 15.1237L26.0894 9.71859C24.3742 6.5418 21.4252 6.25172 18.5731 5.97117C18.1642 5.93094 17.7413 5.88937 17.3255 5.83977C14.4412 5.495 13.8783 5.18609 11.7837 4.03687C11.5363 3.90109 11.2683 3.75406 10.9744 3.59492C11.0165 3.30937 10.9947 3.01531 10.9071 2.73039C10.7526 2.22789 10.413 1.81687 9.95381 1.57461L7.43069 0.230077C6.96827 -0.0156257 6.43694 -0.0665632 5.93483 0.0870305C5.43202 0.240702 5.01991 0.580312 4.77459 1.04281L0.894282 8.34766C0.6485 8.80945 0.597563 9.34039 0.751001 9.84281C0.904516 10.3455 1.24381 10.7578 1.70639 11.0035L4.22866 12.3477C4.52131 12.5031 4.83584 12.5768 5.14631 12.5768C5.84975 12.5767 6.53155 12.1982 6.88475 11.5348L6.92225 11.4642C7.71842 11.9581 8.18475 12.425 8.60952 13.1152C9.85834 15.1409 11.0792 15.731 12.2599 16.3016C12.6705 16.5 13.0584 16.6875 13.4632 16.94L18.588 20.1359C18.6258 20.1594 18.6643 20.1828 18.703 20.2061C18.8515 20.8903 19.1165 21.5386 19.4841 22.1237H11.3631C10.9316 22.1237 10.5819 22.4734 10.5819 22.9049V37.538C10.5819 38.8955 11.6856 40 13.0424 40H36.8755C38.2322 40 39.3359 38.8955 39.3359 37.538V22.905C39.3359 22.4735 38.9862 22.1237 38.5547 22.1237ZM28.4461 21.0129C28.2257 21.428 27.944 21.8002 27.6082 22.1237H21.4835C21.069 21.7255 20.7377 21.2516 20.5067 20.7291C20.5696 20.7199 20.6326 20.7077 20.6956 20.6908C21.1721 20.5626 21.556 20.2298 21.8366 19.7019C22.3635 18.7105 22.1521 17.1015 21.4224 15.8084C22.7792 14.4457 24.8826 14.1071 26.6202 15.031C28.7697 16.1773 29.5887 18.8606 28.4461 21.0129ZM20.455 14.5706L17.8695 11.8859C17.8622 11.877 17.8553 11.8684 17.8489 11.8603C17.9398 11.8252 18.0798 11.7836 18.2888 11.7484C20.3387 11.4056 20.9282 11.9824 21.8827 13.5743C21.3677 13.8308 20.8862 14.1645 20.455 14.5706ZM5.50514 10.8012C5.40272 10.9937 5.15381 11.0701 4.96248 10.9684L2.44022 9.62422C2.43991 9.62406 2.43959 9.62391 2.43928 9.62375C2.31295 9.55664 2.2635 9.44633 2.2453 9.38656C2.22702 9.3268 2.20639 9.20781 2.27381 9.08133L6.15475 1.77539C6.22178 1.64898 6.33186 1.59953 6.39147 1.58133C6.42006 1.57266 6.46217 1.56336 6.51209 1.56336C6.56678 1.56336 6.63084 1.57445 6.69678 1.60945L9.22202 2.95516C9.34631 3.0207 9.39545 3.13008 9.41366 3.18937C9.43217 3.24953 9.45311 3.36937 9.38545 3.49648L5.50514 10.8012ZM19.414 18.8097L14.29 15.6143C13.814 15.3173 13.3695 15.1026 12.9398 14.8948C11.8275 14.3573 10.949 13.9327 9.93983 12.2958C9.30905 11.2709 8.57748 10.6385 7.65709 10.0809L10.3408 5.02875C10.5887 5.16336 10.8184 5.28937 11.0323 5.40672C13.1594 6.57383 13.9553 7.01055 17.1405 7.39125C17.5726 7.44273 18.0036 7.48516 18.4204 7.52617C21.2013 7.79969 23.398 8.01578 24.718 10.467C24.7208 10.472 24.7234 10.477 24.7262 10.4819L26.27 13.2054C25.3228 12.9187 24.3362 12.8766 23.3948 13.0611C22.2551 11.1238 21.2008 9.67719 18.0307 10.2075C17.0803 10.367 16.491 10.7419 16.2792 11.3217C16.1505 11.6744 16.1176 12.237 16.6929 12.9142C16.7034 12.9266 16.7143 12.9387 16.7256 12.9504L19.5625 15.8962C20.4621 16.8285 20.7473 18.4223 20.457 18.9686C20.3718 19.129 20.306 19.1776 20.2898 19.182C20.2573 19.1906 20.0633 19.2136 19.414 18.8097ZM36.8754 38.4375H13.0424C12.5473 38.4375 12.1444 38.034 12.1444 37.538V28.3166H16.37C16.8015 28.3166 17.1512 27.9668 17.1512 27.5353C17.1512 27.1038 16.8015 26.7541 16.37 26.7541H12.1444V23.6862H37.7734V26.7541H23.3791C22.9476 26.7541 22.5979 27.1038 22.5979 27.5353C22.5979 27.9668 22.9476 28.3166 23.3791 28.3166H37.7734V37.538C37.7734 38.034 37.3706 38.4375 36.8754 38.4375Z" fill="white"/>
<path d="M32.4175 30.603H17.5005C17.069 30.603 16.7193 30.9528 16.7193 31.3843V35.3682C16.7193 35.7997 17.069 36.1494 17.5005 36.1494H32.4175C32.849 36.1494 33.1987 35.7997 33.1987 35.3682V31.3843C33.1987 30.9528 32.849 30.603 32.4175 30.603ZM31.6362 34.5869H18.2818V32.1655H31.6362V34.5869Z" fill="white"/>
<path d="M19.8745 28.3167H19.879C20.3105 28.3167 20.658 27.9669 20.658 27.5355C20.658 27.104 20.3061 26.7542 19.8746 26.7542C19.4431 26.7542 19.0934 27.104 19.0934 27.5355C19.0934 27.9669 19.443 28.3167 19.8745 28.3167Z" fill="white"/>
</g>
<defs>
<clipPath id="clip0_6_3169">
<rect width="40" height="40" fill="white"/>
</clipPath>
</defs>
</svg>
