<svg width="40" height="41" viewBox="0 0 40 41" fill="none" xmlns="http://www.w3.org/2000/svg">
<path d="M8.65425 4.70517C8.69563 4.79588 8.77869 4.85144 8.87818 4.85711L9.696 4.89963L9.43521 9.86875C9.40772 10.392 9.81335 10.8427 10.3366 10.8702L15.3058 11.131L15.2627 11.9483C15.257 12.0483 15.3046 12.1359 15.3908 12.1872C15.4764 12.238 15.5759 12.2371 15.6604 12.1847L17.6466 10.9582L17.8705 10.8207C17.9456 10.7739 17.9893 10.6999 17.9935 10.6118C17.9978 10.5236 17.9623 10.4454 17.8923 10.3918L17.6811 10.228L15.8381 8.80386C15.7593 8.7432 15.6598 8.73186 15.57 8.77325C15.4792 8.81463 15.4231 8.89768 15.4175 8.99633L15.3749 9.81466L10.858 9.57712C10.8103 9.57457 10.7735 9.53404 10.7761 9.48641L11.013 4.96945L11.8308 5.01197C11.9303 5.01764 12.0185 4.97002 12.0689 4.88442C12.1197 4.79881 12.1188 4.69875 12.0664 4.61427L10.8021 2.56682L10.7021 2.40496C10.6553 2.32984 10.5813 2.28619 10.4932 2.28109C10.405 2.27683 10.3268 2.31227 10.2732 2.38228L10.0549 2.66432L8.68526 4.43683C8.6246 4.51563 8.61326 4.61512 8.65465 4.70555L8.65425 4.70517ZM17.9739 3.53533C17.1275 2.55685 16.0884 1.74984 14.9219 1.14776C14.6767 1.02077 14.4312 0.894625 14.1747 0.787764C13.9802 0.705278 13.784 0.625339 13.5808 0.556459C13.4958 0.526979 13.4127 0.533215 13.3325 0.574034C13.29 0.59586 13.2562 0.62534 13.2287 0.65964C13.2044 0.690254 13.1842 0.725403 13.1726 0.765369L12.9464 1.5038C12.9376 1.53442 12.9376 1.56503 12.9376 1.59508C12.9382 1.66821 12.9651 1.73567 13.0119 1.79208C13.0482 1.83658 13.0932 1.87457 13.1508 1.8947C13.5641 2.03671 13.981 2.20537 14.3618 2.4004C15.3046 2.93813 16.2029 3.63569 16.9112 4.45547C18.3886 6.16274 19.2149 8.43414 19.0395 10.8642C18.9595 11.9678 18.6718 13.0035 18.2305 13.9503C17.7004 15.0881 16.9444 16.0947 16.0124 16.9011C14.3565 18.334 12.1681 19.1456 9.8205 19.0336C9.74737 19.0299 9.67622 19.0342 9.6028 19.0285C7.1727 18.8533 5.04332 17.7092 3.56674 16.002C2.08936 14.2947 1.26363 12.0227 1.43852 9.59264C1.61426 7.16254 2.75835 5.03315 4.4662 3.55577C6.10039 2.1416 8.25242 1.32378 10.5655 1.41137C10.735 1.4176 10.8849 1.29004 10.8968 1.12054L10.9524 0.350391C10.9592 0.261098 10.9317 0.181732 10.8716 0.114833C10.8121 0.0473693 10.7367 0.0116514 10.6465 0.00853834C7.95396 -0.100877 5.4481 0.84755 3.54636 2.49364C1.56697 4.20606 0.240312 6.67411 0.0365455 9.4915C-0.166698 12.3085 0.79109 14.9419 2.50351 16.9216C3.88706 18.5208 5.76812 19.681 7.92334 20.1805C8.43612 20.2993 8.95995 20.3917 9.50136 20.4305C10.2502 20.485 10.9845 20.4518 11.6982 20.3492C13.6705 20.0666 15.4781 19.2213 16.9308 17.9636C17.521 17.4533 18.0443 16.8682 18.5063 16.2342C19.2453 15.2182 19.8049 14.0617 20.1312 12.8011C20.2851 12.2084 20.3945 11.5975 20.4407 10.9663C20.6439 8.14926 19.6862 5.5159 17.9737 3.53622L17.9739 3.53533ZM39.8577 21.9643L31.813 8.13168C31.6642 7.876 31.4267 7.70394 31.1648 7.63534L31.1591 7.63336C30.8972 7.56391 30.6052 7.59509 30.3496 7.74391L24.2171 11.3099C24.1908 11.3255 24.1695 11.3456 24.1434 11.3618L22.2547 12.4596C22.1348 12.5291 22.0535 12.6484 22.0277 12.7847C21.9327 13.2967 21.8032 13.7981 21.6413 14.2865C21.5044 14.6984 21.9577 15.0572 22.3335 14.8393L26.8111 12.2385L26.8049 12.228L28.411 11.2946C28.6097 11.1789 28.856 11.2265 29.0125 11.3952C29.4589 11.8811 30.1341 12.0741 30.7399 11.889C30.9494 11.8252 31.1745 11.9154 31.285 12.1053L36.1416 20.4569C36.2561 20.6534 36.2105 20.8952 36.0472 21.0528C35.5928 21.493 35.4338 22.1775 35.6421 22.8046C35.7122 23.0146 35.622 23.2434 35.431 23.3548C30.7408 26.082 17.9686 33.5097 13.2772 36.2382C13.0802 36.3533 12.8353 36.3057 12.6814 36.1376C12.2349 35.6506 11.5585 35.4567 10.952 35.6418C10.7419 35.7056 10.5168 35.6154 10.4063 35.4255L5.54973 27.0739C5.43521 26.8774 5.48085 26.6356 5.64412 26.478C6.18242 25.9567 6.30686 25.0933 5.89669 24.3881L6.27568 24.1672L6.27625 24.1684L8.68625 22.7681C9.06892 22.5461 8.97566 21.9684 8.54196 21.8817C8.01869 21.7765 7.43475 21.6453 7.0008 21.5083C6.86956 21.4664 6.72953 21.4789 6.61076 21.5483L5.22206 22.3547L5.22319 22.3559L2.22105 24.102C1.9648 24.2508 1.79416 24.4889 1.72471 24.7502L1.72273 24.7559C1.65328 25.0184 1.68446 25.3098 1.83327 25.5655L9.87797 39.398C10.0257 39.6517 10.2643 39.8218 10.5299 39.8927L10.5319 39.8964C10.7938 39.9658 11.0852 39.9346 11.3409 39.785L39.469 23.4271C39.7253 23.2788 39.8968 23.0407 39.9659 22.7788L39.964 22.7751C40.034 22.5101 40.0039 22.2175 39.8565 21.9635L39.8577 21.9643ZM29.8705 18.7126C30.8739 18.375 31.1545 17.1272 30.3926 16.392C30.0363 16.0487 29.4934 15.9274 29.0251 16.0861C28.0268 16.4257 27.7459 17.6673 28.5039 18.4032C28.8585 18.7476 29.4016 18.8709 29.8704 18.7127L29.8705 18.7126ZM16.1888 25.7847C17.87 28.4425 21.5179 29.1021 24.0398 27.0657C25.8848 25.5758 26.5167 22.9526 25.5441 20.7907C24.2798 17.9818 21.0458 16.9052 18.43 18.1329C18.2242 18.3486 18.0167 18.5638 17.7922 18.7656C17.3432 19.1701 16.8639 19.5259 16.3675 19.8504C16.3582 19.8566 16.3494 19.8649 16.3431 19.8742C15.1379 21.5792 15.0035 23.9098 16.1887 25.7847L16.1888 25.7847ZM18.0826 19.9625C18.0053 19.8411 18.0407 19.6798 18.1626 19.6025L18.7454 19.2342C18.8653 19.158 19.026 19.1943 19.1011 19.3156L19.4574 19.8876C19.6181 19.8352 19.7775 19.8006 19.9464 19.7912C20.5615 19.7561 21.1075 20.0277 21.5151 20.4789C21.5689 20.5385 21.5913 20.6133 21.5808 20.6921C21.5695 20.7715 21.527 20.8378 21.4595 20.8803L20.9357 21.2117C20.8362 21.2749 20.7095 21.2655 20.6199 21.1879C20.0017 20.6521 18.7198 21.3642 19.2352 22.1783C19.5328 22.6491 20.3004 22.4013 20.7361 22.3078C21.6871 22.1034 22.5429 22.032 23.1387 22.9742C23.6189 23.7333 23.4976 24.6197 22.9423 25.2873C22.9191 25.3153 22.9154 25.3547 22.9349 25.3854L23.2813 25.9256C23.3587 26.047 23.3227 26.2082 23.2014 26.2851L22.6186 26.6533C22.4978 26.7295 22.338 26.6932 22.2623 26.5719L21.9065 25.9999C21.7464 26.0518 21.5865 26.0869 21.4176 26.0963C20.8024 26.1314 20.2565 25.8607 19.8489 25.4086C19.795 25.3491 19.7726 25.2742 19.7831 25.1954C19.7945 25.1161 19.837 25.0497 19.9044 25.0066L20.4283 24.6753C20.5278 24.6126 20.6539 24.6223 20.7435 24.6996C21.3623 25.2348 22.6441 24.5233 22.1288 23.7087C21.8482 23.2642 21.1685 23.4624 20.752 23.5531C19.7616 23.7682 18.854 23.9077 18.2249 22.913C17.7453 22.1548 17.8661 21.2687 18.4214 20.6005C18.4446 20.5725 18.4483 20.5331 18.4282 20.5025L18.0824 19.963L18.0826 19.9625ZM11.4925 27.1746C10.4904 27.5116 10.2089 28.7569 10.9681 29.4922C11.3232 29.8361 11.8664 29.9594 12.3355 29.8012C13.3364 29.4636 13.6185 28.2206 12.8599 27.4847C12.5053 27.1403 11.9616 27.017 11.4925 27.1746V27.1746Z" fill="white"/>
<path d="M0.0215689 40.0645C0.0198682 40.0653 0.0184508 40.0656 0.0170335 40.0656H0.013632C0.00966349 40.0656 0.00682891 40.0651 0.00456121 40.0634C0.00229352 40.0611 0.00115967 40.0582 0.00115967 40.0543C0.00115967 40.0506 0.00229352 40.0475 0.00456121 40.0452C0.00682891 40.0429 0.00966349 40.0418 0.013632 40.0418C0.0150493 40.0418 0.0161831 40.0424 0.0170335 40.0429C0.0184508 40.0429 0.0198682 40.0435 0.0215689 40.0441V40.0486C0.0198682 40.048 0.0184508 40.0475 0.0170335 40.0475C0.0161831 40.0469 0.0150493 40.0463 0.013632 40.0463C0.0119312 40.0463 0.0105139 40.0472 0.0090966 40.0486C0.0082462 40.0503 0.00796275 40.052 0.00796275 40.0543C0.00796275 40.0565 0.0082462 40.0585 0.0090966 40.06C0.0105139 40.0617 0.0119312 40.0622 0.013632 40.0622H0.0170335C0.0184508 40.0617 0.0198682 40.0608 0.0215689 40.06V40.0645Z" fill="white"/>
<path d="M0.0376798 40.0532H0.036546C0.036546 40.0526 0.0359791 40.052 0.0354122 40.052C0.0337114 40.052 0.0325775 40.0529 0.0320106 40.0543C0.0311602 40.0551 0.0308768 40.0563 0.0308768 40.0577V40.0656H0.0252075V40.0486H0.0308768V40.052C0.0314437 40.0506 0.0322941 40.0495 0.0331445 40.0486C0.0337114 40.0481 0.0348452 40.0475 0.036546 40.0475H0.0376798V40.0532Z" fill="white"/>
<path d="M0.057571 40.0566V40.0588H0.0450983C0.0450983 40.0605 0.0453818 40.0617 0.0462322 40.0622H0.0496337H0.0530353C0.0544525 40.0617 0.0558699 40.0608 0.0575706 40.06V40.0645C0.0558699 40.0653 0.0544525 40.0656 0.0530353 40.0656H0.0496337C0.0465156 40.0656 0.0439645 40.0651 0.0416964 40.0634C0.0399956 40.0619 0.0394287 40.06 0.0394287 40.0577C0.0394287 40.0549 0.0399956 40.0526 0.0416964 40.0509C0.0439641 40.0486 0.0462318 40.0475 0.0484995 40.0475C0.0513342 40.0475 0.0536018 40.0486 0.0553026 40.0509C0.0567199 40.0526 0.0575703 40.0543 0.0575703 40.0566H0.057571ZM0.0519018 40.0554C0.0519018 40.054 0.0513349 40.0532 0.0507679 40.0532C0.0507679 40.0526 0.0499175 40.052 0.0485002 40.052C0.0476498 40.052 0.0467995 40.0526 0.0462325 40.0532C0.0453821 40.0532 0.0450987 40.054 0.0450987 40.0554H0.0519018Z" fill="white"/>
<path d="M0.0697394 40.0577C0.068889 40.0577 0.0680386 40.0583 0.0674717 40.0588C0.0666213 40.0588 0.0663378 40.0594 0.0663378 40.06V40.0622H0.0686055C0.0700228 40.0622 0.0711567 40.0619 0.0720071 40.0611C0.072574 40.0605 0.0731409 40.0597 0.0731409 40.0588V40.0577H0.0697394ZM0.0776767 40.0554V40.0656H0.0731413V40.0634C0.0722909 40.0642 0.071157 40.0651 0.0697397 40.0656H0.0663382C0.0646374 40.0656 0.0632201 40.0653 0.0618028 40.0645C0.0609524 40.0639 0.0606689 40.0622 0.0606689 40.06C0.0606689 40.0585 0.0612359 40.0574 0.0629366 40.0566C0.0643539 40.056 0.0666216 40.0554 0.0697397 40.0554H0.0731413V40.0543C0.0731413 40.0537 0.0725744 40.0532 0.0720074 40.0532C0.071157 40.0526 0.0700232 40.052 0.0686059 40.052H0.0640705C0.0632201 40.052 0.0629366 40.0526 0.0629366 40.0532V40.0486H0.0652043C0.0666216 40.0481 0.068039 40.0475 0.0697397 40.0475C0.0725744 40.0475 0.0745586 40.0483 0.075409 40.0498C0.0768263 40.0515 0.0776767 40.0532 0.0776767 40.0554V40.0554Z" fill="white"/>
<path d="M0.0898203 40.0441V40.0486H0.0943557V40.052H0.0898203V40.0599V40.0622H0.0909541H0.0943557V40.0656H0.0898203C0.0875526 40.0656 0.0858518 40.0653 0.0852849 40.0645C0.0844345 40.0631 0.0841511 40.0616 0.0841511 40.0599V40.052H0.0807495V40.0486H0.0841511V40.0441H0.0898203Z" fill="white"/>
<path d="M0.114822 40.0566V40.0588H0.102349C0.102349 40.0605 0.102633 40.0617 0.103483 40.0622H0.106885H0.110286C0.111704 40.0617 0.113121 40.0608 0.114822 40.06V40.0645C0.113121 40.0653 0.111704 40.0656 0.110286 40.0656H0.106885C0.103767 40.0656 0.101215 40.0651 0.0989474 40.0634C0.0972466 40.0619 0.0966797 40.06 0.0966797 40.0577C0.0966797 40.0549 0.0972466 40.0526 0.0989474 40.0509C0.101215 40.0486 0.103483 40.0475 0.10575 40.0475C0.108585 40.0475 0.110853 40.0486 0.112554 40.0509C0.113971 40.0526 0.114821 40.0543 0.114821 40.0566H0.114822ZM0.109153 40.0554C0.109153 40.054 0.108586 40.0532 0.108019 40.0532C0.108019 40.0526 0.107168 40.052 0.105751 40.052C0.104901 40.052 0.10405 40.0526 0.103484 40.0532C0.102633 40.0532 0.10235 40.054 0.10235 40.0554H0.109153Z" fill="white"/>
<path d="M0.130392 40.0509V40.0418H0.136061V40.0656H0.130392V40.0634C0.130392 40.0642 0.129542 40.0651 0.128125 40.0656H0.125857C0.123589 40.0656 0.121605 40.0651 0.120188 40.0634C0.118487 40.0619 0.11792 40.06 0.11792 40.0577C0.11792 40.0548 0.118487 40.0526 0.120188 40.0509C0.121605 40.0486 0.123589 40.0475 0.125857 40.0475C0.126424 40.0475 0.127274 40.048 0.128125 40.0486C0.129542 40.0495 0.130392 40.0503 0.130392 40.0509V40.0509ZM0.126991 40.0622C0.128408 40.0622 0.129258 40.0619 0.129258 40.0611C0.129825 40.0605 0.130392 40.0594 0.130392 40.0577C0.130392 40.0563 0.129825 40.0551 0.129258 40.0543C0.129258 40.0529 0.128408 40.052 0.126991 40.052C0.12614 40.052 0.12529 40.0529 0.124723 40.0543C0.123873 40.0551 0.123589 40.0563 0.123589 40.0577C0.123589 40.0594 0.123873 40.0605 0.124723 40.0611C0.12529 40.0619 0.12614 40.0622 0.126991 40.0622Z" fill="white"/>
<path d="M0.161292 40.0622C0.16271 40.0622 0.16356 40.0619 0.16356 40.0611C0.164127 40.0605 0.164694 40.0594 0.164694 40.0577C0.164694 40.0563 0.164127 40.0551 0.16356 40.0543C0.16356 40.0529 0.16271 40.052 0.161292 40.052C0.160442 40.052 0.159592 40.0529 0.159025 40.0543C0.158174 40.0551 0.157891 40.0563 0.157891 40.0577C0.157891 40.0585 0.158174 40.0597 0.159025 40.0611C0.159592 40.0619 0.160442 40.0622 0.161292 40.0622ZM0.157891 40.0509L0.160159 40.0486C0.161576 40.048 0.16271 40.0475 0.16356 40.0475C0.165828 40.0475 0.167529 40.0486 0.169229 40.0509C0.170647 40.0526 0.171497 40.0548 0.171497 40.0577C0.171497 40.06 0.170647 40.0619 0.169229 40.0634C0.167529 40.0651 0.165828 40.0656 0.16356 40.0656H0.160159C0.159308 40.0651 0.158458 40.0642 0.157891 40.0634V40.0656H0.152222V40.0418H0.157891V40.0509Z" fill="white"/>
<path d="M0.172363 40.0486H0.178033L0.182568 40.0599L0.185969 40.0486H0.192773L0.184835 40.0667C0.183985 40.069 0.183135 40.0704 0.182568 40.0713C0.181717 40.0718 0.180583 40.0724 0.179166 40.0724H0.175764V40.069H0.176898C0.178316 40.069 0.179166 40.0684 0.179166 40.0679C0.179166 40.0679 0.179449 40.0673 0.1803 40.0667V40.0656L0.172363 40.0486Z" fill="white"/>
<path d="M0.211724 40.0634V40.0724H0.206055V40.0486H0.211724V40.0509L0.213992 40.0486C0.215409 40.0481 0.216543 40.0475 0.217393 40.0475C0.219661 40.0475 0.221362 40.0486 0.223062 40.0509C0.22448 40.0526 0.22533 40.0549 0.22533 40.0577C0.22533 40.06 0.22448 40.0619 0.223062 40.0634C0.221362 40.0651 0.219661 40.0656 0.217393 40.0656H0.213992C0.213141 40.0651 0.212291 40.0642 0.211724 40.0634V40.0634ZM0.215125 40.052C0.214275 40.052 0.213425 40.0529 0.212858 40.0543C0.212007 40.0551 0.211724 40.0563 0.211724 40.0577C0.211724 40.0585 0.212007 40.0597 0.212858 40.0611C0.213425 40.0619 0.214275 40.0622 0.215125 40.0622C0.216543 40.0622 0.217393 40.0619 0.217393 40.0611C0.21796 40.0605 0.218527 40.0594 0.218527 40.0577C0.218527 40.0563 0.21796 40.0551 0.217393 40.0543C0.217393 40.0529 0.216543 40.052 0.215125 40.052Z" fill="white"/>
<path d="M0.236427 40.052C0.235576 40.052 0.234726 40.0526 0.234159 40.0532C0.233309 40.054 0.233025 40.0554 0.233025 40.0577C0.233025 40.0594 0.233309 40.0605 0.234159 40.0611C0.234726 40.0619 0.235576 40.0622 0.236427 40.0622C0.237844 40.0622 0.238978 40.0619 0.239828 40.0611C0.240395 40.0605 0.240962 40.0594 0.240962 40.0577C0.240962 40.0554 0.240395 40.054 0.239828 40.0532C0.238978 40.0526 0.237844 40.052 0.236427 40.052ZM0.236427 40.0475C0.239261 40.0475 0.241529 40.0486 0.24323 40.0509C0.245498 40.0526 0.246631 40.0549 0.246631 40.0577C0.246631 40.06 0.245498 40.0619 0.24323 40.0634C0.241529 40.0651 0.239261 40.0656 0.236427 40.0656C0.234159 40.0656 0.231891 40.0651 0.229624 40.0634C0.227923 40.0619 0.227356 40.06 0.227356 40.0577C0.227356 40.0549 0.227923 40.0526 0.229624 40.0509C0.231891 40.0486 0.234159 40.0475 0.236427 40.0475Z" fill="white"/>
<path d="M0.255425 40.0634V40.0724H0.249756V40.0486H0.255425V40.0509L0.257693 40.0486C0.25911 40.0481 0.260244 40.0475 0.261094 40.0475C0.263362 40.0475 0.265063 40.0486 0.266764 40.0509C0.268181 40.0526 0.269031 40.0549 0.269031 40.0577C0.269031 40.06 0.268181 40.0619 0.266764 40.0634C0.265063 40.0651 0.263362 40.0656 0.261094 40.0656H0.257693C0.256842 40.0651 0.255992 40.0642 0.255425 40.0634V40.0634ZM0.258827 40.052C0.257976 40.052 0.257126 40.0529 0.256559 40.0543C0.255709 40.0551 0.255425 40.0563 0.255425 40.0577C0.255425 40.0585 0.255709 40.0597 0.256559 40.0611C0.257126 40.0619 0.257976 40.0622 0.258827 40.0622C0.260244 40.0622 0.261094 40.0619 0.261094 40.0611C0.261661 40.0605 0.262228 40.0594 0.262228 40.0577C0.262228 40.0563 0.261661 40.0551 0.261094 40.0543C0.261094 40.0529 0.260244 40.052 0.258827 40.052Z" fill="white"/>
<path d="M0.28687 40.0486V40.0532H0.283469C0.283469 40.0526 0.282618 40.052 0.281201 40.052C0.280351 40.052 0.279217 40.0529 0.2778 40.0543C0.276949 40.0551 0.276666 40.0563 0.276666 40.0577C0.276666 40.0585 0.276949 40.0597 0.2778 40.0611C0.279217 40.0619 0.280351 40.0622 0.281201 40.0622H0.284603C0.28517 40.0617 0.28602 40.0611 0.28687 40.0611V40.0656H0.283469H0.281201C0.278083 40.0656 0.275532 40.0651 0.273264 40.0634C0.271563 40.0619 0.270996 40.06 0.270996 40.0577C0.270996 40.0549 0.271563 40.0526 0.273264 40.0509C0.275531 40.0486 0.278083 40.0475 0.281201 40.0475C0.281768 40.0475 0.282618 40.0481 0.283469 40.0486H0.28687Z" fill="white"/>
<path d="M0.298744 40.052C0.297893 40.052 0.297043 40.0526 0.296476 40.0532C0.295626 40.054 0.295342 40.0554 0.295342 40.0577C0.295342 40.0594 0.295626 40.0605 0.296476 40.0611C0.297043 40.0619 0.297893 40.0622 0.298744 40.0622C0.300161 40.0622 0.301295 40.0619 0.302145 40.0611C0.302712 40.0605 0.303279 40.0594 0.303279 40.0577C0.303279 40.0554 0.302712 40.054 0.302145 40.0532C0.301295 40.0526 0.300161 40.052 0.298744 40.052ZM0.298744 40.0475C0.301578 40.0475 0.303846 40.0486 0.305547 40.0509C0.307814 40.0526 0.308948 40.0549 0.308948 40.0577C0.308948 40.06 0.307814 40.0619 0.305547 40.0634C0.303846 40.0651 0.301578 40.0656 0.298744 40.0656C0.296476 40.0656 0.294208 40.0651 0.291941 40.0634C0.29024 40.0619 0.289673 40.06 0.289673 40.0577C0.289673 40.0549 0.29024 40.0526 0.291941 40.0509C0.294208 40.0486 0.296476 40.0475 0.298744 40.0475Z" fill="white"/>
<path d="M0.324545 40.0532H0.323411C0.323411 40.0526 0.322844 40.052 0.322277 40.052C0.320577 40.052 0.319443 40.0529 0.318876 40.0543C0.318025 40.0551 0.317742 40.0563 0.317742 40.0577V40.0656H0.312073V40.0486H0.317742V40.052C0.318309 40.0506 0.319159 40.0495 0.32001 40.0486C0.320577 40.0481 0.32171 40.0475 0.323411 40.0475H0.324545V40.0532Z" fill="white"/>
<path d="M0.345778 40.0554V40.0656H0.338975V40.0577V40.0554V40.0532H0.337841C0.337841 40.0526 0.337274 40.052 0.336708 40.052C0.335857 40.052 0.335007 40.0529 0.33444 40.0543C0.333589 40.0551 0.333306 40.0563 0.333306 40.0577V40.0656H0.327637V40.0486H0.333306V40.0509L0.335574 40.0486C0.336991 40.0481 0.338125 40.0475 0.338975 40.0475C0.341243 40.0475 0.34266 40.0483 0.343511 40.0498C0.344928 40.0515 0.345778 40.0532 0.345778 40.0554V40.0554Z" fill="white"/>
<path d="M0.357703 40.0577C0.356853 40.0577 0.356002 40.0583 0.355436 40.0588C0.354585 40.0588 0.354302 40.0594 0.354302 40.06V40.0622H0.356569C0.357987 40.0622 0.359121 40.0619 0.359971 40.0611C0.360538 40.0605 0.361105 40.0597 0.361105 40.0588V40.0577H0.357703ZM0.365641 40.0554V40.0656H0.361105V40.0634C0.360255 40.0642 0.359121 40.0651 0.357704 40.0656H0.354302C0.352601 40.0656 0.351184 40.0653 0.349767 40.0645C0.348916 40.0639 0.348633 40.0622 0.348633 40.06C0.348633 40.0585 0.3492 40.0574 0.350901 40.0566C0.352318 40.056 0.354585 40.0554 0.357704 40.0554H0.361105V40.0543C0.361105 40.0537 0.360538 40.0532 0.359971 40.0532C0.359121 40.0526 0.357987 40.052 0.35657 40.052H0.352034C0.351184 40.052 0.350901 40.0526 0.350901 40.0532V40.0486H0.353168C0.354585 40.0481 0.356003 40.0475 0.357704 40.0475C0.360538 40.0475 0.362522 40.0483 0.363373 40.0498C0.36479 40.0515 0.365641 40.0532 0.365641 40.0554V40.0554Z" fill="white"/>
<path d="M0.383566 40.0532H0.382432C0.382432 40.0526 0.381865 40.052 0.381298 40.052C0.379598 40.052 0.378464 40.0529 0.377897 40.0543C0.377046 40.0551 0.376763 40.0563 0.376763 40.0577V40.0656H0.371094V40.0486H0.376763V40.052C0.37733 40.0506 0.37818 40.0495 0.379031 40.0486C0.379598 40.0481 0.380731 40.0475 0.382432 40.0475H0.383566V40.0532Z" fill="white"/>
<path d="M0.393165 40.0441V40.0486H0.3977V40.052H0.393165V40.0599V40.0622H0.394299H0.3977V40.0656H0.393165C0.390897 40.0656 0.389197 40.0653 0.38863 40.0645C0.387779 40.0631 0.387496 40.0616 0.387496 40.0599V40.052H0.384094V40.0486H0.387496V40.0441H0.393165Z" fill="white"/>
<path d="M0.415009 40.0486V40.0532C0.413308 40.0526 0.41189 40.052 0.410473 40.052H0.408205H0.405938V40.0532V40.0554H0.408205H0.409339C0.411607 40.0554 0.413024 40.056 0.413875 40.0566C0.415292 40.0574 0.416142 40.0588 0.416142 40.0611C0.416142 40.0628 0.415292 40.0639 0.413875 40.0645C0.413024 40.0653 0.41104 40.0656 0.408205 40.0656H0.40367H0.401402V40.0611C0.401969 40.0619 0.40282 40.0622 0.40367 40.0622H0.408205H0.409339C0.409906 40.0622 0.410473 40.0619 0.410473 40.0611C0.410473 40.0605 0.409906 40.06 0.409339 40.06C0.409339 40.0594 0.408772 40.0588 0.408205 40.0588H0.407072C0.404804 40.0588 0.40282 40.0585 0.401402 40.0577C0.400552 40.0563 0.400269 40.0549 0.400269 40.0532C0.400269 40.0517 0.400835 40.0506 0.402536 40.0498C0.403954 40.0483 0.405938 40.0475 0.408205 40.0475C0.408772 40.0475 0.409623 40.0481 0.410473 40.0486H0.415009Z" fill="white"/>
<path d="M0.0136062 40.073V40.0764H0.0102046C0.0102046 40.0764 0.00963767 40.077 0.00907078 40.0775V40.0787V40.0798H0.0136062V40.0832H0.00907078V40.0968H0.00340154V40.0832H0V40.0798H0.00340154V40.0787C0.00340154 40.0764 0.003685 40.075 0.00453539 40.0741C0.00595268 40.0736 0.00793694 40.073 0.0102046 40.073H0.0136062Z" fill="white"/>
<path d="M0.0283415 40.0843H0.0272076C0.0272076 40.0838 0.0266407 40.0832 0.0260738 40.0832C0.024373 40.0832 0.0232391 40.0841 0.0226722 40.0855C0.0218218 40.0863 0.0215384 40.0875 0.0215384 40.0889V40.0968H0.0158691V40.0798H0.0215384V40.0832C0.0221053 40.0818 0.0229557 40.0807 0.0238061 40.0798C0.024373 40.0792 0.0255068 40.0787 0.0272076 40.0787H0.0283415V40.0843Z" fill="white"/>
<path d="M0.0391001 40.0832C0.0382497 40.0832 0.0373993 40.0838 0.0368324 40.0843C0.035982 40.0852 0.0356985 40.0866 0.0356985 40.0889C0.0356985 40.0906 0.035982 40.0917 0.0368324 40.0923C0.0373993 40.0931 0.0382497 40.0934 0.0391001 40.0934C0.0405174 40.0934 0.0416512 40.0931 0.0425016 40.0923C0.0430685 40.0917 0.0436355 40.0906 0.0436355 40.0889C0.0436355 40.0866 0.0430685 40.0852 0.0425016 40.0843C0.0416512 40.0838 0.0405174 40.0832 0.0391001 40.0832ZM0.0391001 40.0787C0.0419347 40.0787 0.0442024 40.0798 0.0459032 40.0821C0.0481709 40.0838 0.0493047 40.086 0.0493047 40.0889C0.0493047 40.0911 0.0481709 40.0931 0.0459032 40.0945C0.0442024 40.0962 0.0419347 40.0968 0.0391001 40.0968C0.0368324 40.0968 0.0345647 40.0962 0.032297 40.0945C0.0305962 40.0931 0.0300293 40.0911 0.0300293 40.0889C0.0300293 40.086 0.0305962 40.0838 0.032297 40.0821C0.0345647 40.0798 0.0368324 40.0787 0.0391001 40.0787Z" fill="white"/>
<path d="M0.0686082 40.0832C0.0691751 40.0818 0.0700255 40.0807 0.0708759 40.0798C0.0722932 40.0792 0.0734271 40.0787 0.0742775 40.0787C0.0765452 40.0787 0.0779625 40.0795 0.0788129 40.0809C0.0802302 40.0826 0.0810806 40.0843 0.0810806 40.0866V40.0968H0.0754113V40.0877V40.0866C0.0754113 40.086 0.0748444 40.0852 0.0742775 40.0843C0.0742775 40.0838 0.0737105 40.0832 0.0731436 40.0832C0.0722932 40.0832 0.0714428 40.0841 0.0708759 40.0855C0.0700255 40.0863 0.0697421 40.0875 0.0697421 40.0889V40.0968H0.0640729V40.0877C0.0640729 40.0863 0.063506 40.0852 0.062939 40.0843C0.062939 40.0838 0.062372 40.0832 0.0618052 40.0832C0.0609548 40.0832 0.0601044 40.0841 0.0595375 40.0855C0.0586871 40.0863 0.0584036 40.0875 0.0584036 40.0889V40.0968H0.0527344V40.0798H0.0584036V40.0821L0.0606713 40.0798C0.0612383 40.0792 0.062372 40.0787 0.0640729 40.0787C0.0646397 40.0787 0.0654901 40.0792 0.0663406 40.0798C0.0677578 40.0807 0.0686082 40.0818 0.0686082 40.0832Z" fill="white"/>
<path d="M0.102882 40.0753V40.0798H0.107417V40.0832H0.102882V40.0911V40.0934H0.104016H0.107417V40.0968H0.102882C0.100614 40.0968 0.0989133 40.0965 0.0983464 40.0957C0.097496 40.0942 0.0972126 40.0928 0.0972126 40.0911V40.0832H0.093811V40.0798H0.0972126V40.0753H0.102882Z" fill="white"/>
<path d="M0.129226 40.0866V40.0968H0.122422V40.0889V40.0866V40.0843H0.121289C0.121289 40.0838 0.120722 40.0832 0.120155 40.0832C0.119304 40.0832 0.118454 40.0841 0.117887 40.0855C0.117037 40.0863 0.116753 40.0875 0.116753 40.0889V40.0968H0.111084V40.073H0.116753V40.0821L0.119021 40.0798C0.120438 40.0792 0.121572 40.0787 0.122422 40.0787C0.12469 40.0787 0.126107 40.0795 0.126958 40.0809C0.128375 40.0826 0.129226 40.0843 0.129226 40.0866Z" fill="white"/>
<path d="M0.150528 40.0877V40.09H0.138055C0.138055 40.0917 0.138338 40.0928 0.139189 40.0934H0.14259H0.145992C0.147409 40.0928 0.148826 40.092 0.150527 40.0911V40.0957C0.148826 40.0965 0.147409 40.0968 0.145992 40.0968H0.14259C0.139472 40.0968 0.136921 40.0962 0.134653 40.0945C0.132952 40.0931 0.132385 40.0911 0.132385 40.0889C0.132385 40.086 0.132952 40.0838 0.134653 40.0821C0.136921 40.0798 0.139188 40.0787 0.141456 40.0787C0.144291 40.0787 0.146558 40.0798 0.148259 40.0821C0.149676 40.0838 0.150527 40.0855 0.150527 40.0877H0.150528ZM0.144858 40.0866C0.144858 40.0852 0.144291 40.0843 0.143724 40.0843C0.143724 40.0838 0.142874 40.0832 0.141457 40.0832C0.140606 40.0832 0.139756 40.0838 0.139189 40.0843C0.138339 40.0843 0.138055 40.0852 0.138055 40.0866H0.144858Z" fill="white"/>
<path d="M0.166626 40.0741H0.172295L0.181366 40.09V40.0741H0.187035V40.0968H0.180232L0.171161 40.0809V40.0968H0.166626V40.0741Z" fill="white"/>
<path d="M0.199562 40.0832C0.198711 40.0832 0.197861 40.0838 0.197294 40.0843C0.196443 40.0852 0.19616 40.0866 0.19616 40.0889C0.19616 40.0906 0.196443 40.0917 0.197294 40.0923C0.197861 40.0931 0.198711 40.0934 0.199562 40.0934C0.200979 40.0934 0.202113 40.0931 0.202963 40.0923C0.20353 40.0917 0.204097 40.0906 0.204097 40.0889C0.204097 40.0866 0.20353 40.0852 0.202963 40.0843C0.202113 40.0838 0.200979 40.0832 0.199562 40.0832ZM0.199562 40.0787C0.202396 40.0787 0.204664 40.0798 0.206365 40.0821C0.208632 40.0838 0.209766 40.086 0.209766 40.0889C0.209766 40.0911 0.208632 40.0931 0.206365 40.0945C0.204664 40.0962 0.202396 40.0968 0.199562 40.0968C0.197294 40.0968 0.195026 40.0962 0.192758 40.0945C0.191058 40.0931 0.190491 40.0911 0.190491 40.0889C0.190491 40.086 0.191058 40.0838 0.192758 40.0821C0.195026 40.0798 0.197294 40.0787 0.199562 40.0787Z" fill="white"/>
<path d="M0.213135 40.09V40.0798H0.218804V40.081V40.0855V40.0878V40.0912V40.0923C0.219371 40.0923 0.219938 40.0929 0.219938 40.0934H0.221072C0.222489 40.0934 0.223339 40.0932 0.223339 40.0923C0.223906 40.0909 0.224473 40.0895 0.224473 40.0878V40.0798H0.230142V40.0968H0.224473V40.0946C0.223623 40.0954 0.222772 40.0963 0.222206 40.0968H0.218804C0.217103 40.0968 0.215686 40.0966 0.214269 40.0957C0.213418 40.0943 0.213135 40.0923 0.213135 40.09V40.09Z" fill="white"/>
<path d="M0.253432 40.0866V40.0968H0.246629V40.0889V40.0866V40.0843H0.245495C0.245495 40.0838 0.244928 40.0832 0.244361 40.0832C0.243511 40.0832 0.242661 40.0841 0.242094 40.0855C0.241243 40.0863 0.24096 40.0875 0.24096 40.0889V40.0968H0.235291V40.0798H0.24096V40.0821L0.243227 40.0798C0.244645 40.0792 0.245779 40.0787 0.246629 40.0787C0.248897 40.0787 0.250314 40.0795 0.251164 40.0809C0.252582 40.0826 0.253432 40.0843 0.253432 40.0866V40.0866Z" fill="white"/>
<path d="M0.269592 40.0741H0.278663C0.281498 40.0741 0.283765 40.0749 0.285466 40.0764C0.286883 40.0772 0.287734 40.0792 0.287734 40.082C0.287734 40.0843 0.286883 40.0863 0.285466 40.0877C0.283765 40.0886 0.281498 40.0888 0.278663 40.0888H0.275262V40.0968H0.269592V40.0741ZM0.275262 40.0786V40.0843H0.278663H0.280931C0.281498 40.0837 0.282065 40.0829 0.282065 40.082C0.282065 40.0806 0.281498 40.0798 0.280931 40.0798C0.28008 40.0792 0.27923 40.0786 0.278663 40.0786H0.275262Z" fill="white"/>
<path d="M0.303854 40.0843H0.30272C0.30272 40.0838 0.302153 40.0832 0.301586 40.0832C0.299886 40.0832 0.298752 40.0841 0.298185 40.0855C0.297335 40.0863 0.297051 40.0875 0.297051 40.0889V40.0968H0.291382V40.0798H0.297051V40.0832C0.297618 40.0818 0.298468 40.0807 0.299319 40.0798C0.299886 40.0792 0.30102 40.0787 0.30272 40.0787H0.303854V40.0843Z" fill="white"/>
<path d="M0.314674 40.0832C0.313823 40.0832 0.312973 40.0838 0.312406 40.0843C0.311556 40.0852 0.311272 40.0866 0.311272 40.0889C0.311272 40.0906 0.311556 40.0917 0.312406 40.0923C0.312973 40.0931 0.313823 40.0934 0.314674 40.0934C0.316091 40.0934 0.317225 40.0931 0.318075 40.0923C0.318642 40.0917 0.319209 40.0906 0.319209 40.0889C0.319209 40.0866 0.318642 40.0852 0.318075 40.0843C0.317225 40.0838 0.316091 40.0832 0.314674 40.0832ZM0.314674 40.0787C0.317508 40.0787 0.319776 40.0798 0.321477 40.0821C0.323745 40.0838 0.324878 40.086 0.324878 40.0889C0.324878 40.0911 0.323745 40.0931 0.321477 40.0945C0.319776 40.0962 0.317508 40.0968 0.314674 40.0968C0.312406 40.0968 0.310138 40.0962 0.307871 40.0945C0.30617 40.0931 0.305603 40.0911 0.305603 40.0889C0.305603 40.086 0.30617 40.0838 0.307871 40.0821C0.310138 40.0798 0.312406 40.0787 0.314674 40.0787Z" fill="white"/>
<path d="M0.328231 40.0798H0.3339V40.0968C0.3339 40.0991 0.333049 40.1005 0.331632 40.1013C0.330782 40.1028 0.329364 40.1036 0.327097 40.1036H0.324829V40.1002H0.325963C0.32653 40.1002 0.327097 40.0996 0.327097 40.0991C0.327664 40.0991 0.328231 40.0982 0.328231 40.0968V40.0798ZM0.328231 40.073H0.3339V40.0775H0.328231V40.073Z" fill="white"/>
<path d="M0.356033 40.0877V40.09H0.34356C0.34356 40.0917 0.343844 40.0928 0.344694 40.0934H0.348096H0.351497C0.352914 40.0928 0.354332 40.092 0.356033 40.0911V40.0957C0.354332 40.0965 0.352914 40.0968 0.351497 40.0968H0.348096C0.344978 40.0968 0.342426 40.0962 0.340158 40.0945C0.338458 40.0931 0.337891 40.0911 0.337891 40.0889C0.337891 40.086 0.338458 40.0838 0.340158 40.0821C0.342426 40.0798 0.344694 40.0787 0.346961 40.0787C0.349796 40.0787 0.352064 40.0798 0.353764 40.0821C0.355182 40.0838 0.356032 40.0855 0.356032 40.0877H0.356033ZM0.350364 40.0866C0.350364 40.0852 0.349797 40.0843 0.34923 40.0843C0.34923 40.0838 0.348379 40.0832 0.346962 40.0832C0.346112 40.0832 0.345261 40.0838 0.344694 40.0843C0.343844 40.0843 0.343561 40.0852 0.343561 40.0866H0.350364Z" fill="white"/>
<path d="M0.375005 40.0798V40.0843H0.371604C0.371604 40.0838 0.370753 40.0832 0.369336 40.0832C0.368485 40.0832 0.367352 40.0841 0.365934 40.0855C0.365084 40.0863 0.3648 40.0875 0.3648 40.0889C0.3648 40.0897 0.365084 40.0909 0.365934 40.0923C0.367352 40.0931 0.368485 40.0934 0.369336 40.0934H0.372737C0.373304 40.0928 0.374155 40.0923 0.375005 40.0923V40.0968H0.371604H0.369336C0.366218 40.0968 0.363667 40.0962 0.361399 40.0945C0.359698 40.0931 0.359131 40.0911 0.359131 40.0889C0.359131 40.086 0.359698 40.0838 0.361399 40.0821C0.363666 40.0798 0.366217 40.0787 0.369336 40.0787C0.369903 40.0787 0.370753 40.0792 0.371604 40.0798H0.375005Z" fill="white"/>
<path d="M0.385475 40.0753V40.0798H0.39001V40.0832H0.385475V40.0911V40.0934H0.386608H0.39001V40.0968H0.385475C0.383207 40.0968 0.381506 40.0965 0.380939 40.0957C0.380089 40.0942 0.379805 40.0928 0.379805 40.0911V40.0832H0.376404V40.0798H0.379805V40.0753H0.385475Z" fill="white"/>
</svg>
