<svg width="35" height="38" viewBox="0 0 35 38" fill="none" xmlns="http://www.w3.org/2000/svg">
<path d="M24.7568 11.1453V12.0368H22.0987V13.8845C22.0987 14.0357 22.1204 14.1492 22.1636 14.2248C22.2068 14.2951 22.304 14.3302 22.4553 14.3302C22.5796 14.3302 22.7011 14.3113 22.82 14.2734C22.9389 14.2302 23.0469 14.1762 23.1441 14.1114C23.2414 14.0411 23.3197 13.9601 23.3792 13.8683C23.4386 13.7764 23.4683 13.6819 23.4683 13.5846C23.4683 13.536 23.4467 13.4901 23.4035 13.4468C23.3603 13.4036 23.2765 13.382 23.1523 13.382C23.055 13.382 22.9686 13.3901 22.8929 13.4063L22.7633 12.5797C22.8605 12.5527 22.9686 12.5338 23.0874 12.523C23.2117 12.5122 23.3386 12.5068 23.4683 12.5068C23.7871 12.5068 24.0437 12.5797 24.2382 12.7256C24.4327 12.8715 24.5299 13.0984 24.5299 13.4063C24.5299 13.6981 24.4624 13.9574 24.3273 14.1843C24.1923 14.4112 24.014 14.6003 23.7925 14.7516C23.571 14.9029 23.3278 15.019 23.0631 15.1C22.8038 15.1757 22.5499 15.2135 22.3013 15.2135C22.0744 15.2135 21.8826 15.1865 21.726 15.1325C21.5747 15.0784 21.4531 15.0082 21.3613 14.9218C21.3019 14.8623 21.2451 14.7948 21.1911 14.7192C21.1425 14.6435 21.102 14.5382 21.0695 14.4031C21.0425 14.268 21.029 14.0871 21.029 13.8601V12.0368H20.3483V11.1453H24.7568ZM20.948 9.14367C21.1263 9.14367 21.283 9.16528 21.418 9.2085C21.5531 9.25172 21.6665 9.31925 21.7584 9.4111C21.8664 9.51375 21.9502 9.65692 22.0096 9.84061C22.069 10.0243 22.0987 10.2836 22.0987 10.6186V11.1778H21.029V10.6591C21.029 10.524 21.0182 10.4106 20.9966 10.3187C20.975 10.2269 20.9318 10.1594 20.867 10.1161C20.8021 10.0675 20.7049 10.0432 20.5752 10.0432C20.505 10.0432 20.4293 10.0513 20.3483 10.0675C20.2727 10.0837 20.1943 10.108 20.1133 10.1405L19.8053 9.36248C20.016 9.28684 20.2051 9.23281 20.3726 9.2004C20.5401 9.16258 20.7319 9.14367 20.948 9.14367Z" fill="white"/>
<path d="M34.5239 8.97969C34.2748 8.18185 33.5462 7.64584 32.7096 7.64584C32.5178 7.64584 32.3265 7.67497 32.1424 7.73268L29.5265 8.55057V2.39887C29.5265 0.883069 28.5846 0.000267197 27.1543 0.000267197L15.7947 0C14.3345 0 13.309 0.856125 13.309 2.3986V14.1666C11.9845 14.7424 11.0597 15.1501 10.8618 15.2513C9.26285 16.0657 8.05589 17.9367 7.7842 18.6907C7.4526 19.4447 0 38 0 38H15.4473C15.4473 38 19.1886 36.431 21.1798 34.2587C22.0183 33.3428 22.6889 32.1038 23.1533 31.0794H27.2746C28.559 31.0794 29.5263 30.2524 29.5263 28.6006V27.1978H31.1815C32.2303 27.1978 33.0829 26.3446 33.0829 25.297C33.0829 24.2493 32.2303 23.3967 31.1815 23.3967L29.526 23.397V22.7629H31.2264C32.2743 22.7629 33.1275 21.9097 33.1275 20.8626C33.1275 19.8142 32.2743 18.9615 31.2264 18.9615H29.526V18.328H31.2264C32.2743 18.328 33.1275 17.4754 33.1275 16.4272C33.1275 15.3787 32.2743 14.5269 31.2264 14.5269H29.526V12.532L33.2763 11.3603C33.7613 11.2094 34.1586 10.8786 34.394 10.4281C34.6292 9.97891 34.6751 9.46482 34.5234 8.97958L34.5239 8.97969ZM21.4063 29.4621C20.9564 29.4621 20.5911 29.0966 20.5911 28.6469C20.5911 28.1969 20.9561 27.8322 21.4063 27.8322C21.8571 27.8322 22.221 28.1969 22.221 28.6469C22.221 29.0966 21.8571 29.4621 21.4063 29.4621ZM27.8185 26.6788H18.1539C18.1574 27.6096 18.0743 28.8836 17.7235 30.233C17.0178 32.9419 14.6951 34.4699 14.5962 34.5344C14.5053 34.5929 14.4027 34.6217 14.302 34.6217C14.1238 34.6217 13.9496 34.5344 13.8454 34.3738C13.6826 34.1218 13.7551 33.7865 14.0068 33.6222C14.0268 33.6104 16.0711 32.2501 16.6721 29.9594C17.3109 27.5244 16.9919 25.3658 16.9892 25.3436C16.9828 25.2974 16.9839 25.2533 16.9889 25.2082H23.1719C24.4397 25.2082 25.7063 24.4458 25.7063 22.9466C25.7063 21.4468 24.59 20.5023 23.1719 20.5023L12.6728 20.5026V19.4159H15.0111V4.11975H27.8194V26.6789L27.8185 26.6788Z" fill="white"/>
</svg>
