<svg width="40" height="35" viewBox="0 0 40 35" fill="none" xmlns="http://www.w3.org/2000/svg">
<path d="M34.7076 19.4462V8.98471H32.1845L31.2615 3.69225L28 4.2461L26.4615 0L0.307759 8.98506V9.04673L0 9.04645V30.1545H25.723C26.9538 32.616 29.5384 34.2776 32.4307 34.2776C36.6154 34.2162 40 30.8317 40 26.6468C40 23.3237 37.7846 20.4313 34.7075 19.4467L34.7076 19.4462ZM31.2615 8.98471H5.78416L30.5229 4.73861L31.2615 8.98471ZM27.1384 4.43082L5.59965 8.12306L25.9077 1.16909L27.1384 4.43082ZM0.922478 29.231V9.908H33.8463V19.2616C33.4155 19.2 32.9233 19.1386 32.4925 19.1386C32.1233 19.1386 31.6926 19.2003 31.3231 19.2616V15.2H30.8923C29.6616 15.2 28.6769 14.2153 28.6769 12.9845V12.5537L6.15386 12.554V12.9848C6.15386 14.2155 5.16921 15.2002 3.93841 15.2002H3.44622V24.0617H3.87703C5.10775 24.0617 6.09247 25.0464 6.09247 26.2772V26.6463H24.8619C24.8619 27.5079 25.0466 28.3696 25.2927 29.1695H0.923235L0.922478 29.231ZM24.9227 25.7848H7.01467C6.82996 24.431 5.72223 23.3233 4.36843 23.1386V16.0001C5.72223 15.8154 6.82995 14.7077 7.01467 13.3539H27.7534C27.9381 14.7077 29.0458 15.8154 30.3996 16.0001V19.3846C27.5073 20.2462 25.2919 22.7077 24.9224 25.7848H24.9227ZM32.4306 33.2927C28.7383 33.2927 25.7843 30.3388 25.7843 26.6465C25.7843 22.9542 28.7383 20.0002 32.4306 20.0002C36.1229 20.0002 39.0768 23.0156 39.0768 26.6465C39.0768 30.2774 36.1229 33.2927 32.4306 33.2927Z" fill="white"/>
<path d="M32.9226 22.8305H31.9996V26.215H28.5535V27.138H31.9996V30.5228H32.9226V27.138H36.3075V26.215H32.9226V22.8305Z" fill="white"/>
<path d="M20.5575 17.8139V18.5339H17.0975V21.2939C17.0975 21.6072 17.1375 21.8205 17.2175 21.9339C17.3041 22.0472 17.4708 22.1039 17.7175 22.1039C17.9175 22.1039 18.1175 22.0605 18.3175 21.9739C18.5241 21.8872 18.7075 21.7705 18.8675 21.6239C19.0341 21.4772 19.1675 21.3105 19.2675 21.1239C19.3675 20.9305 19.4175 20.7339 19.4175 20.5339C19.4175 20.3739 19.3708 20.2505 19.2775 20.1639C19.1908 20.0772 19.0475 20.0339 18.8475 20.0339C18.6675 20.0339 18.5008 20.0539 18.3475 20.0939L18.2475 19.4139C18.3608 19.3805 18.4808 19.3572 18.6075 19.3439C18.7408 19.3239 18.8741 19.3139 19.0075 19.3139C19.3608 19.3139 19.6475 19.4039 19.8675 19.5839C20.0941 19.7572 20.2075 20.0405 20.2075 20.4339C20.2075 20.7405 20.1341 21.0372 19.9875 21.3239C19.8475 21.6039 19.6575 21.8572 19.4175 22.0839C19.1775 22.3039 18.9075 22.4772 18.6075 22.6039C18.3075 22.7305 18.0008 22.7939 17.6875 22.7939C17.4408 22.7939 17.2375 22.7672 17.0775 22.7139C16.9175 22.6539 16.7841 22.5739 16.6775 22.4739C16.6108 22.4072 16.5508 22.3339 16.4975 22.2539C16.4441 22.1672 16.4008 22.0539 16.3675 21.9139C16.3408 21.7672 16.3275 21.5739 16.3275 21.3339V18.5339H15.3575V17.8139H20.5575ZM15.8575 15.3039C16.0508 15.3039 16.2175 15.3305 16.3575 15.3839C16.5041 15.4372 16.6275 15.5172 16.7275 15.6239C16.8475 15.7505 16.9375 15.9239 16.9975 16.1439C17.0641 16.3572 17.0975 16.6605 17.0975 17.0539V17.8939H16.3275V17.0939C16.3275 16.8605 16.3108 16.6672 16.2775 16.5139C16.2508 16.3539 16.1875 16.2339 16.0875 16.1539C15.9875 16.0672 15.8375 16.0239 15.6375 16.0239C15.5108 16.0239 15.3841 16.0439 15.2575 16.0839C15.1375 16.1172 15.0341 16.1505 14.9475 16.1839L14.6775 15.5639C14.8775 15.4772 15.0708 15.4139 15.2575 15.3739C15.4508 15.3272 15.6508 15.3039 15.8575 15.3039Z" fill="white"/>
</svg>
