<svg width="40" height="38" viewBox="0 0 40 38" fill="none" xmlns="http://www.w3.org/2000/svg">
<g clip-path="url(#clip0_5_2914)">
<path d="M32.1794 4.00166C31.9232 3.81006 31.5519 3.85209 31.3503 4.09559C31.1487 4.3391 31.1929 4.69171 31.4492 4.88324C34.9353 7.48932 37.2696 11.1047 38.1444 15.1274C37.1714 14.1988 35.8254 13.6234 34.3405 13.6234C32.5959 13.6234 31.0431 14.418 30.0614 15.6458C29.9374 13.9227 29.6403 11.8621 28.9271 9.75519C27.6925 6.10801 25.5278 3.26666 22.4773 1.27967C24.8664 1.58487 27.1765 2.32907 29.2643 3.47651C29.5466 3.63162 29.9077 3.54001 30.0711 3.27182C30.2344 3.00371 30.1379 2.66059 29.8556 2.50541C26.8731 0.866324 23.465 0 20.0001 0C14.7353 0 9.78559 1.94773 6.06265 5.48445C2.3398 9.02124 0.289551 13.7234 0.289551 18.725C0.289551 19.0347 0.5539 19.2859 0.879968 19.2859C1.20604 19.2859 1.47039 19.0347 1.47039 18.725C1.47039 16.5306 3.34996 14.7453 5.66038 14.7453C7.97033 14.7453 9.84959 16.5306 9.84959 18.725C9.84959 19.0347 10.1139 19.2859 10.44 19.2859C10.7661 19.2859 11.0304 19.0347 11.0304 18.725C11.0304 16.5306 12.9101 14.7453 15.2204 14.7453C16.4639 14.7453 17.582 15.2633 18.35 16.0833V33.5726C18.35 34.2261 17.7907 34.7577 17.1024 34.7577C16.415 34.7577 15.8558 34.2261 15.8558 33.5726V33.0765C15.8558 31.0494 12.5556 31.0109 12.5556 33.0499V33.68C12.5556 36.0621 14.5955 38 17.1029 38C19.6103 38 21.6502 36.0621 21.6502 33.68V16.0835C22.4182 15.2633 23.5367 14.7453 24.7805 14.7453C27.0904 14.7453 28.9697 16.5306 28.9697 18.725C28.9697 19.0347 29.234 19.2859 29.5601 19.2859C29.8862 19.2859 30.1505 19.0347 30.1505 18.725C30.1505 16.5306 32.0302 14.7453 34.3406 14.7453C36.6505 14.7453 38.5297 16.5306 38.5297 18.725C38.5297 19.0347 38.7941 19.2859 39.1201 19.2859C39.4462 19.2859 39.7105 19.0347 39.7105 18.725C39.7105 12.9461 36.9655 7.57973 32.1794 4.00166ZM19.5308 19.0644C19.6386 19.1987 19.8084 19.2858 20.0001 19.2858C20.1917 19.2858 20.3615 19.1987 20.4693 19.0644V30.6769H19.5308V19.0644ZM15.2204 13.6235C13.5908 13.6235 12.1284 14.3167 11.1426 15.4087C11.2625 13.9707 11.5106 12.3171 12.0255 10.6318C12.1164 10.3343 11.9362 10.0231 11.623 9.93684C11.3099 9.85047 10.9823 10.0217 10.8915 10.3192C10.3095 12.2242 10.0527 14.0775 9.93934 15.6465C8.95783 14.4183 7.40511 13.6235 5.66038 13.6235C4.17749 13.6235 2.83307 14.1972 1.8603 15.1233C3.44978 7.88935 9.72789 2.27088 17.5261 1.27817C15.0635 2.88301 13.1723 5.04919 11.8875 7.74262C11.7529 8.02479 11.8846 8.35714 12.1816 8.48502C12.2606 8.51905 12.3434 8.53513 12.4249 8.53513C12.6496 8.53513 12.8643 8.41263 12.9631 8.20562C14.3591 5.27879 16.5255 3.02278 19.4096 1.48735V15.5346C18.4391 14.3258 16.8045 13.6235 15.2204 13.6235ZM20.4693 33.6801C20.4693 35.4436 18.9591 36.8783 17.1028 36.8783C15.2466 36.8783 13.7364 35.4436 13.7364 33.6801V33.05C13.7364 32.463 14.675 32.4767 14.675 33.0765V33.5727C14.675 34.8447 15.7639 35.8796 17.1033 35.8796C18.4418 35.8796 19.5308 34.8447 19.5308 33.5727V31.7988H20.4693V33.6801ZM24.7805 13.6235C23.1972 13.6235 21.5607 14.3258 20.5904 15.5344V1.48653C27.0004 4.89431 28.5065 11.0972 28.8605 15.412C27.8749 14.318 26.4115 13.6235 24.7805 13.6235Z" fill="white"/>
<path d="M12.2839 28.5489C12.0308 28.3536 11.6588 28.3902 11.4533 28.6306C10.5108 29.7329 9.11386 30.365 7.62081 30.365C4.89977 30.365 2.68602 28.262 2.68602 25.677C2.68602 23.092 4.89977 20.9889 7.62081 20.9889C10.3418 20.9889 12.5556 23.092 12.5556 25.677C12.5556 25.9224 12.5355 26.1688 12.4959 26.4094C12.4454 26.7154 12.6657 27.0023 12.9878 27.0503C13.3098 27.0981 13.612 26.889 13.6624 26.5829C13.7116 26.2851 13.7364 25.9803 13.7364 25.677C13.7364 22.4734 10.993 19.8671 7.62081 19.8671C4.24866 19.8671 1.50519 22.4734 1.50519 25.677C1.50519 28.8805 4.24866 31.4868 7.62081 31.4868C9.4711 31.4868 11.202 30.7036 12.3698 29.3379C12.5754 29.0975 12.5369 28.7443 12.2839 28.5489Z" fill="white"/>
<path d="M33.7443 20.5729H28.8975C27.5998 20.5729 26.544 21.5759 26.544 22.8087V28.5453C26.544 29.7781 27.5998 30.7811 28.8975 30.7811H33.7443C35.042 30.7811 36.0978 29.7781 36.0978 28.5453V22.8087C36.0978 21.5759 35.042 20.5729 33.7443 20.5729ZM34.9169 28.5452C34.9169 29.1595 34.3908 29.6592 33.7443 29.6592H28.8975C28.2509 29.6592 27.7248 29.1594 27.7248 28.5452V22.8087C27.7248 22.1944 28.2509 21.6947 28.8975 21.6947H33.7443C34.3909 21.6947 34.9169 22.1944 34.9169 22.8087V28.5452Z" fill="white"/>
<path d="M29.6253 24.5598H31.9061C32.2322 24.5598 32.4965 24.3087 32.4965 23.9989C32.4965 23.6892 32.2322 23.438 31.9061 23.438H29.6253C29.2992 23.438 29.0349 23.6892 29.0349 23.9989C29.0349 24.3087 29.2992 24.5598 29.6253 24.5598Z" fill="white"/>
<path d="M32.9689 25.7189H29.6252C29.2991 25.7189 29.0348 25.9701 29.0348 26.2798C29.0348 26.5896 29.2991 26.8407 29.6252 26.8407H32.9689C33.2949 26.8407 33.5593 26.5896 33.5593 26.2798C33.5593 25.9701 33.2949 25.7189 32.9689 25.7189Z" fill="white"/>
<path d="M10.1992 24.984V25.864H7.57518V27.688C7.57518 27.8373 7.59652 27.9493 7.63918 28.024C7.68185 28.0933 7.77785 28.128 7.92718 28.128C8.04985 28.128 8.16985 28.1093 8.28718 28.072C8.40452 28.0293 8.51118 27.976 8.60718 27.912C8.70318 27.8427 8.78052 27.7627 8.83918 27.672C8.89785 27.5813 8.92718 27.488 8.92718 27.392C8.92718 27.344 8.90585 27.2987 8.86318 27.256C8.82052 27.2133 8.73785 27.192 8.61518 27.192C8.51918 27.192 8.43385 27.2 8.35918 27.216L8.23118 26.4C8.32718 26.3733 8.43385 26.3547 8.55118 26.344C8.67385 26.3333 8.79918 26.328 8.92718 26.328C9.24185 26.328 9.49518 26.4 9.68718 26.544C9.87918 26.688 9.97518 26.912 9.97518 27.216C9.97518 27.504 9.90852 27.76 9.77518 27.984C9.64185 28.208 9.46585 28.3947 9.24718 28.544C9.02852 28.6933 8.78852 28.808 8.52718 28.888C8.27118 28.9627 8.02052 29 7.77518 29C7.55118 29 7.36185 28.9733 7.20718 28.92C7.05785 28.8667 6.93785 28.7973 6.84718 28.712C6.78852 28.6533 6.73252 28.5867 6.67918 28.512C6.63118 28.4373 6.59118 28.3333 6.55918 28.2C6.53252 28.0667 6.51918 27.888 6.51918 27.664V25.864H5.84718V24.984H10.1992ZM6.43918 23.008C6.61518 23.008 6.76985 23.0293 6.90318 23.072C7.03652 23.1147 7.14852 23.1813 7.23918 23.272C7.34585 23.3733 7.42852 23.5147 7.48718 23.696C7.54585 23.8773 7.57518 24.1333 7.57518 24.464V25.016H6.51918V24.504C6.51918 24.3707 6.50852 24.2587 6.48718 24.168C6.46585 24.0773 6.42318 24.0107 6.35918 23.968C6.29518 23.92 6.19918 23.896 6.07118 23.896C6.00185 23.896 5.92718 23.904 5.84718 23.92C5.77252 23.936 5.69518 23.96 5.61518 23.992L5.31118 23.224C5.51918 23.1493 5.70585 23.096 5.87118 23.064C6.03652 23.0267 6.22585 23.008 6.43918 23.008Z" fill="white"/>
</g>
<defs>
<clipPath id="clip0_5_2914">
<rect width="40" height="38" fill="white"/>
</clipPath>
</defs>
</svg>
