<svg width="40" height="40" viewBox="0 0 40 40" fill="none" xmlns="http://www.w3.org/2000/svg">
<path d="M35.1831 8.93311L36.0669 9.81686L38.5669 7.31686C38.684 7.19965 38.7499 7.04071 38.7499 6.87498C38.7499 6.70925 38.684 6.55031 38.5669 6.43311L36.0669 3.93311L35.1831 4.81686L36.6162 6.24998H29.375V7.49998H36.6162L35.1831 8.93311Z" fill="white"/>
<path d="M31.4331 14.8169L32.3169 13.9331L30.8837 12.5H38.125V11.25H30.8837L32.3169 9.81686L31.4331 8.93311L28.9331 11.4331C28.8159 11.5503 28.7501 11.7093 28.7501 11.875C28.7501 12.0407 28.8159 12.1997 28.9331 12.3169L31.4331 14.8169Z" fill="white"/>
<path d="M38.0188 19.4813C37.5757 19.0368 36.981 18.7762 36.3539 18.7519C35.7268 18.7276 35.1137 18.9412 34.6375 19.35C34.4189 18.9772 34.1067 18.668 33.7317 18.4531C33.3568 18.2383 32.9322 18.1251 32.5 18.125C32.2205 18.1211 31.9427 18.1698 31.6812 18.2687C31.3916 18.3711 31.1242 18.5281 30.8937 18.7312C30.6738 18.3578 30.3605 18.048 29.9847 17.8321C29.6089 17.6162 29.1834 17.5018 28.75 17.5C28.3102 17.5013 27.8786 17.6199 27.5 17.8438V7.5C27.5 6.83696 27.2366 6.20107 26.7678 5.73223C26.2989 5.26339 25.663 5 25 5C24.5602 5.00127 24.1286 5.11994 23.75 5.34375V3.125C23.7485 2.62818 23.5505 2.15212 23.1992 1.80081C22.8479 1.4495 22.3718 1.25148 21.875 1.25H6.875C6.37818 1.25148 5.90212 1.4495 5.55081 1.80081C5.1995 2.15212 5.00148 2.62818 5 3.125V15.625H4.375C3.5462 15.625 2.75134 15.9542 2.16529 16.5403C1.57924 17.1263 1.25 17.9212 1.25 18.75V21.3062L2.5 34.4062V38.125C2.5 38.2908 2.56585 38.4497 2.68306 38.5669C2.80027 38.6842 2.95924 38.75 3.125 38.75H16.875C17.0408 38.75 17.1997 38.6842 17.3169 38.5669C17.4342 38.4497 17.5 38.2908 17.5 38.125V34.575L19.825 31.25H21.1687L21.875 33.2312V38.125C21.875 38.2908 21.9408 38.4497 22.0581 38.5669C22.1753 38.6842 22.3342 38.75 22.5 38.75H35C35.1658 38.75 35.3247 38.6842 35.4419 38.5669C35.5592 38.4497 35.625 38.2908 35.625 38.125V33.2312L38.4938 25.1938C38.6626 24.7224 38.7492 24.2256 38.75 23.725V21.25C38.7503 20.9216 38.6858 20.5964 38.5603 20.2929C38.4349 19.9894 38.2508 19.7136 38.0188 19.4813ZM16.25 37.5H3.75V35H16.25V37.5ZM16.55 33.75H3.69375L2.5 21.25V18.75C2.50148 18.2532 2.6995 17.7771 3.05081 17.4258C3.40212 17.0745 3.87818 16.8765 4.375 16.875H8.75C9.24728 16.875 9.72419 17.0725 10.0758 17.4242C10.4275 17.7758 10.625 18.2527 10.625 18.75C10.625 19.2473 10.4275 19.7242 10.0758 20.0758C9.72419 20.4275 9.24728 20.625 8.75 20.625H5.625C5.45924 20.625 5.30027 20.6908 5.18306 20.8081C5.06585 20.9253 5 21.0842 5 21.25V29.375C5.00148 29.8718 5.1995 30.3479 5.55081 30.6992C5.90212 31.0505 6.37818 31.2485 6.875 31.25H18.3L16.55 33.75ZM6.875 30C6.70924 30 6.55027 29.9342 6.43306 29.8169C6.31585 29.6997 6.25 29.5408 6.25 29.375V27.5H17.5V26.25H6.25V21.875H8.75C9.5788 21.875 10.3737 21.5458 10.9597 20.9597C11.5458 20.3737 11.875 19.5788 11.875 18.75C11.875 17.9212 11.5458 17.1263 10.9597 16.5403C10.3737 15.9542 9.5788 15.625 8.75 15.625H6.25V3.125C6.25 2.95924 6.31585 2.80027 6.43306 2.68306C6.55027 2.56585 6.70924 2.5 6.875 2.5H21.875C22.0408 2.5 22.1997 2.56585 22.3169 2.68306C22.4342 2.80027 22.5 2.95924 22.5 3.125V15.975C22.1205 15.7472 21.6864 15.6262 21.2438 15.625C20.5829 15.6266 19.9495 15.8899 19.4822 16.3572C19.0149 16.8245 18.7516 17.4579 18.75 18.1187V23.725C18.7513 24.2276 18.8379 24.7264 19.0063 25.2L20.7188 30H6.875ZM25 37.5H23.125V33.75H25V37.5ZM28.125 37.5H26.25V33.75H28.125V37.5ZM31.25 37.5H29.375V33.75H31.25V37.5ZM34.375 37.5H32.5V33.75H34.375V37.5ZM37.5 23.725C37.4992 24.0827 37.438 24.4377 37.3187 24.775L34.5625 32.5H22.9375L20.1813 24.7812C20.0625 24.4417 20.0013 24.0847 20 23.725V18.1187C20.0008 17.7872 20.1333 17.4696 20.3683 17.2358C20.6033 17.0019 20.9216 16.871 21.2531 16.8719C21.5846 16.8727 21.9023 17.0052 22.1361 17.2402C22.3699 17.4752 22.5008 17.7935 22.5 18.125V23.125H23.75V7.5C23.7525 7.16924 23.8849 6.85272 24.1188 6.61883C24.3527 6.38494 24.6692 6.25245 25 6.25C25.3312 6.25099 25.6486 6.383 25.8828 6.61721C26.117 6.85142 26.249 7.16878 26.25 7.5V23.125H27.5V20C27.5025 19.6692 27.6349 19.3527 27.8688 19.1188C28.1027 18.8849 28.4192 18.7525 28.75 18.75C29.0812 18.751 29.3986 18.883 29.6328 19.1172C29.867 19.3514 29.999 19.6688 30 20V23.125H31.25V20.625C31.2501 20.461 31.2828 20.2987 31.3461 20.1474C31.4094 19.9961 31.502 19.8589 31.6187 19.7437C31.7509 19.6043 31.9166 19.501 32.1 19.4438C32.2283 19.3977 32.3637 19.3744 32.5 19.375C32.8312 19.376 33.1486 19.508 33.3828 19.7422C33.617 19.9764 33.749 20.2938 33.75 20.625V23.75H35V21.25C35.001 20.9188 35.133 20.6014 35.3672 20.3672C35.6014 20.133 35.9188 20.001 36.25 20C36.5808 20.0025 36.8973 20.1349 37.1312 20.3688C37.3651 20.6027 37.4975 20.9192 37.5 21.25V23.725Z" fill="white"/>
<path d="M14.375 3.75C13.1389 3.75 11.9305 4.11656 10.9027 4.80331C9.87488 5.49007 9.0738 6.46619 8.60076 7.60823C8.12771 8.75027 8.00394 10.0069 8.24509 11.2193C8.48625 12.4317 9.08151 13.5453 9.95559 14.4194C10.8297 15.2935 11.9433 15.8888 13.1557 16.1299C14.3681 16.3711 15.6247 16.2473 16.7668 15.7742C17.9088 15.3012 18.8849 14.5001 19.5717 13.4723C20.2584 12.4445 20.625 11.2361 20.625 10C20.6224 8.34321 19.963 6.75503 18.7915 5.5835C17.62 4.41197 16.0318 3.75264 14.375 3.75ZM14.375 15C13.3861 15 12.4194 14.7068 11.5972 14.1573C10.7749 13.6079 10.134 12.827 9.75561 11.9134C9.37717 10.9998 9.27815 9.99445 9.47108 9.02455C9.664 8.05464 10.1402 7.16373 10.8395 6.46447C11.5387 5.7652 12.4296 5.289 13.3996 5.09607C14.3695 4.90315 15.3748 5.00216 16.2884 5.3806C17.2021 5.75904 17.9829 6.3999 18.5324 7.22215C19.0818 8.04439 19.375 9.01109 19.375 10C19.3732 11.3255 18.8458 12.5962 17.9085 13.5335C16.9712 14.4708 15.7005 14.9982 14.375 15Z" fill="white"/>
<path d="M16.4534 8.759V9.419H14.4854V10.787C14.4854 10.899 14.5014 10.983 14.5334 11.039C14.5654 11.091 14.6374 11.117 14.7494 11.117C14.8414 11.117 14.9314 11.103 15.0194 11.075C15.1074 11.043 15.1874 11.003 15.2594 10.955C15.3314 10.903 15.3894 10.843 15.4334 10.775C15.4774 10.707 15.4994 10.637 15.4994 10.565C15.4994 10.529 15.4834 10.495 15.4514 10.463C15.4194 10.431 15.3574 10.415 15.2654 10.415C15.1934 10.415 15.1294 10.421 15.0734 10.433L14.9774 9.821C15.0494 9.801 15.1294 9.787 15.2174 9.779C15.3094 9.771 15.4034 9.767 15.4994 9.767C15.7354 9.767 15.9254 9.821 16.0694 9.929C16.2134 10.037 16.2854 10.205 16.2854 10.433C16.2854 10.649 16.2354 10.841 16.1354 11.009C16.0354 11.177 15.9034 11.317 15.7394 11.429C15.5754 11.541 15.3954 11.627 15.1994 11.687C15.0074 11.743 14.8194 11.771 14.6354 11.771C14.4674 11.771 14.3254 11.751 14.2094 11.711C14.0974 11.671 14.0074 11.619 13.9394 11.555C13.8954 11.511 13.8534 11.461 13.8134 11.405C13.7774 11.349 13.7474 11.271 13.7234 11.171C13.7034 11.071 13.6934 10.937 13.6934 10.769V9.419H13.1894V8.759H16.4534ZM13.6334 7.277C13.7654 7.277 13.8814 7.293 13.9814 7.325C14.0814 7.357 14.1654 7.407 14.2334 7.475C14.3134 7.551 14.3754 7.657 14.4194 7.793C14.4634 7.929 14.4854 8.121 14.4854 8.369V8.783H13.6934V8.399C13.6934 8.299 13.6854 8.215 13.6694 8.147C13.6534 8.079 13.6214 8.029 13.5734 7.997C13.5254 7.961 13.4534 7.943 13.3574 7.943C13.3054 7.943 13.2494 7.949 13.1894 7.961C13.1334 7.973 13.0754 7.991 13.0154 8.015L12.7874 7.439C12.9434 7.383 13.0834 7.343 13.2074 7.319C13.3314 7.291 13.4734 7.277 13.6334 7.277Z" fill="white"/>
</svg>
