<svg width="40" height="40" viewBox="0 0 40 40" fill="none" xmlns="http://www.w3.org/2000/svg">
<g clip-path="url(#clip0_5_2773)">
<rect width="40" height="40" fill="#FD7E49"/>
<path d="M19.6284 28.0508C19.4144 28.0508 19.2032 27.8387 19.2044 27.6246L19.2442 20.8082H16.9948C16.7143 20.8082 16.5075 20.5286 16.5896 20.2604L19.0431 12.2487C19.0977 12.0707 19.2621 11.9491 19.4483 11.9491H22.1261C22.4076 11.9491 22.6143 12.2302 22.5306 12.4988L20.822 17.9854H23.0053C23.2952 17.9854 23.5028 18.2828 23.4032 18.5549L20.026 27.7728C19.964 27.9421 19.8034 28.0508 19.6284 28.0508ZM17.5677 19.9608H19.6704C19.9298 19.9854 20.0711 20.1275 20.0942 20.387L20.0661 25.2002L22.3987 18.833H20.2463C19.9648 18.833 19.7581 18.5519 19.8418 18.2832L21.5504 12.7966H19.7618L17.5677 19.9608Z" fill="white"/>
<path d="M8.65634 31.2404H7.38515C7.15109 31.2404 6.96143 31.0507 6.96143 30.8167C6.96143 30.5827 7.15109 30.3929 7.38515 30.3929H8.65634C8.89041 30.3929 9.08007 30.5827 9.08007 30.8167C9.08007 31.0507 8.89032 31.2404 8.65634 31.2404Z" fill="white"/>
<path d="M4.37668 31.2404H3.10549C2.87142 31.2404 2.68176 31.0507 2.68176 30.8167C2.68176 30.5827 2.87142 30.3929 3.10549 30.3929H4.37668C4.61075 30.3929 4.80041 30.5827 4.80041 30.8167C4.80041 31.0507 4.61066 31.2404 4.37668 31.2404Z" fill="white"/>
<path d="M12.936 31.2404H11.6648C11.4307 31.2404 11.2411 31.0507 11.2411 30.8167C11.2411 30.5827 11.4307 30.3929 11.6648 30.3929H12.936C13.1701 30.3929 13.3597 30.5827 13.3597 30.8167C13.3597 31.0507 13.17 31.2404 12.936 31.2404Z" fill="white"/>
<path d="M10.1394 28.5285H5.90212C5.66805 28.5285 5.47839 28.3388 5.47839 28.1048C5.47839 27.8708 5.66805 27.6811 5.90212 27.6811H10.1394C10.3735 27.6811 10.5631 27.8708 10.5631 28.1048C10.5631 28.3388 10.3734 28.5285 10.1394 28.5285Z" fill="white"/>
<path d="M8.65634 34.2913H7.38515C7.15109 34.2913 6.96143 34.1015 6.96143 33.8675C6.96143 33.6336 7.15109 33.4438 7.38515 33.4438H8.65634C8.89041 33.4438 9.08007 33.6336 9.08007 33.8675C9.08007 34.1015 8.89032 34.2913 8.65634 34.2913Z" fill="white"/>
<path d="M4.37668 34.2913H3.10549C2.87142 34.2913 2.68176 34.1015 2.68176 33.8675C2.68176 33.6336 2.87142 33.4438 3.10549 33.4438H4.37668C4.61075 33.4438 4.80041 33.6336 4.80041 33.8675C4.80041 34.1015 4.61066 34.2913 4.37668 34.2913Z" fill="white"/>
<path d="M12.936 34.2913H11.6648C11.4307 34.2913 11.2411 34.1015 11.2411 33.8675C11.2411 33.6336 11.4307 33.4438 11.6648 33.4438H12.936C13.1701 33.4438 13.3597 33.6336 13.3597 33.8675C13.3597 34.1015 13.17 34.2913 12.936 34.2913Z" fill="white"/>
<path d="M8.65634 37.3421H7.38515C7.15109 37.3421 6.96143 37.1524 6.96143 36.9184C6.96143 36.6844 7.15109 36.4947 7.38515 36.4947H8.65634C8.89041 36.4947 9.08007 36.6844 9.08007 36.9184C9.08007 37.1524 8.89032 37.3421 8.65634 37.3421Z" fill="white"/>
<path d="M4.37668 37.3421H3.10549C2.87142 37.3421 2.68176 37.1524 2.68176 36.9184C2.68176 36.6844 2.87142 36.4947 3.10549 36.4947H4.37668C4.61075 36.4947 4.80041 36.6844 4.80041 36.9184C4.80041 37.1524 4.61066 37.3421 4.37668 37.3421Z" fill="white"/>
<path d="M12.936 37.3421H11.6648C11.4307 37.3421 11.2411 37.1524 11.2411 36.9184C11.2411 36.6844 11.4307 36.4947 11.6648 36.4947H12.936C13.1701 36.4947 13.3597 36.6844 13.3597 36.9184C13.3597 37.1524 13.17 37.3421 12.936 37.3421Z" fill="white"/>
<path d="M13.3598 25.9586H2.68179C2.44772 25.9586 2.25806 25.7688 2.25806 25.5348V16.2128C2.25806 15.9788 2.44772 15.7891 2.68179 15.7891H13.3598C13.5938 15.7891 13.7835 15.9788 13.7835 16.2128V25.5348C13.7835 25.7688 13.5937 25.9586 13.3598 25.9586ZM3.10551 25.1111H12.936V16.6365H3.10551V25.1111Z" fill="white"/>
<path d="M4.43552 20.7624C4.07976 20.7624 3.88433 20.2905 4.13594 20.039L6.45772 17.7172C6.62306 17.5518 6.89154 17.5518 7.05688 17.7172C7.22239 17.8827 7.22239 18.151 7.05688 18.3164L4.7351 20.6382C4.65239 20.721 4.54391 20.7624 4.43552 20.7624Z" fill="white"/>
<path d="M6.39408 22.0603C6.03832 22.0603 5.84289 21.5884 6.0945 21.3369L7.72111 19.7102C7.88645 19.5448 8.15493 19.5448 8.32026 19.7102C8.48577 19.8758 8.48577 20.1441 8.32026 20.3095L6.69365 21.9361C6.61103 22.0189 6.50247 22.0603 6.39408 22.0603Z" fill="white"/>
<path d="M37.0893 14.1224C36.8552 14.1224 36.6656 13.9326 36.6656 13.6986V13.1356C36.6656 12.9016 36.8552 12.7119 37.0893 12.7119C37.3234 12.7119 37.513 12.9016 37.513 13.1356V13.6986C37.513 13.9326 37.3234 14.1224 37.0893 14.1224Z" fill="white"/>
<path d="M37.0893 16.8342C36.8552 16.8342 36.6656 16.6445 36.6656 16.4105V15.9322C36.6656 15.6982 36.8552 15.5085 37.0893 15.5085C37.3234 15.5085 37.513 15.6982 37.513 15.9322V16.4105C37.513 16.6445 37.3234 16.8342 37.0893 16.8342Z" fill="white"/>
<path d="M38.7288 15.1968H38.25C38.0159 15.1968 37.8262 15.007 37.8262 14.773C37.8262 14.539 38.0159 14.3493 38.25 14.3493H38.7288C38.9628 14.3493 39.1525 14.539 39.1525 14.773C39.1525 15.007 38.9628 15.1968 38.7288 15.1968Z" fill="white"/>
<path d="M35.9288 15.1968H35.45C35.2159 15.1968 35.0262 15.007 35.0262 14.773C35.0262 14.539 35.2159 14.3493 35.45 14.3493H35.9288C36.1629 14.3493 36.3525 14.539 36.3525 14.773C36.3525 15.007 36.1629 15.1968 35.9288 15.1968Z" fill="white"/>
<path d="M2.91067 6.49526C2.6766 6.49526 2.48694 6.30551 2.48694 6.07153V5.50848C2.48694 5.27449 2.6766 5.08475 2.91067 5.08475C3.14474 5.08475 3.3344 5.27449 3.3344 5.50848V6.07153C3.3344 6.30551 3.14465 6.49526 2.91067 6.49526Z" fill="white"/>
<path d="M2.91067 9.20711C2.6766 9.20711 2.48694 9.01736 2.48694 8.78338V8.30508C2.48694 8.07109 2.6766 7.88135 2.91067 7.88135C3.14474 7.88135 3.3344 8.07109 3.3344 8.30508V8.78338C3.3344 9.01736 3.14465 9.20711 2.91067 9.20711Z" fill="white"/>
<path d="M4.55 7.56966H4.07119C3.83712 7.56966 3.64746 7.37991 3.64746 7.14593C3.64746 6.91194 3.83712 6.7222 4.07119 6.7222H4.55C4.78407 6.7222 4.97373 6.91194 4.97373 7.14593C4.97373 7.37991 4.78407 7.56966 4.55 7.56966Z" fill="white"/>
<path d="M1.75002 7.56966H1.2712C1.03713 7.56966 0.847473 7.37991 0.847473 7.14593C0.847473 6.91194 1.03713 6.7222 1.2712 6.7222H1.75002C1.98408 6.7222 2.17374 6.91194 2.17374 7.14593C2.17374 7.37991 1.98408 7.56966 1.75002 7.56966Z" fill="white"/>
<path d="M29.3644 16.9419C29.6667 16.9419 29.9117 16.6971 29.9117 16.3951C29.9117 16.0931 29.6667 15.8483 29.3644 15.8483C29.0622 15.8483 28.8171 16.0931 28.8171 16.3951C28.8171 16.6971 29.0622 16.9419 29.3644 16.9419Z" fill="white"/>
<path d="M26.3318 34.0307C26.6341 34.0307 26.8791 33.7859 26.8791 33.4839C26.8791 33.1819 26.6341 32.9371 26.3318 32.9371C26.0296 32.9371 25.7845 33.1819 25.7845 33.4839C25.7845 33.7859 26.0296 34.0307 26.3318 34.0307Z" fill="white"/>
<path d="M8.33806 12.2661C8.64032 12.2661 8.88535 12.0213 8.88535 11.7193C8.88535 11.4173 8.64032 11.1725 8.33806 11.1725C8.0358 11.1725 7.79077 11.4173 7.79077 11.7193C7.79077 12.0213 8.0358 12.2661 8.33806 12.2661Z" fill="white"/>
<path d="M30.6176 31.0039C27.8067 31.0039 25.5199 28.7083 25.5199 25.8865C25.5199 23.0648 27.8067 20.7692 30.6176 20.7692C33.4285 20.7692 35.7154 23.0648 35.7154 25.8865C35.7154 28.7083 33.4285 31.0039 30.6176 31.0039ZM30.6176 21.6167C28.274 21.6167 26.3674 23.5321 26.3674 25.8865C26.3674 28.2409 28.274 30.1564 30.6176 30.1564C32.9613 30.1564 34.8679 28.2409 34.8679 25.8865C34.8679 23.5321 32.9613 21.6167 30.6176 21.6167Z" fill="white"/>
<path d="M37.4748 27.5045C37.5965 26.9845 37.663 26.4433 37.663 25.8866C37.663 22.492 35.2681 19.6492 32.0857 18.9692V2.9661C32.0857 1.33059 30.7551 0 29.1196 0H10.8804C9.24492 0 7.91432 1.33059 7.91432 2.9661V9.62898C7.91432 9.86297 8.10398 10.0527 8.33805 10.0527C8.57212 10.0527 8.76178 9.86297 8.76178 9.62898V2.9661C8.76178 1.79788 9.7122 0.847458 10.8804 0.847458H16.3548V2.60441H10.6356C10.4015 2.60441 10.2119 2.79415 10.2119 3.02814V10.4764C10.2119 10.7104 10.4015 10.9002 10.6356 10.9002C10.8697 10.9002 11.0593 10.7104 11.0593 10.4764V3.45186H16.3875C16.5219 4.05898 17.0637 4.51483 17.7107 4.51483H22.2892C22.9362 4.51483 23.4781 4.05898 23.6124 3.45186H28.9407V14.2731C28.9407 14.507 29.1303 14.6968 29.3644 14.6968C29.5985 14.6968 29.7881 14.507 29.7881 14.2731V3.02814C29.7881 2.79415 29.5985 2.60441 29.3644 2.60441H23.6453V0.847458H29.1197C30.2879 0.847458 31.2383 1.79788 31.2383 2.9661V18.8426C31.0336 18.8246 30.827 18.8136 30.6177 18.8136C26.733 18.8136 23.5725 21.9864 23.5725 25.8865C23.5725 29.7866 26.733 32.9595 30.6177 32.9595C31.1142 32.9595 31.5989 32.9075 32.0666 32.8089C32.2822 32.9986 32.5648 33.1316 32.8446 33.2399C33.3777 33.4531 33.4513 33.6465 33.4513 33.8237C33.4513 34.0869 33.2186 34.2636 32.8724 34.2636C32.5088 34.2636 32.1545 34.1203 31.8711 33.9014L31.599 34.6508C31.8944 34.859 32.2391 34.9885 32.6025 35.0237V35.6648H33.3514V34.9821C33.956 34.828 34.3522 34.3599 34.3522 33.7799C34.3522 33.0136 33.7693 32.6808 33.2624 32.4769C33.2474 32.4708 33.2339 32.4649 33.2195 32.459C34.4094 31.9821 35.4405 31.1886 36.2092 30.1826C36.8542 30.9498 37.2053 31.9073 37.2053 32.9269C37.2053 35.2814 35.2986 37.1969 32.9549 37.1969C31.3726 37.1969 29.9308 36.3225 29.1924 34.9149C29.0836 34.7076 28.8272 34.6279 28.6203 34.7366C28.4131 34.8453 28.3331 35.1015 28.4419 35.3087C29.3274 36.9962 31.0567 38.0444 32.955 38.0444C35.7659 38.0444 38.0528 35.7488 38.0528 32.927C38.0528 31.6226 37.573 30.4031 36.6969 29.4555C36.8932 29.1197 37.0629 28.7665 37.2026 28.3985C38.4474 29.5726 39.1525 31.1908 39.1525 32.927C39.1525 36.3597 36.3721 39.1525 32.9547 39.1525C30.4583 39.1525 28.2168 37.6603 27.244 35.3507C27.1531 35.1349 26.9046 35.0337 26.689 35.1247C26.5219 35.1951 26.4247 35.3602 26.4312 35.5312H16.0414V15.5612C16.0414 14.393 15.0909 13.4425 13.9227 13.4425H2.11864C0.950424 13.4425 0 14.393 0 15.5612V37.8814C0 39.0496 0.950424 40 2.11864 40H13.9227C14.6877 40 15.3592 39.5924 15.7317 38.9831H29.3106C30.3866 39.6352 31.6393 40 32.9547 40C36.8395 40 40 36.8271 40 32.927C40 30.8143 39.0829 28.8541 37.4748 27.5045ZM22.7978 3.1589C22.7978 3.43932 22.5697 3.66737 22.2893 3.66737H17.7108C17.4303 3.66737 17.2023 3.43932 17.2023 3.1589V0.847458H22.7978V3.1589ZM30.6176 32.1121C27.2002 32.1121 24.4198 29.3193 24.4198 25.8866C24.4198 22.4539 27.2002 19.661 30.6176 19.661C34.0351 19.661 36.8155 22.4538 36.8155 25.8865C36.8155 29.3192 34.0351 32.1121 30.6176 32.1121ZM13.9227 39.1525H2.11864C1.41771 39.1525 0.847458 38.5823 0.847458 37.8814V15.5612C0.847458 14.8603 1.41771 14.29 2.11864 14.29H13.9227C14.6236 14.29 15.1939 14.8603 15.1939 15.5612V37.8814C15.1939 38.5823 14.6237 39.1525 13.9227 39.1525ZM16.0256 38.1356C16.0356 38.0522 16.0414 37.9675 16.0414 37.8814V36.3787H26.8035C27.1731 37.0434 27.6417 37.6337 28.1853 38.1356H16.0256Z" fill="white"/>
<path d="M31.9911 25.1173V25.5493H29.9151V27.2053C29.9151 27.3933 29.9391 27.5213 29.9871 27.5893C30.0391 27.6573 30.1391 27.6913 30.2871 27.6913C30.4071 27.6913 30.5271 27.6653 30.6471 27.6133C30.7711 27.5613 30.8811 27.4913 30.9771 27.4033C31.0771 27.3153 31.1571 27.2153 31.2171 27.1033C31.2771 26.9873 31.3071 26.8693 31.3071 26.7493C31.3071 26.6533 31.2791 26.5793 31.2231 26.5273C31.1711 26.4753 31.0851 26.4493 30.9651 26.4493C30.8571 26.4493 30.7571 26.4613 30.6651 26.4853L30.6051 26.0773C30.6731 26.0573 30.7451 26.0433 30.8211 26.0353C30.9011 26.0233 30.9811 26.0173 31.0611 26.0173C31.2731 26.0173 31.4451 26.0713 31.5771 26.1793C31.7131 26.2833 31.7811 26.4533 31.7811 26.6893C31.7811 26.8733 31.7371 27.0513 31.6491 27.2233C31.5651 27.3913 31.4511 27.5433 31.3071 27.6793C31.1631 27.8113 31.0011 27.9153 30.8211 27.9913C30.6411 28.0673 30.4571 28.1053 30.2691 28.1053C30.1211 28.1053 29.9991 28.0893 29.9031 28.0573C29.8071 28.0213 29.7271 27.9733 29.6631 27.9133C29.6231 27.8733 29.5871 27.8293 29.5551 27.7813C29.5231 27.7293 29.4971 27.6613 29.4771 27.5773C29.4611 27.4893 29.4531 27.3733 29.4531 27.2293V25.5493H28.8711V25.1173H31.9911ZM29.1711 23.6113C29.2871 23.6113 29.3871 23.6273 29.4711 23.6593C29.5591 23.6913 29.6331 23.7393 29.6931 23.8033C29.7651 23.8793 29.8191 23.9833 29.8551 24.1153C29.8951 24.2433 29.9151 24.4253 29.9151 24.6613V25.1653H29.4531V24.6853C29.4531 24.5453 29.4431 24.4293 29.4231 24.3373C29.4071 24.2413 29.3691 24.1693 29.3091 24.1213C29.2491 24.0693 29.1591 24.0433 29.0391 24.0433C28.9631 24.0433 28.8871 24.0553 28.8111 24.0793C28.7391 24.0993 28.6771 24.1193 28.6251 24.1393L28.4631 23.7673C28.5831 23.7153 28.6991 23.6773 28.8111 23.6533C28.9271 23.6253 29.0471 23.6113 29.1711 23.6113Z" fill="white"/>
</g>
<defs>
<clipPath id="clip0_5_2773">
<rect width="40" height="40" fill="white"/>
</clipPath>
</defs>
</svg>
