<svg width="40" height="38" viewBox="0 0 40 38" fill="none" xmlns="http://www.w3.org/2000/svg">
<path d="M35.5158 6.95576V7.72872H31.8013V10.6918C31.8013 11.0281 31.8442 11.2572 31.9301 11.3788C32.0231 11.5005 32.2021 11.5613 32.4669 11.5613C32.6816 11.5613 32.8963 11.5148 33.111 11.4218C33.3329 11.3287 33.5297 11.2035 33.7015 11.046C33.8804 10.8886 34.0236 10.7096 34.1309 10.5092C34.2383 10.3017 34.2919 10.0906 34.2919 9.87584C34.2919 9.70408 34.2418 9.57167 34.1416 9.47863C34.0486 9.38559 33.8947 9.33906 33.68 9.33906C33.4868 9.33906 33.3078 9.36054 33.1432 9.40348L33.0359 8.67346C33.1575 8.63767 33.2864 8.61262 33.4224 8.59831C33.5655 8.57684 33.7086 8.5661 33.8518 8.5661C34.2311 8.5661 34.5389 8.66272 34.775 8.85596C35.0184 9.04205 35.1401 9.34622 35.1401 9.76849C35.1401 10.0977 35.0613 10.4162 34.9039 10.724C34.7536 11.0246 34.5496 11.2965 34.2919 11.5399C34.0343 11.776 33.7444 11.9621 33.4224 12.0981C33.1003 12.2341 32.7711 12.3021 32.4347 12.3021C32.1699 12.3021 31.9516 12.2735 31.7798 12.2162C31.608 12.1518 31.4649 12.0659 31.3504 11.9586C31.2788 11.887 31.2144 11.8083 31.1571 11.7224C31.0999 11.6293 31.0534 11.5077 31.0176 11.3574C30.989 11.1999 30.9746 10.9923 30.9746 10.7347V7.72872H29.9333V6.95576H35.5158ZM30.4701 4.26112C30.6776 4.26112 30.8565 4.28975 31.0068 4.347C31.1643 4.40426 31.2967 4.49015 31.4041 4.60466C31.5329 4.74064 31.6295 4.92673 31.6939 5.16291C31.7655 5.39194 31.8013 5.71758 31.8013 6.13985V7.04164H30.9746V6.18279C30.9746 5.9323 30.9567 5.72474 30.921 5.56013C30.8923 5.38836 30.8243 5.25953 30.717 5.17365C30.6096 5.0806 30.4486 5.03408 30.2339 5.03408C30.0979 5.03408 29.9619 5.05555 29.8259 5.0985C29.6971 5.13428 29.5862 5.17007 29.4931 5.20585L29.2033 4.54024C29.418 4.4472 29.6255 4.37921 29.8259 4.33627C30.0335 4.28617 30.2482 4.26112 30.4701 4.26112Z" fill="white"/>
<path d="M33.6562 22.568C32.2616 21.7314 30.3852 21.9 29.1959 22.9681L27.0074 24.9372L23.4066 26.5574C23.1188 26.2265 22.6749 26.0167 22.1878 26.0167L14.377 26.017C12.8659 25.4519 11.1054 24.7192 9.44211 25.0995L5.6277 25.7842C4.72169 25.9451 3.90507 26.362 3.27554 26.9819C3.24694 27.009 3.18675 27.0661 0.151751 30.5674C-0.0821233 30.8378 -0.0410059 31.2374 0.242916 31.4594C0.528334 31.6822 0.948115 31.6432 1.18256 31.3728C2.34659 30.0298 4.12101 27.9846 4.22741 27.8695C4.67192 27.432 5.24096 27.1421 5.87377 27.0293L9.68757 26.3444C11.2558 25.9637 12.8245 26.9292 14.2542 27.2836H22.1878C22.335 27.2757 22.4235 27.3973 22.4425 27.5342C22.8358 29.0296 20.8412 29.8689 19.3539 30.1732L11.4737 31.9501L11.7827 33.1825L19.6644 31.4059C22.0112 30.9636 23.988 29.5414 23.8142 27.7762L27.6754 26.0387C27.7386 26.0101 27.7973 25.9725 27.8482 25.9261L30.1137 23.8883C30.697 23.3643 31.5417 23.183 32.304 23.3756L28.4855 28.7725C28.6279 29.0598 21.1011 34.0162 20.7838 34.3055C20.241 34.6811 19.5664 34.8875 18.8848 34.8875L9.91472 34.8872C9.11182 34.8872 8.38307 35.2608 7.96533 35.8864L7.20353 37.0272C6.74561 37.7232 7.85242 38.4075 8.33087 37.7051L9.09268 36.5642C9.26399 36.3075 9.57115 36.1542 9.91433 36.1542H18.8844C19.847 36.1542 20.8004 35.8609 21.5703 35.3284C22.3297 34.6938 29.2812 30.2754 29.5984 29.4725L33.8541 23.4568C34.0632 23.1728 33.9699 22.7472 33.6562 22.568Z" fill="white"/>
<path d="M21.7557 23.8776C22.095 24.0001 22.5062 23.8114 22.6134 23.4811C24.407 18.367 29.8611 15.7166 29.9159 15.6898C30.1689 15.569 30.3143 15.31 30.2782 15.0433C30.2425 14.7766 30.0333 14.5609 29.7569 14.5046C16.8863 11.8864 11.1828 0.474852 11.1264 0.359742C10.8976 -0.148729 10.053 -0.110554 9.88763 0.425916C8.10841 5.50049 3.6377 7.26964 3.59384 7.28637C3.2554 7.40769 3.07873 7.8036 3.22561 8.11835C8.05623 19.1277 21.1981 23.6894 21.7557 23.8776ZM10.6111 2.14488C12.4249 5.16063 17.8386 12.7018 27.887 15.3703C26.0934 16.5117 23.082 18.8563 21.5882 22.453C18.9905 21.4304 8.90069 16.9837 4.70966 8.1829C5.97971 7.54773 8.88193 5.77231 10.6111 2.14488Z" fill="white"/>
<path d="M15.9921 17.0781C20.2868 16.9331 20.2856 11.0621 15.9921 10.9179C11.6974 11.063 11.6986 16.9339 15.9921 17.0781ZM15.9921 12.1848C18.5108 12.2476 18.5105 15.7487 15.9921 15.8112C13.4734 15.7484 13.4737 12.2473 15.9921 12.1848Z" fill="white"/>
<path d="M32.033 1.89192C26.8085 1.81811 22.8425 6.8217 24.3244 11.5641C24.5809 12.3619 25.8311 12.0256 25.6094 11.2199C24.3739 7.26839 27.6788 3.09632 32.0328 3.15858C35.7122 3.15858 38.7064 6.00044 38.7064 9.49328C38.7064 12.9861 35.7125 15.828 32.0328 15.828C31.6639 15.828 31.3654 16.1114 31.3654 16.4615C31.3654 16.8116 31.6639 17.0949 32.0328 17.0949C42.6564 16.6784 42.6549 2.30792 32.0331 1.89164L32.033 1.89192Z" fill="white"/>
</svg>
