<svg width="90" height="92" viewBox="0 0 90 92" fill="none" xmlns="http://www.w3.org/2000/svg">
<g clip-path="url(#clip0_2_2488)">
<path d="M37.8236 0.549072C27.042 0.549072 18.2705 9.32058 18.2705 20.1021C18.2705 30.8837 27.042 39.6552 37.8236 39.6552C48.6052 39.6552 57.3767 30.8837 57.3767 20.1021C57.3767 9.32058 48.6052 0.549072 37.8236 0.549072ZM37.8236 35.3101C29.4379 35.3101 22.6156 28.4878 22.6156 20.1021C22.6156 11.7165 29.4379 4.8942 37.8236 4.8942C46.2092 4.8942 53.0315 11.7165 53.0315 20.1021C53.0315 28.4878 46.2092 35.3101 37.8236 35.3101Z" fill="#EC1C24"/>
<path d="M62.1514 52.4292C56.7982 46.9937 49.7016 44.0004 42.1687 44.0004H33.4784C25.9457 44.0004 18.849 46.9937 13.4958 52.4292C8.16879 57.838 5.23511 64.9776 5.23511 72.5334C5.23511 73.7332 6.20784 74.7059 7.40767 74.7059H68.2395C69.4393 74.7059 70.412 73.7332 70.412 72.5334C70.412 64.9776 67.4784 57.838 62.1514 52.4292ZM9.67583 70.3608C10.7643 58.0372 21.024 48.3455 33.4784 48.3455H42.1687C54.6231 48.3455 64.8829 58.0372 65.9713 70.3608H9.67583Z" fill="#EC1C24"/>
</g>
<g clip-path="url(#clip1_2_2488)">
<path d="M88.032 47.4251C86.4037 45.7946 83.7596 45.7957 82.1292 47.4251L55.5621 73.9932L43.7542 62.1854C42.1237 60.5549 39.4808 60.5549 37.8503 62.1854C36.2198 63.8159 36.2198 66.4588 37.8503 68.0893L52.6095 82.8485C53.4243 83.6633 54.4926 84.0716 55.561 84.0716C56.6294 84.0716 57.6987 83.6643 58.5134 82.8485L88.032 53.3289C89.6625 51.6996 89.6625 49.0555 88.032 47.4251Z" fill="#EC1C24"/>
</g>
<defs>
<clipPath id="clip0_2_2488">
<rect width="74.1569" height="74.1569" fill="white" transform="translate(0.745117 0.549072)"/>
</clipPath>
<clipPath id="clip1_2_2488">
<rect width="52.6275" height="52.6275" fill="white" transform="translate(36.6274 38.8235)"/>
</clipPath>
</defs>
</svg>
