<svg width="162" height="138" viewBox="0 0 162 138" fill="none" xmlns="http://www.w3.org/2000/svg">
<path d="M46.3157 137.993C46.0092 137.993 45.7069 137.922 45.4328 137.785C45.1587 137.648 44.9203 137.448 44.7366 137.203C44.5529 136.958 44.429 136.673 44.3746 136.371C44.3202 136.07 44.3368 135.76 44.4233 135.466L72.1457 41.2019C72.2187 40.9535 72.3399 40.722 72.5024 40.5204C72.6649 40.3189 72.8655 40.1513 73.0928 40.0273C73.32 39.9033 73.5695 39.8252 73.8269 39.7976C74.0843 39.77 74.3447 39.7934 74.593 39.8664C74.8414 39.9394 75.073 40.0606 75.2746 40.2231C75.4761 40.3856 75.6437 40.5862 75.7677 40.8135C75.8917 41.0407 75.9697 41.2902 75.9974 41.5476C76.025 41.805 76.0016 42.0654 75.9286 42.3137L48.2062 136.577C48.0862 136.986 47.8371 137.344 47.4964 137.6C47.1556 137.855 46.7414 137.993 46.3157 137.993Z" fill="#EC1C24"/>
<path d="M115.67 137.993C115.244 137.993 114.83 137.855 114.489 137.6C114.149 137.344 113.899 136.986 113.779 136.577L86.0571 42.3157C85.9096 41.8141 85.9675 41.2744 86.218 40.8154C86.4684 40.3564 86.891 40.0158 87.3926 39.8683C87.8943 39.7209 88.4339 39.7788 88.8929 40.0292C89.3519 40.2797 89.6925 40.7022 89.84 41.2039L117.562 135.466C117.649 135.76 117.665 136.07 117.611 136.371C117.557 136.673 117.433 136.958 117.249 137.203C117.065 137.448 116.827 137.648 116.553 137.785C116.279 137.922 115.976 137.993 115.67 137.993Z" fill="#EC1C24"/>
<path d="M80.9927 46.1993C78.4253 46.1993 75.9156 45.438 73.7809 44.0116C71.6462 42.5853 69.9823 40.5579 68.9998 38.1859C68.0173 35.814 67.7603 33.2039 68.2612 30.6859C68.762 28.1678 69.9983 25.8548 71.8138 24.0394C73.6292 22.2239 75.9422 20.9876 78.4603 20.4867C80.9783 19.9859 83.5884 20.2429 85.9604 21.2254C88.3323 22.2079 90.3597 23.8717 91.7861 26.0065C93.2124 28.1412 93.9738 30.6509 93.9738 33.2183C93.9701 36.66 92.6013 39.9596 90.1677 42.3933C87.734 44.8269 84.4344 46.1957 80.9927 46.1993ZM80.9927 24.1799C79.2051 24.1799 77.4576 24.71 75.9713 25.7032C74.4849 26.6963 73.3264 28.1079 72.6423 29.7595C71.9582 31.411 71.7793 33.2284 72.128 34.9816C72.4767 36.7349 73.3376 38.3454 74.6016 39.6094C75.8657 40.8735 77.4762 41.7343 79.2294 42.0831C80.9827 42.4318 82.8 42.2528 84.4516 41.5687C86.1031 40.8846 87.5147 39.7262 88.5079 38.2398C89.5011 36.7534 90.0312 35.006 90.0312 33.2183C90.0285 30.822 89.0754 28.5245 87.381 26.8301C85.6865 25.1356 83.3891 24.1825 80.9927 24.1799Z" fill="#EC1C24"/>
<path d="M107.04 108.68C106.702 108.679 106.371 108.591 106.078 108.423L80.1591 93.8869C80.1004 93.8618 80.0431 93.8335 79.9876 93.8021L61.343 83.3365C61.1166 83.2101 60.9174 83.0403 60.7567 82.8369C60.596 82.6334 60.4771 82.4002 60.4066 82.1507C60.3362 81.9011 60.3157 81.6402 60.3463 81.3827C60.3769 81.1253 60.4579 80.8763 60.5848 80.6503C60.7118 80.4242 60.882 80.2253 61.0859 80.0652C61.2898 79.905 61.5232 79.7866 61.7729 79.7168C62.0226 79.6469 62.2836 79.627 62.541 79.6582C62.7984 79.6894 63.0471 79.7711 63.2729 79.8986L81.7676 90.2873C81.8248 90.3129 81.882 90.3405 81.9372 90.3721L108 104.989C108.38 105.203 108.679 105.536 108.849 105.938C109.02 106.339 109.052 106.786 108.942 107.207C108.831 107.629 108.584 108.003 108.239 108.269C107.894 108.535 107.47 108.68 107.034 108.68H107.04Z" fill="#EC1C24"/>
<path d="M62.6754 82.3863C62.266 82.3864 61.8668 82.2591 61.5331 82.022C61.1994 81.7849 60.9478 81.4497 60.8132 81.0631C60.6786 80.6765 60.6677 80.2576 60.7821 79.8645C60.8964 79.4714 61.1303 79.1237 61.4512 78.8695L91.1725 55.35C91.5827 55.0255 92.1049 54.8774 92.6243 54.938C93.1437 54.9986 93.6178 55.2631 93.9422 55.6733C94.2666 56.0834 94.4148 56.6056 94.3542 57.125C94.2935 57.6445 94.029 58.1185 93.6189 58.4429L63.8976 81.9606C63.5505 82.2374 63.1194 82.3876 62.6754 82.3863Z" fill="#EC1C24"/>
<path d="M49.4147 127.448C48.9424 127.449 48.4858 127.279 48.1278 126.971C47.7698 126.663 47.5342 126.237 47.464 125.77C47.3938 125.303 47.4936 124.826 47.7453 124.427C47.9969 124.027 48.3836 123.731 48.8351 123.593L106.724 105.703C107.224 105.549 107.764 105.599 108.227 105.843C108.689 106.087 109.036 106.505 109.19 107.004C109.345 107.504 109.295 108.044 109.051 108.507C108.807 108.969 108.389 109.316 107.889 109.47L49.9982 127.36C49.8092 127.418 49.6125 127.448 49.4147 127.448Z" fill="#EC1C24"/>
<path d="M112.571 127.468C112.371 127.469 112.171 127.439 111.98 127.379L54.0963 109.49C53.849 109.414 53.6191 109.289 53.4198 109.124C53.2205 108.959 53.0557 108.756 52.9348 108.527C52.6906 108.065 52.64 107.524 52.7943 107.025C52.9485 106.525 53.2949 106.107 53.7572 105.863C54.2195 105.619 54.7598 105.569 55.2594 105.723L113.151 123.612C113.602 123.751 113.989 124.047 114.24 124.447C114.492 124.846 114.592 125.323 114.522 125.79C114.451 126.257 114.216 126.683 113.858 126.991C113.5 127.299 113.043 127.468 112.571 127.468Z" fill="#EC1C24"/>
<path d="M54.9459 108.638C54.5098 108.638 54.086 108.494 53.7407 108.228C53.3955 107.961 53.1483 107.588 53.0379 107.166C52.9275 106.744 52.96 106.298 53.1305 105.896C53.301 105.495 53.5997 105.161 53.98 104.948L79.9873 90.3603C80.0465 90.3268 80.1036 90.2992 80.1628 90.2716L98.693 79.8552C98.9189 79.7223 99.1691 79.6357 99.4289 79.6006C99.6887 79.5655 99.9529 79.5826 100.206 79.6509C100.459 79.7191 100.696 79.8371 100.903 79.9981C101.11 80.159 101.283 80.3596 101.411 80.5881C101.54 80.8166 101.621 81.0684 101.651 81.3288C101.681 81.5892 101.659 81.853 101.586 82.1047C101.512 82.3564 101.39 82.591 101.225 82.7947C101.06 82.9985 100.856 83.1672 100.625 83.2912L81.9409 93.7982C81.8818 93.8298 81.8226 93.8593 81.7615 93.8869L55.9079 108.386C55.6144 108.552 55.283 108.639 54.9459 108.638Z" fill="#EC1C24"/>
<path d="M99.3258 82.4475C98.8821 82.4472 98.4515 82.2971 98.1036 82.0217L68.337 58.4627C68.1302 58.3035 67.9571 58.1048 67.8277 57.8781C67.6983 57.6515 67.6152 57.4014 67.5832 57.1424C67.5512 56.8834 67.571 56.6207 67.6413 56.3693C67.7117 56.118 67.8312 55.8832 67.9931 55.6784C68.1549 55.4737 68.3557 55.3031 68.584 55.1766C68.8122 55.0501 69.0633 54.9701 69.3227 54.9414C69.5821 54.9127 69.8446 54.9358 70.095 55.0093C70.3454 55.0828 70.5787 55.2053 70.7814 55.3697L100.548 78.9327C100.868 79.1871 101.102 79.5349 101.215 79.9278C101.329 80.3207 101.318 80.7393 101.183 81.1255C101.048 81.5117 100.797 81.8465 100.463 82.0834C100.13 82.3202 99.731 82.4475 99.3219 82.4475H99.3258Z" fill="#EC1C24"/>
<path d="M131.241 18.8277C130.841 18.8274 130.45 18.7052 130.121 18.4774C129.791 18.2495 129.539 17.9268 129.398 17.5522C127.382 12.2195 124.249 7.37995 120.208 3.35885C119.849 2.98706 119.65 2.48911 119.654 1.97224C119.659 1.45537 119.866 0.960942 120.232 0.595447C120.597 0.229952 121.092 0.0226324 121.608 0.0181409C122.125 0.0136495 122.623 0.212345 122.995 0.571434C127.431 4.98318 130.872 10.2932 133.086 16.1447C133.199 16.4432 133.238 16.7647 133.199 17.0815C133.161 17.3983 133.046 17.701 132.864 17.9635C132.683 18.2261 132.44 18.4406 132.157 18.5887C131.875 18.7368 131.56 18.8141 131.241 18.8139V18.8277Z" fill="#EC1C24"/>
<path d="M121.602 63.9704C121.212 63.9703 120.832 63.855 120.508 63.6388C120.184 63.4227 119.931 63.1155 119.782 62.756C119.632 62.3965 119.593 62.0008 119.668 61.6188C119.743 61.2367 119.929 60.8855 120.204 60.6094C123.483 57.3355 126.173 53.5211 128.156 49.3335C128.384 48.8702 128.785 48.515 129.273 48.3443C129.76 48.1735 130.295 48.2008 130.762 48.4204C131.23 48.6399 131.592 49.0341 131.772 49.5182C131.952 50.0023 131.935 50.5376 131.724 51.0091C129.549 55.6068 126.598 59.7948 122.999 63.3889C122.816 63.5737 122.599 63.7202 122.359 63.8201C122.119 63.9199 121.861 63.971 121.602 63.9704Z" fill="#EC1C24"/>
<path d="M133.808 38.3436C133.737 38.3436 133.67 38.3436 133.601 38.3436C133.343 38.317 133.093 38.2398 132.865 38.1164C132.637 37.993 132.435 37.8257 132.272 37.6243C132.108 37.4229 131.986 37.1912 131.913 36.9425C131.839 36.6938 131.815 36.4331 131.842 36.1752C132.031 34.3641 132.097 32.5425 132.04 30.7226C132.031 30.4637 132.074 30.2057 132.166 29.9634C132.258 29.7211 132.396 29.4992 132.574 29.3105C132.751 29.1217 132.964 28.9698 133.2 28.8633C133.436 28.7569 133.691 28.698 133.95 28.6901C134.21 28.6782 134.469 28.7186 134.713 28.8089C134.957 28.8991 135.18 29.0374 135.369 29.2156C135.559 29.3937 135.71 29.6081 135.815 29.846C135.92 30.0839 135.976 30.3404 135.98 30.6003C136.04 32.5974 135.965 34.5963 135.756 36.5832C135.704 37.0646 135.477 37.5101 135.117 37.8348C134.758 38.1595 134.292 38.3406 133.808 38.3436Z" fill="#EC1C24"/>
<path d="M111.885 54.2658C111.495 54.2658 111.114 54.1501 110.79 53.9335C110.466 53.7169 110.213 53.409 110.064 53.0489C109.915 52.6887 109.876 52.2924 109.952 51.9101C110.028 51.5277 110.216 51.1765 110.491 50.9008C115.499 45.8809 118.311 39.0797 118.311 31.9892C118.311 24.8986 115.499 18.0974 110.491 13.0775C110.132 12.7057 109.933 12.2077 109.938 11.6909C109.942 11.174 110.15 10.6796 110.515 10.3141C110.881 9.94858 111.375 9.74126 111.892 9.73677C112.409 9.73228 112.907 9.93097 113.279 10.2901C119.024 16.0499 122.251 23.8535 122.251 31.9892C122.251 40.1248 119.024 47.9284 113.279 53.6882C112.909 54.058 112.408 54.2657 111.885 54.2658Z" fill="#EC1C24"/>
<path d="M102.174 44.5532C101.784 44.5531 101.403 44.4374 101.079 44.2208C100.755 44.0042 100.503 43.6964 100.353 43.3362C100.204 42.9761 100.165 42.5798 100.241 42.1974C100.317 41.8151 100.505 41.4639 100.781 41.1882C103.217 38.7462 104.585 35.4375 104.585 31.9881C104.585 28.5387 103.217 25.2301 100.781 22.7881C100.421 22.4163 100.223 21.9183 100.227 21.4014C100.232 20.8846 100.439 20.3901 100.805 20.0246C101.17 19.6592 101.664 19.4518 102.181 19.4473C102.698 19.4428 103.196 19.6415 103.568 20.0006C106.742 23.1825 108.525 27.4936 108.525 31.9881C108.525 36.4827 106.742 40.7937 103.568 43.9756C103.198 44.3453 102.697 44.5531 102.174 44.5532Z" fill="#EC1C24"/>
<path d="M40.384 63.9764C39.8612 63.9763 39.3599 63.7685 38.9903 63.3988C30.6718 55.0622 26 43.7661 26 31.9891C26 20.2121 30.6718 8.91606 38.9903 0.579386C39.3599 0.208966 39.8615 0.000555645 40.3848 1.10944e-06C40.9081 -0.000553426 41.4102 0.206794 41.7806 0.576429C42.1511 0.946064 42.3595 1.44771 42.36 1.971C42.3606 2.4943 42.1532 2.99639 41.7836 3.36681C34.2037 10.9639 29.9469 21.2574 29.9469 31.9891C29.9469 42.7208 34.2037 53.0143 41.7836 60.6114C42.0592 60.8871 42.2469 61.2383 42.3229 61.6207C42.3989 62.003 42.3599 62.3993 42.2107 62.7594C42.0616 63.1196 41.809 63.4274 41.4849 63.6441C41.1608 63.8607 40.7797 63.9763 40.3899 63.9764H40.384Z" fill="#EC1C24"/>
<path d="M50.1006 54.2658C49.5778 54.2657 49.0765 54.058 48.7069 53.6882C42.9611 47.9284 39.7344 40.1248 39.7344 31.9892C39.7344 23.8535 42.9611 16.0499 48.7069 10.2901C49.0787 9.93097 49.5767 9.73228 50.0935 9.73677C50.6104 9.74126 51.1048 9.94858 51.4703 10.3141C51.8358 10.6796 52.0431 11.174 52.0476 11.6909C52.0521 12.2077 51.8534 12.7057 51.4943 13.0775C46.4867 18.0974 43.6745 24.8986 43.6745 31.9892C43.6745 39.0797 46.4867 45.8809 51.4943 50.9008C51.7699 51.1765 51.9576 51.5277 52.0337 51.9101C52.1097 52.2924 52.0706 52.6887 51.9215 53.0489C51.7723 53.409 51.5197 53.7169 51.1956 53.9335C50.8715 54.1501 50.4905 54.2658 50.1006 54.2658Z" fill="#EC1C24"/>
<path d="M59.8112 44.5532C59.2885 44.5531 58.7871 44.3453 58.4175 43.9756C55.2432 40.7937 53.4604 36.4827 53.4604 31.9881C53.4604 27.4936 55.2432 23.1825 58.4175 20.0006C58.7893 19.6415 59.2873 19.4428 59.8042 19.4473C60.321 19.4518 60.8154 19.6592 61.1809 20.0246C61.5464 20.3901 61.7538 20.8846 61.7583 21.4014C61.7627 21.9183 61.564 22.4163 61.205 22.7881C58.7687 25.2301 57.4006 28.5387 57.4006 31.9881C57.4006 35.4375 58.7687 38.7462 61.205 41.1882C61.4806 41.4639 61.6682 41.8151 61.7443 42.1974C61.8203 42.5798 61.7813 42.9761 61.6321 43.3362C61.4829 43.6964 61.2303 44.0042 60.9062 44.2208C60.5821 44.4374 60.2011 44.5531 59.8112 44.5532Z" fill="#EC1C24"/>
<line x1="1.5" y1="136.5" x2="160.5" y2="136.5" stroke="#EC1C24" stroke-width="3" stroke-linecap="round"/>
</svg>
