<svg width="113" height="48" viewBox="0 0 113 48" fill="none" xmlns="http://www.w3.org/2000/svg">
<path d="M42.7027 0.471207H15.1373C14.6072 0.471207 14.2096 0.871181 14.2096 1.40448V3.53769C14.2096 4.07099 14.6072 4.47096 15.1373 4.47096H35.6788V15.9369C35.1487 15.137 34.4861 14.337 33.691 13.5371C31.3055 11.0039 28.6549 9.80397 26.0044 9.80397C23.884 9.80397 22.0286 10.8706 20.5709 12.8705C19.3781 14.4704 18.7155 16.4702 18.7155 18.2035C18.7155 20.07 18.9805 22.3365 20.4383 24.4697C22.1612 27.0029 24.8117 27.8029 27.1972 27.8029C30.3778 27.8029 33.0283 25.5364 33.0283 22.7365C33.0283 21.0033 32.2332 19.67 30.6428 18.8701L29.1851 18.0701V20.3367C29.0525 21.0033 27.8598 21.9366 26.6671 21.9366C25.6068 21.9366 24.5466 21.5366 24.0165 20.87C23.619 20.3367 23.3539 19.67 23.4864 19.0034C23.4864 18.2035 23.7515 17.5368 24.4141 16.7369C25.0767 15.9369 25.7394 15.537 26.7996 15.537C29.5826 15.537 31.8356 16.8702 33.691 19.5367C35.1487 21.8032 35.9439 24.0698 35.9439 26.4696V32.2026L40.0522 34.7358C40.1847 34.8691 40.3173 34.8691 40.4498 34.8691C40.9799 34.8691 41.3775 34.4691 41.3775 33.9358V4.47096H42.9678C43.4979 4.47096 43.8955 4.07099 43.8955 3.53769V1.40448C43.4979 0.871181 43.1003 0.471207 42.7027 0.471207Z" fill="white"/>
<path d="M97.491 0.529198H62.5069C61.9748 0.529198 61.5758 0.926096 61.5758 1.45529V5.29199C58.2503 1.7199 55.1908 0 52.3974 0C49.7371 0 47.6087 0.661498 45.7465 1.9845C43.8842 3.43979 42.9531 5.15969 42.9531 7.14418C42.9531 13.23 49.8701 13.23 51.4663 12.3039C51.7323 12.1716 52.1314 11.907 52.6635 11.907C53.9937 11.907 54.5257 12.9654 54.5257 13.8915C54.5257 15.3468 52.5305 16.5375 50.1361 16.5375C48.8059 16.5375 47.8748 16.1406 47.3427 15.3468L46.2785 13.7592L45.4804 15.6114C45.3474 16.0083 45.0814 16.5375 45.0814 17.199C45.0814 18.6543 45.7465 19.9772 47.0767 21.0356C48.4069 22.094 49.8701 22.6232 51.4663 22.6232C54.1267 22.6232 56.255 21.6971 57.7182 19.845C58.9154 18.3897 59.4475 16.5375 59.4475 14.553C59.4475 13.3623 59.0484 12.3039 58.1173 10.9809C57.0531 9.39328 55.7229 8.59948 54.1267 8.59948C53.5946 8.59948 52.9295 8.73178 52.1314 8.99638C51.8654 8.86408 51.4663 8.99638 51.3333 8.99638C51.0672 8.99638 50.6682 8.86408 50.4021 8.46718C50.1361 8.20258 49.8701 7.80568 49.8701 7.14418C49.8701 5.68889 51.3333 4.10129 53.7276 4.10129H53.8607C55.4569 4.10129 57.0531 4.89509 58.6493 6.48268C59.8465 7.67338 60.9107 8.86408 61.5758 10.1871V31.8842L65.6994 34.2656C65.8324 34.3979 65.9654 34.3979 66.0984 34.3979C66.6305 34.3979 67.0296 34.001 67.0296 33.4718V4.36589H73.2815V23.1524L78.2032 25.1369H78.4692C78.8683 25.1369 79.2674 24.74 79.4004 24.3431V24.2108C80.1985 18.6543 82.7259 14.8176 86.8495 12.4362V13.4946C86.8495 14.2884 86.8495 16.2729 86.9825 17.4636C86.9825 18.1251 86.9825 18.522 87.1155 18.9189C87.1155 21.0356 87.3815 24.4754 88.1797 26.8568C89.5099 31.4873 91.9042 32.5457 93.6335 32.678H93.7665C94.8306 32.678 95.4957 32.4134 96.0278 31.8842C96.2938 31.6196 96.6929 30.9581 96.6929 30.1643C96.6929 29.2382 96.5599 28.5767 96.2938 28.1798L95.8948 27.5183L95.0967 27.6506C94.1655 27.9152 93.8995 27.9152 93.8995 27.7829H93.7665C93.5004 27.7829 93.5004 27.7829 93.3674 27.6506C93.1014 27.5183 92.5693 26.9891 92.1702 25.5338C91.9042 24.4754 91.7712 22.8878 91.7712 22.094C91.7712 16.0083 93.1014 11.3778 94.9637 10.3194H95.0967C95.3627 10.1871 95.6287 9.92247 95.6287 9.52557C95.6287 9.39328 95.6287 9.26098 95.4957 9.12868V8.99638C94.5646 7.14418 92.5693 5.82118 89.7759 5.02739H89.2438C87.1155 5.42429 84.4551 6.87958 81.1296 9.65788C80.3315 10.3194 79.5334 11.1132 78.7353 11.7747V4.23359H97.624C98.1561 4.23359 98.5552 3.83669 98.5552 3.30749V1.1907C98.4222 0.926097 98.0231 0.529198 97.491 0.529198Z" fill="white"/>
<path d="M3.72523 42.3234V44.6295L5.67654 43.92L6.20872 44.4521V45.1617C6.20872 45.8713 6.03133 46.5808 5.49915 47.113C5.14437 47.6452 4.4348 47.8226 3.72523 47.8226C2.83827 47.8226 2.1287 47.4678 1.59653 46.7582C1.06435 46.2261 0.709569 45.5165 0.354785 44.6295L0.886959 44.2747C1.59653 46.2261 2.48349 47.113 3.72523 47.113C4.25741 47.113 4.61219 46.9356 4.96697 46.5808C5.32175 46.2261 5.49915 45.8713 5.49915 45.3391C5.49915 45.1617 5.49915 44.9843 5.32176 44.8069L3.54784 45.5165L3.01566 44.8069V42.3234H0V41.7913H6.74089V42.3234H3.72523Z" fill="white"/>
<path d="M7.4505 47.6452V42.3234H6.56354V41.7913H8.86964V42.3234H8.16007V47.6452H7.4505Z" fill="white"/>
<path d="M12.5948 42.3234V42.6782C13.1269 42.6782 13.6591 42.8556 14.1913 43.2104C14.7235 43.5652 15.0783 43.92 15.0783 44.4521C15.0783 44.8069 14.9009 45.1617 14.5461 45.5165C14.1913 45.6939 13.8365 45.8713 13.4817 45.8713H13.3043V45.1617H13.6591C14.1913 45.1617 14.3687 44.9843 14.3687 44.4521C14.3687 43.92 13.8365 43.5652 12.5948 43.3878V47.6452H11.8852L10.8208 46.0487C10.2887 45.5165 9.7565 45.3391 9.04693 45.3391L8.86954 44.4521C9.22432 44.0974 10.2887 43.5652 11.8852 42.6782V42.3234H8.69214V41.7913H15.433V42.3234H12.5948ZM11.8852 43.3878C11.5304 43.5652 11.1756 43.7426 10.9982 43.92L10.1113 44.8069C10.4661 44.9843 10.8208 45.3391 10.9982 45.6939C11.1756 45.8713 11.5304 46.2261 11.8852 46.7582V43.3878Z" fill="white"/>
<path d="M24.4801 40.727C23.4157 40.0174 22.3514 39.6626 21.6418 39.6626C20.9322 39.6626 20.4001 39.84 19.8679 40.1948C19.3357 40.5496 19.1583 41.0817 19.1583 41.7913H19.8679V42.3235H19.1583V47.4678H18.4488V42.3235H17.7392V41.7913H18.4488C18.4488 40.9043 18.8035 40.1948 19.3357 39.6626C19.8679 39.1304 20.5775 38.953 21.4644 38.953C21.9966 38.953 22.5288 39.1304 23.2383 39.3078C23.5931 39.4852 24.1253 39.84 24.8349 40.1948L24.4801 40.727Z" fill="white"/>
<path d="M25.0122 42.3235V47.6452H24.3027C23.9479 47.1131 23.4157 46.5809 22.5288 46.0487C21.6418 45.5165 20.9322 45.3391 20.2227 45.3391L20.0453 44.4522C20.4001 44.0974 21.1096 43.7426 22.174 43.3878C22.5288 43.2104 23.2383 43.0331 24.4801 42.5009V42.1461H19.6905V41.6139H25.8992V42.1461H25.0122V42.3235ZM24.3027 43.3878C23.5931 43.5652 22.5288 44.0974 21.1096 44.807C22.3514 45.3391 23.4157 45.8713 24.3027 46.5809V43.3878Z" fill="white"/>
<path d="M25.5444 41.7913H32.1079V42.3234H25.5444V41.7913ZM29.2696 47.6452C28.56 47.6452 27.8505 47.2904 27.1409 46.5808C26.6087 46.0487 26.2539 45.3391 25.8992 44.4521L26.2539 44.0974C26.4313 44.8069 26.7861 45.5165 27.3183 46.0487C27.8505 46.7582 28.3826 47.113 29.0922 47.113C29.6244 47.113 29.9792 46.9356 30.334 46.5808C30.6887 46.2261 30.8661 45.8713 30.8661 45.3391C30.334 45.6939 29.9792 45.8713 29.447 45.8713C29.0922 45.8713 28.56 45.6939 28.3827 45.5165C28.0279 45.1617 27.8505 44.8069 27.8505 44.4521C27.8505 44.0974 28.0279 43.7426 28.2052 43.3878C28.3826 43.2104 28.7374 43.033 29.2696 43.033C29.6244 43.033 29.8018 43.033 29.9792 43.2104C30.1566 43.3878 30.334 43.5652 30.334 43.92C30.334 44.0974 30.1566 44.4521 29.9792 44.6295L29.447 44.2747C29.6244 44.0974 29.6244 44.0974 29.6244 43.92C29.6244 43.7426 29.447 43.5652 29.2696 43.5652C29.0922 43.5652 28.9148 43.5652 28.7374 43.7426C28.56 43.92 28.56 44.0974 28.56 44.2747C28.56 44.6295 28.7374 44.8069 28.9148 44.9843C29.0922 45.1617 29.2696 45.3391 29.6244 45.3391C30.1566 45.3391 30.6887 45.1617 31.0435 44.6295L31.7531 45.3391C31.7531 46.0487 31.5757 46.7582 31.0435 47.113C30.5114 47.2904 29.9792 47.6452 29.2696 47.6452Z" fill="white"/>
<path d="M32.8175 47.6452V42.3234H31.9305V41.7913H34.2366V42.3234H33.3497V47.6452H32.8175Z" fill="white"/>
<path d="M36.8975 48C36.1879 48 35.6557 47.8226 35.301 47.6452C34.7688 47.113 34.414 46.2261 34.414 45.3391C34.414 44.8069 34.5914 44.2747 34.9462 43.7426C35.1236 43.3878 35.4784 42.8556 36.0105 42.3234H33.8818V41.7913H37.2523V42.3234C36.7201 42.5008 36.1879 42.8556 35.8331 43.5652C35.301 44.0974 35.1236 44.8069 35.1236 45.3391C35.1236 46.7582 35.6557 47.4678 36.8975 47.4678C37.0749 47.4678 37.2523 47.4678 37.4297 47.2904V48H36.8975Z" fill="white"/>
<path d="M41.3323 42.3235V47.4678H40.6228V44.0974C40.6228 43.92 40.4454 43.7426 40.268 43.5652C39.9132 42.8557 39.381 42.5009 38.6714 42.5009C38.4941 42.5009 38.1393 42.6783 37.9619 42.8557L37.6071 43.2104C37.9619 43.033 38.1393 43.033 38.3167 43.033C38.6715 43.033 38.8488 43.033 39.2036 43.2104C39.381 43.3878 39.5584 43.5652 39.5584 43.92C39.5584 44.2748 39.381 44.6296 39.0262 44.9844C38.6715 45.3391 38.3167 45.6939 37.9619 45.6939L37.6071 45.1617C37.9619 44.9844 38.1393 44.807 38.4941 44.6296C38.8488 44.2748 39.0262 44.0974 39.0262 43.7426C39.0262 43.5652 38.8488 43.3878 38.4941 43.3878C38.1393 43.3878 37.9619 43.2104 37.7845 43.2104H37.6071L37.2523 42.5009L37.9619 41.7913C38.3167 41.6139 38.4941 41.4365 38.8488 41.4365C39.5584 41.4365 40.268 41.7913 40.8002 42.6783V41.4365H42.0419V41.9687H41.3323V42.3235Z" fill="white"/>
<path d="M47.1862 42.3234V47.6452H46.4766C46.1218 47.113 45.5897 46.5808 44.7027 46.2261C43.8157 45.6939 43.1062 45.5165 42.3966 45.5165L42.2192 44.6295C43.2836 43.92 44.7027 43.3878 46.4766 42.6782V42.3234H41.8644V41.7913H47.8958V42.3234H47.1862ZM46.4766 43.3878C45.4123 43.7426 44.3479 44.2747 43.461 44.8069C44.5253 45.1617 45.5897 45.6939 46.4766 46.5808V43.3878ZM44.7027 47.8226C44.5253 47.6452 44.1705 47.2904 43.6384 47.113L43.9931 46.5808C44.3479 46.7582 44.7027 46.9356 45.0575 47.2904L44.7027 47.8226Z" fill="white"/>
<path d="M56.9428 40.727C55.8784 40.0174 54.8141 39.6626 54.1045 39.6626C53.395 39.6626 52.8628 39.84 52.3306 40.1948C51.7984 40.5496 51.621 41.0817 51.621 41.7913H52.3306V42.3235H51.621V47.4678H50.9115V42.3235H50.2019V41.7913H50.9115C50.9115 40.9043 51.2663 40.1948 51.7984 39.6626C52.3306 39.1304 53.0402 38.953 53.9271 38.953C54.4593 38.953 54.9915 39.1304 55.701 39.3078C56.0558 39.4852 56.588 39.84 57.2976 40.1948L56.9428 40.727Z" fill="white"/>
<path d="M55.701 42.3234V44.6295L57.6523 43.92L58.1845 44.4521V45.1617C58.1845 45.8713 58.0071 46.5808 57.4749 47.113C57.1202 47.6452 56.4106 47.8226 55.701 47.8226C54.8141 47.8226 54.1045 47.4678 53.5723 46.7582C53.0401 46.2261 52.6854 45.5165 52.3306 44.6295L52.8627 44.2748C53.5723 46.2261 54.4593 47.113 55.701 47.113C56.2332 47.113 56.588 46.9356 56.9428 46.5808C57.2975 46.2261 57.4749 45.8713 57.4749 45.3391C57.4749 45.1617 57.4749 44.9843 57.2975 44.8069L55.5236 45.5165L54.8141 44.9843V42.5008H51.7984V41.9687H58.5393V42.5008H55.701V42.3234Z" fill="white"/>
<path d="M65.2802 40.727C64.2158 40.0174 63.1515 39.6626 62.4419 39.6626C61.7324 39.6626 61.2002 39.84 60.668 40.1948C60.1358 40.5496 59.9584 41.0817 59.9584 41.7913H60.668V42.3235H59.9584V47.4678H59.2489V42.3235H58.5393V41.7913H59.2489C59.2489 40.9043 59.6036 40.1948 60.1358 39.6626C60.668 39.1304 61.3776 38.953 62.2645 38.953C62.7967 38.953 63.3289 39.1304 64.0385 39.3078C64.3932 39.4852 64.9254 39.84 65.635 40.1948L65.2802 40.727Z" fill="white"/>
<path d="M64.748 42.3235C64.9254 43.033 65.4576 43.3878 66.3445 43.3878H66.6993L67.2315 44.0974C66.8767 44.9843 66.6993 45.5165 66.6993 45.8713C66.6993 46.7582 66.8767 47.2904 67.0541 47.6452L66.5219 47.8226C66.1671 47.2904 65.9897 46.7582 65.9897 46.2261C65.9897 45.8713 65.9897 45.5165 66.1671 45.1617C66.1671 44.9843 66.3445 44.6295 66.5219 44.0974C65.9897 44.0974 65.4576 43.92 65.1028 43.5652C64.5706 43.2104 64.3932 42.8556 64.2158 42.3235C63.5063 42.8556 63.1515 43.3878 63.1515 44.0974C63.1515 44.4522 63.3289 44.6295 63.6836 44.6295C63.861 44.6295 64.0384 44.6295 64.2158 44.4521C64.3932 44.2748 64.5706 44.2748 64.5706 44.0974H65.1028C65.2802 44.2748 65.2802 44.6295 65.2802 45.1617C65.2802 46.5809 64.5706 47.113 63.1515 47.113C62.9741 47.113 62.6193 47.113 62.2645 46.9356C62.0871 46.9356 61.9097 46.7582 61.5549 46.5809C61.3776 46.2261 61.0228 45.6939 60.668 44.9843L61.0228 44.6295C61.2002 45.1617 61.5549 45.6939 62.0871 46.4035L62.6193 46.5809C62.7967 46.7582 62.9741 46.7582 63.1515 46.7582C63.5063 46.7582 63.861 46.5809 64.2158 46.4035C64.5706 46.2261 64.5706 45.8713 64.5706 45.5165C64.5706 45.3391 64.5706 45.1617 64.3932 44.9843C64.0384 45.3391 63.6836 45.5165 63.3289 45.5165C62.9741 45.5165 62.6193 45.3391 62.4419 45.1617C62.2645 44.9843 62.0871 44.6295 62.0871 44.2748C62.0871 43.7426 62.2645 43.2104 62.7967 42.6782H60.1358V42.1461H67.4089V42.6782H64.748V42.3235Z" fill="white"/>
<path d="M68.6507 42.3235V46.9357H69.0054C69.5376 46.9357 70.0698 46.7583 70.7793 46.4035C71.4889 46.0487 71.8437 45.5165 71.8437 44.9844C71.8437 44.4522 71.4889 44.0974 70.9568 44.0974C70.7794 44.0974 70.4246 44.2748 70.0698 44.4522L69.715 43.92C70.0698 43.5652 70.602 43.5652 71.1341 43.5652C71.4889 43.5652 71.8437 43.7426 72.1985 44.0974C72.3759 44.4522 72.5533 44.807 72.5533 45.1618C72.5533 45.6939 72.1985 46.2261 71.6663 46.7583C71.1341 47.1131 70.602 47.4678 70.0698 47.4678C69.5376 47.6452 69.0054 47.6452 68.1185 47.6452V42.3235H67.5863V41.7913H71.6663V41.6139C71.6663 41.2591 71.4889 40.9043 71.1341 40.727C70.7794 40.5496 70.4246 40.3722 70.0698 40.3722C69.5376 40.3722 68.828 40.5496 68.1185 41.0817L67.9411 40.5496C68.828 40.0174 69.5376 39.84 70.2472 39.84C70.7794 39.84 71.3115 40.0174 71.8437 40.3722C72.1985 40.727 72.5533 41.2591 72.5533 41.7913H73.2628V42.3235H68.6507Z" fill="white"/>
<path d="M73.6177 47.6452V42.3234H72.7307V41.7913H75.2142V42.3234H74.3272V47.6452H73.6177Z" fill="white"/>
<path d="M81.2454 42.3234V47.6452H80.5359V46.5808C80.5359 45.3391 80.1811 44.8069 79.6489 44.8069C79.4715 44.8069 79.2941 44.9843 79.1167 45.1617C78.9393 45.3391 78.9394 45.5165 78.9394 45.8713H78.2298C78.2298 45.6939 78.0524 45.3391 78.0524 45.1617C77.875 44.9843 77.6976 44.8069 77.3428 44.8069C76.988 44.8069 76.8106 44.9843 76.6333 45.1617C76.4559 45.3391 76.4559 45.6939 76.4559 45.8713C76.4559 46.5808 76.8106 46.7582 77.6976 46.7582H77.875L77.6976 47.4678H77.5202C76.988 47.4678 76.6333 47.2904 76.2785 46.9356C75.9237 46.5808 75.7463 46.2261 75.7463 45.6939C75.7463 45.1617 75.9237 44.8069 76.2785 44.4521C76.6333 44.0974 76.988 43.92 77.5202 43.92C78.0524 43.92 78.4072 44.2747 78.7619 44.8069C79.1167 44.2747 79.6489 43.92 80.0037 43.92C80.3585 43.92 80.7133 44.2747 80.8907 44.8069V42.5008H75.2141V41.9687H82.1324V42.5008H81.2454V42.3234Z" fill="white"/>
<path d="M85.3255 45.3391C85.3255 45.6939 85.3255 46.0487 85.5029 46.4035C85.6803 46.9356 86.035 47.113 86.3898 47.113C86.5672 47.113 86.7446 47.113 86.922 46.9356L87.0994 47.4678C86.922 47.6452 86.5672 47.6452 86.3898 47.6452C85.3255 47.6452 84.6159 46.7582 84.6159 44.9843C84.6159 43.92 85.3255 42.8556 86.5672 41.7913H87.6316V42.3234C86.922 42.5008 86.3898 42.8556 86.035 43.3878C85.5029 43.92 85.3255 44.6295 85.3255 45.3391Z" fill="white"/>
<path d="M93.4854 42.3234V47.6452H92.7759V46.5808C92.7759 45.3391 92.4211 44.8069 91.8889 44.8069C91.7115 44.8069 91.5341 44.9843 91.3567 45.1617C91.1793 45.3391 91.1793 45.5165 91.1793 45.8713H90.4698C90.4698 45.6939 90.2924 45.3391 90.2924 45.1617C90.115 44.9843 89.9376 44.8069 89.5828 44.8069C89.228 44.8069 89.0506 44.9843 88.8732 45.1617C88.6958 45.3391 88.6959 45.6939 88.6959 45.8713C88.6959 46.5808 89.0506 46.7582 89.9376 46.7582H90.115L89.9376 47.4678H89.7602C89.228 47.4678 88.8732 47.2904 88.5184 46.9356C88.1637 46.5808 87.9863 46.2261 87.9863 45.6939C87.9863 45.1617 88.1637 44.8069 88.5184 44.4521C88.8732 44.0974 89.228 43.92 89.7602 43.92C90.2924 43.92 90.6472 44.2747 91.0019 44.8069C91.3567 44.2747 91.8889 43.92 92.2437 43.92C92.5985 43.92 92.9533 44.2747 93.1306 44.8069V42.5008H87.4541V41.9687H94.3724V42.5008H93.4854V42.3234Z" fill="white"/>
<path d="M99.3394 42.3235V47.6452H98.6298V47.2905C98.6298 46.7583 98.275 46.2261 97.7429 45.6939C97.2107 45.1618 96.5011 44.807 96.1463 44.807C95.9689 44.807 95.6142 44.807 95.4368 44.9844C95.2594 45.1618 95.082 45.3392 95.082 45.5165C95.082 45.6939 95.082 46.0487 95.2594 46.0487C95.4368 46.2261 95.6142 46.2261 95.9689 46.2261C96.1463 46.2261 96.3237 46.2261 96.5011 46.0487L96.6785 46.7583C96.5011 46.9357 96.1463 46.9357 95.7916 46.9357C95.4368 46.9357 95.082 46.7583 94.7272 46.4035C94.5498 46.0487 94.3724 45.6939 94.3724 45.3391C94.3724 44.807 94.5498 44.4522 94.7272 44.2748C95.082 43.92 95.4368 43.7426 95.7916 43.7426C96.8559 43.7426 97.7429 44.2748 98.4524 45.5165V42.1461H93.6628V41.6139H99.6942V42.1461H99.3394V42.3235Z" fill="white"/>
<path d="M102.533 48C101.823 48 101.291 47.8226 100.936 47.6452C100.404 47.113 100.049 46.2261 100.049 45.3391C100.049 44.8069 100.226 44.2747 100.581 43.7426C100.759 43.3878 101.113 42.8556 101.646 42.3234H99.5168V41.7913H102.887V42.3234C102.355 42.5008 101.823 42.8556 101.468 43.5652C100.936 44.0974 100.759 44.8069 100.759 45.3391C100.759 46.7582 101.291 47.4678 102.533 47.4678C102.71 47.4678 102.887 47.4678 103.065 47.2904V48H102.533Z" fill="white"/>
<path d="M103.242 42.3234V44.6295C104.306 43.92 105.193 43.3878 105.903 43.2104L106.612 44.0974C106.258 44.9843 106.08 45.5165 106.08 46.0487C106.08 46.4034 106.258 46.9356 106.435 47.4678L105.903 47.6452C105.725 46.9356 105.548 46.5808 105.548 46.2261C105.548 45.5165 105.548 44.8069 105.725 44.0974C105.016 44.4521 104.129 44.9843 103.065 45.8713L102.532 45.3391V42.3234H102V41.7913H107.145V42.3234H103.242Z" fill="white"/>
<path d="M112.289 42.3235V47.6452H111.58V47.2905C111.58 46.7583 111.225 46.2261 110.693 45.6939C110.16 45.1618 109.451 44.807 109.096 44.807C108.919 44.807 108.564 44.807 108.386 44.9844C108.209 45.1618 108.032 45.3392 108.032 45.5165C108.032 45.6939 108.032 46.0487 108.209 46.0487C108.386 46.2261 108.564 46.2261 108.919 46.2261C109.096 46.2261 109.273 46.2261 109.451 46.0487L109.628 46.7583C109.451 46.9357 109.096 46.9357 108.741 46.9357C108.386 46.9357 108.032 46.7583 107.677 46.4035C107.322 46.0487 107.322 45.6939 107.322 45.3391C107.322 44.807 107.5 44.4522 107.677 44.2748C108.032 43.92 108.386 43.7426 108.741 43.7426C109.806 43.7426 110.693 44.2748 111.402 45.5165V42.1461H106.613V41.6139H112.644V42.1461H112.289V42.3235Z" fill="white"/>
</svg>
