<svg width="206" height="176" viewBox="0 0 206 176" fill="none" xmlns="http://www.w3.org/2000/svg">
<path d="M245.806 140.414C245.806 143.95 245.806 146.981 245.301 150.516C244.292 165.164 240.254 178.801 234.702 191.428C232.178 196.479 229.654 201.53 226.626 206.076C204.922 240.422 166.563 263.656 122.651 263.656C103.975 263.656 86.3097 259.615 70.1582 252.039C28.7699 232.34 0 189.913 0 140.414C0 92.4311 27.7604 50.5088 68.1392 30.3053C65.1108 34.346 62.0824 38.8918 59.5587 43.4376C59.5587 43.9426 59.054 43.9426 59.054 44.4477C57.5398 45.963 56.0256 46.9732 54.5114 48.4884C52.4925 50.0037 50.9782 52.024 48.9593 54.0444C48.4546 54.5495 47.9498 55.0546 47.9498 55.5597C47.4451 56.0647 46.9404 56.5698 46.9404 57.0749L44.9214 59.0953C43.4072 60.6105 42.3978 62.1258 41.3883 63.6411C36.3409 70.2072 32.303 77.7835 28.7699 85.3598C28.2652 86.37 28.2652 86.8751 27.7604 87.8853C27.2557 88.8955 27.2557 89.9056 26.751 90.4107C25.2368 91.4209 25.2368 91.926 25.2368 92.4311L23.7226 96.9769C23.2178 97.987 23.2178 98.9972 22.7131 100.007C22.7131 100.512 22.2083 101.018 22.2083 101.523C22.2083 102.533 21.7036 103.543 21.7036 104.553C21.1989 107.079 20.1894 110.109 20.1894 113.14C20.1894 114.15 20.1894 114.655 19.6847 115.665V128.292C19.6847 161.628 34.8267 191.428 59.054 211.127C77.7292 226.279 101.452 235.371 127.193 235.371C150.411 235.371 172.115 227.795 189.78 215.167C202.904 206.076 213.503 193.954 221.074 179.811C222.083 177.791 223.093 176.276 224.102 174.255C230.159 161.123 233.692 146.981 234.197 131.828V128.292C234.197 124.757 234.197 121.221 233.692 117.685L234.197 118.191C235.711 119.706 237.226 121.221 239.244 122.231C240.759 119.706 242.273 117.18 244.292 115.16C245.301 119.706 245.806 124.757 246.311 129.302C245.301 133.343 245.806 136.879 245.806 140.414" fill="white"/>
<path d="M233.693 128.292V131.828C233.693 153.547 224.607 171.73 223.598 174.255C222.588 176.276 221.579 177.791 220.569 179.811C212.998 193.954 201.894 206.076 189.276 215.167C171.61 227.794 149.906 235.371 126.689 235.371C100.947 235.371 77.2246 226.279 58.5494 211.127C34.3221 191.428 19.1801 161.628 19.1801 128.292V115.665C19.1801 114.655 19.1801 114.15 19.6848 113.14C20.1895 110.109 21.199 107.078 21.7037 104.048C21.7037 103.038 22.2085 102.028 22.2085 101.017C22.2085 100.512 22.7132 100.007 22.7132 99.5022C23.2179 98.492 23.2179 97.4818 23.7227 96.4716C24.2274 94.9564 24.7321 93.9462 25.2369 92.4309C25.2369 91.9258 25.7416 91.4208 25.7416 90.9157C26.2463 89.9055 26.2463 88.8953 26.7511 88.3902C27.2558 87.38 27.2558 86.875 27.7606 85.8648C31.2937 77.7834 35.3316 70.7122 40.3789 64.146C41.3884 62.6307 42.9026 61.1155 43.9121 59.6002C44.4168 59.0951 44.9215 58.085 45.931 57.5799C46.4358 57.0748 46.4358 56.5697 46.9405 56.0646C47.4452 55.5595 47.95 55.0544 47.95 54.5493C49.4642 52.529 51.4831 51.0137 53.502 48.9934C55.0163 47.4781 56.5305 45.9628 58.0447 44.9527C58.0447 45.4578 57.5399 45.9628 57.5399 45.9628C57.5399 46.4679 57.0352 46.973 57.0352 47.4781C50.9784 60.1053 46.9405 74.7529 45.4263 90.9157C44.9215 94.9564 44.9215 99.5022 44.9215 104.048C44.9215 160.113 77.7293 205.571 118.613 205.571H123.155C129.212 205.571 134.764 204.56 140.316 203.045C168.077 195.469 188.266 170.214 188.266 140.414V138.394C187.762 120.716 180.191 104.553 168.077 93.4411C176.657 93.4411 184.733 94.9564 192.304 96.9767C207.446 101.017 221.074 108.089 232.683 117.18L233.188 117.685C233.188 121.221 233.693 124.757 233.693 128.292" fill="white"/>
<path d="M233.692 128.292V131.828C233.692 155.062 223.598 174.255 223.598 174.761C222.588 176.781 221.579 178.296 220.569 180.317C212.998 194.459 201.894 206.581 189.276 216.178C171.105 229.31 148.897 236.381 126.184 236.381C101.452 236.381 77.2245 227.795 58.0445 212.137C32.8078 191.428 18.6752 161.123 18.6752 128.798C18.6752 96.4719 33.3125 65.6616 58.5493 44.953L59.5587 43.9428C59.5587 44.4479 59.054 44.4479 59.054 44.953C59.054 45.4581 58.5493 45.9632 58.5493 45.9632C33.8172 66.1667 20.1894 96.4719 20.1894 128.292C20.1894 160.618 34.322 190.418 59.5587 211.127C77.7292 226.785 101.452 235.371 126.184 235.371C148.897 235.371 170.096 228.3 188.771 215.168C201.389 206.076 212.493 193.449 220.064 179.811C221.074 177.791 222.083 176.276 223.093 174.255C223.093 174.255 233.692 154.557 233.188 131.828V128.292C233.188 124.757 233.188 121.221 232.683 118.191V117.686L233.188 118.191L233.692 118.696V128.292" fill="white"/>
<path d="M204.418 61.6205C204.418 61.6205 116.594 44.9526 75.7103 121.221C75.7103 121.221 82.7766 68.6918 145.364 44.4475L132.745 21.2135C132.745 21.2135 157.982 -1.51546 201.894 4.5456L204.418 61.6205Z" fill="white"/>
<path d="M95.8997 102.028C95.8997 102.028 130.726 56.0648 210.979 68.1869L209.97 41.4173C209.97 41.4173 243.282 40.4071 270.538 63.6412L237.226 114.15C237.226 114.15 214.512 87.3803 167.067 86.8752C147.383 86.3701 123.66 88.8956 95.8997 102.028Z" fill="white"/>
<path d="M114.575 119.706C114.575 119.706 107.004 121.221 107.509 117.686C107.509 116.17 108.518 115.665 109.023 116.17C109.023 115.665 107.509 113.645 111.042 112.635C112.051 111.119 113.061 109.604 113.565 108.594C114.07 107.584 114.575 106.069 117.603 107.079C120.632 107.584 123.66 110.614 124.165 111.624C125.679 111.624 127.698 112.13 127.193 112.13L126.184 113.14C126.184 113.14 127.193 113.645 124.165 113.645C124.165 114.15 124.67 114.655 125.174 114.655C125.679 115.16 125.174 115.16 125.174 115.665C125.174 115.665 125.679 117.18 124.165 116.675C122.651 116.17 122.651 115.665 122.146 115.665C121.641 115.665 120.632 115.665 120.632 116.17C120.632 116.675 122.146 117.686 120.632 117.686C120.127 118.191 121.137 118.696 120.632 118.696C120.127 119.201 116.594 121.726 115.08 122.231C113.565 122.231 113.061 121.726 113.061 121.221C113.061 120.716 114.07 120.211 115.08 120.211C114.575 120.211 115.08 119.706 114.575 119.706" fill="white"/>
<path d="M114.07 127.787C113.565 127.787 111.042 126.272 112.556 125.767C113.565 124.757 118.613 121.726 119.622 121.221C120.632 120.716 122.146 122.231 120.632 123.241C119.118 124.757 114.07 127.787 114.07 127.787" fill="white"/>
<path d="M121.641 124.251C121.641 123.241 122.651 120.211 122.651 119.706C122.651 119.201 125.174 118.696 124.67 121.726C123.66 124.251 121.641 125.262 121.641 124.251" fill="white"/>
<path d="M125.174 118.191C125.174 118.191 139.307 117.686 140.317 118.191C141.326 118.696 146.373 126.272 144.859 132.838C143.85 139.404 141.831 140.92 132.745 141.93C132.745 139.91 132.241 134.354 131.231 132.838C130.222 131.323 127.193 127.787 126.184 127.787C126.184 129.303 125.679 133.849 125.679 133.849C125.679 133.849 121.137 134.354 120.632 133.343V126.272C120.632 126.272 124.67 122.737 125.174 121.726C125.679 122.231 126.184 124.252 130.727 123.747C130.727 124.252 125.174 124.757 125.174 118.191" fill="white"/>
<path d="M119.622 124.757C119.622 124.757 115.08 128.292 114.07 129.303C113.565 130.313 113.061 134.353 118.613 134.353C119.622 131.828 119.622 124.757 119.622 124.757" fill="white"/>
<path d="M109.023 130.313C107.509 130.313 106.499 129.808 106.499 128.797C106.499 127.787 108.518 126.272 110.032 126.777C111.042 127.282 113.565 127.787 113.565 132.333C114.575 133.343 117.099 135.363 120.632 135.363C124.165 135.363 126.184 135.363 126.184 136.374V142.94C126.184 142.94 122.146 142.94 112.051 135.869C111.042 134.858 110.537 133.848 110.537 132.333C110.537 130.818 109.528 130.313 109.023 130.313" fill="white"/>
<path d="M105.994 130.818C104.48 130.818 99.4329 134.858 102.966 136.374L104.985 134.353C104.985 134.353 103.975 136.879 105.994 137.384C108.013 137.889 107.004 136.374 108.013 136.374C108.518 137.384 108.518 137.889 109.528 137.889C110.537 137.889 110.537 134.858 109.528 133.343C109.023 131.828 108.013 130.818 105.994 130.818" fill="white"/>
<path d="M127.193 131.323V144.455C127.193 144.455 131.231 142.94 131.736 141.93C131.736 139.909 130.727 131.323 127.193 131.323Z" fill="white"/>
<path d="M116.594 139.909C116.594 139.909 121.641 143.445 124.67 144.455C124.165 144.96 122.146 147.991 121.136 147.486C120.632 147.486 117.099 142.435 116.594 139.909" fill="white"/>
<path d="M91.8618 144.96H98.9281V147.484H92.3665L91.8618 144.96Z" fill="white"/>
<path d="M167.067 143.445H138.297L142.84 146.978H167.067V143.445Z" fill="white"/>
<path d="M132.745 143.445C133.25 142.94 136.783 145.466 135.774 145.971C134.764 146.476 125.679 150.011 125.174 150.011C124.165 149.506 124.67 147.486 125.679 146.981C126.184 146.476 131.231 144.96 132.745 143.445Z" fill="white"/>
<path d="M122.651 149.506C121.641 149.001 116.089 154.557 118.613 155.062C121.136 155.567 127.193 156.577 128.708 157.587C130.222 157.082 131.231 155.567 131.231 155.062C132.241 155.062 133.755 156.577 135.269 156.072C136.783 155.567 143.85 150.516 143.85 149.506C142.335 148.496 139.307 146.476 137.793 146.476C136.783 145.97 127.698 151.526 122.651 149.506Z" fill="white"/>
<path d="M119.622 156.577C120.127 156.577 127.698 159.103 129.212 159.103C131.231 158.598 131.231 157.082 132.241 157.082C133.25 157.082 133.755 158.093 135.269 157.082C136.783 156.072 140.316 153.042 140.821 152.537C140.821 153.547 140.821 156.577 134.26 159.608C127.698 162.638 112.051 167.184 111.547 169.205C112.051 169.205 114.07 168.699 115.584 168.194C116.594 168.699 118.108 170.72 117.603 174.255C117.099 177.791 114.575 183.347 114.575 184.862V194.459C114.575 194.964 116.089 199.51 114.07 199.005C112.051 198.5 111.042 198.5 110.032 199.005C109.023 199.005 107.509 200.52 106.499 200.015C104.985 200.015 102.966 199.005 102.966 198.5C102.966 197.995 104.48 197.995 105.994 197.489C107.509 196.984 108.013 195.469 110.537 194.459C110.537 192.944 109.528 180.316 109.528 177.791C109.528 175.266 108.518 169.71 110.032 167.689C111.042 164.659 117.099 156.072 119.622 156.577" fill="white"/>
<path d="M129.212 163.649C129.212 164.659 133.755 175.771 135.774 175.771C137.793 175.771 156.468 171.73 160.001 173.245C161.011 174.76 163.03 177.286 163.03 178.801C163.03 178.801 163.534 182.337 163.03 182.842C163.534 182.842 165.048 182.337 165.553 181.327C166.058 180.316 165.553 175.266 165.553 174.255C165.553 173.245 168.077 168.699 165.048 169.204C162.02 169.204 153.44 169.204 150.411 168.699C147.887 168.194 141.326 166.679 139.812 167.689C138.298 168.699 136.279 171.225 136.279 171.73C135.774 171.73 135.269 171.225 136.279 169.204C136.783 167.184 139.307 161.628 138.802 158.598C137.288 159.103 129.212 163.649 129.212 163.649" fill="white"/>
<path d="M118.613 145.97C118.613 146.475 119.117 147.484 119.622 147.989L104.985 146.98C104.985 146.98 103.471 145.97 103.975 145.465L118.613 145.97Z" fill="white"/>
<path d="M102.461 144.96H117.099C117.099 144.96 116.089 143.445 115.584 142.435H101.957C101.957 142.435 100.442 142.435 100.442 145.465C100.442 145.97 101.452 146.98 102.461 144.96" fill="white"/>
<path d="M88.3286 147.486H91.357C91.357 147.486 92.3665 146.981 91.357 145.971C90.3476 144.96 88.3286 143.95 89.8428 141.93C88.3286 141.93 86.3097 141.425 86.8144 145.971H85.3002C85.3002 145.971 84.7955 143.445 81.2623 143.445C77.7292 143.445 69.1487 146.981 69.1487 146.981C69.1487 146.981 78.7387 149.506 81.2623 149.506C83.786 149.506 85.3002 146.981 85.3002 146.981H86.3097C86.3097 146.981 86.8144 149.001 87.3191 149.506V152.537C87.3191 152.537 85.8049 153.042 86.3097 154.557C86.3097 156.072 87.3191 156.072 87.8239 156.072C88.3286 156.072 88.3286 155.567 89.8428 155.567C90.3476 155.062 89.8428 153.042 88.8334 152.537V150.516C88.8334 150.516 89.8428 149.506 89.8428 149.001C89.3381 147.991 88.3286 148.496 88.3286 147.486" fill="white"/>
<path d="M105.994 161.628C107.004 161.123 107.509 159.608 107.509 159.608V151.021C107.509 149.001 103.975 147.486 103.471 147.486C102.966 147.991 101.956 148.496 101.452 148.496C100.442 148.496 99.9375 148.496 98.9281 147.486C95.8997 147.486 94.3855 151.021 94.3855 151.526C94.3855 152.032 93.8807 158.598 94.3855 159.608C94.3855 160.618 95.3949 161.628 95.8997 162.133C95.3949 164.154 92.3665 175.771 96.4044 177.286V179.306H106.499V177.286C109.528 174.761 107.004 164.659 105.994 161.628M94.3855 151.021C94.3855 150.516 95.8997 147.991 97.9186 147.991C98.9281 149.001 99.9375 149.001 100.947 149.001C101.956 149.001 102.966 147.991 103.471 147.991C104.48 148.496 106.499 149.506 106.499 151.021V159.608C106.499 160.113 105.994 160.618 105.49 161.123H103.471V157.082H96.9091V160.618H95.3949C94.8902 160.113 94.3855 159.608 94.3855 158.598V151.021M101.452 174.761H99.4328C98.9281 174.761 98.4233 174.255 98.4233 173.75C98.4233 173.245 98.9281 172.74 99.4328 172.74H101.452C101.956 172.74 102.461 173.245 102.461 173.75C102.461 174.255 101.956 174.761 101.452 174.761ZM105.49 175.771L100.442 170.215L95.8997 175.771C92.8713 174.761 94.8902 165.669 95.8997 161.628H105.49C106.499 165.669 108.013 174.255 105.49 175.771Z" fill="white"/>
<path d="M103.975 165.669C104.985 164.154 103.471 163.143 103.471 163.143H97.4139C95.395 163.143 95.8997 165.669 95.8997 165.669L99.4329 168.699C100.442 168.699 102.966 167.184 103.975 165.669" fill="white"/>
<path d="M101.452 169.204L104.985 173.245C104.985 173.245 104.48 168.194 104.48 166.679C103.975 167.184 101.452 169.204 101.452 169.204" fill="white"/>
<path d="M96.4044 166.679C96.4044 168.194 95.8997 173.245 95.8997 173.245L99.4328 169.204C99.4328 169.204 97.4139 167.184 96.4044 166.679" fill="white"/>
<path d="M103.471 156.072H103.975V155.567C103.975 155.062 103.471 155.062 103.471 155.062H97.9186C97.4138 155.062 97.4138 155.567 97.4138 155.567V156.072H97.9186H103.471Z" fill="white"/>
<path d="M61.5777 143.445C61.5777 143.445 21.7036 56.0648 114.575 0L136.783 40.9121C136.783 40.9121 121.641 45.963 105.49 60.1055C87.8239 75.2581 69.1487 100.512 61.5777 143.445" fill="white"/>
</svg>
