<svg width="135" height="57" viewBox="0 0 135 57" fill="none" xmlns="http://www.w3.org/2000/svg">
<path d="M88.9848 18.7108H66.3579C65.9228 18.7108 65.5964 19.0372 65.5964 19.4723V21.2128C65.5964 21.648 65.9228 21.9743 66.3579 21.9743H83.2193V31.3297C82.7842 30.677 82.2403 30.0243 81.5876 29.3716C79.6295 27.3047 77.4538 26.3256 75.2781 26.3256C73.5376 26.3256 72.0146 27.1959 70.818 28.8277C69.839 30.1331 69.2951 31.7648 69.2951 33.179C69.2951 34.702 69.5126 36.5513 70.7093 38.2918C72.1234 40.3587 74.2991 41.0114 76.2572 41.0114C78.868 41.0114 81.0437 39.1621 81.0437 36.8776C81.0437 35.4634 80.391 34.3756 79.0856 33.7229L77.8889 33.0702V34.9195C77.7802 35.4634 76.8011 36.2249 75.8221 36.2249C74.9518 36.2249 74.0815 35.8986 73.6464 35.3547C73.32 34.9195 73.1025 34.3756 73.2113 33.8317C73.2113 33.179 73.4288 32.6351 73.9727 31.9824C74.5167 31.3297 75.0606 31.0033 75.9309 31.0033C78.2153 31.0033 80.0646 32.0912 81.5876 34.2668C82.7842 36.1161 83.4369 37.9655 83.4369 39.9236V44.6012L86.8092 46.6681C86.918 46.7769 87.0267 46.7769 87.1355 46.7769C87.5707 46.7769 87.897 46.4506 87.897 46.0154V21.9743H89.2024C89.6375 21.9743 89.9639 21.648 89.9639 21.2128V19.4723C89.6375 19.0372 89.3112 18.7108 88.9848 18.7108Z" fill="#EC1C24"/>
<path d="M134.13 18.7108H105.52C105.085 18.7108 104.758 19.0371 104.758 19.4722V22.627C102.039 19.6898 99.5366 18.2756 97.2522 18.2756C95.0765 18.2756 93.336 18.8196 91.813 19.9074C90.29 21.104 89.5286 22.5182 89.5286 24.1499C89.5286 29.154 95.1853 29.154 96.4907 28.3925C96.7083 28.2837 97.0346 28.0661 97.4697 28.0661C98.5576 28.0661 98.9927 28.9364 98.9927 29.6979C98.9927 30.8945 97.361 31.8735 95.4029 31.8735C94.315 31.8735 93.5535 31.5472 93.1184 30.8945L92.2481 29.5891L91.5954 31.1121C91.4867 31.4384 91.2691 31.8735 91.2691 32.4175C91.2691 33.6141 91.813 34.7019 92.9008 35.5722C93.9887 36.4424 95.1853 36.8776 96.4907 36.8776C98.6664 36.8776 100.407 36.1161 101.604 34.5931C102.583 33.3965 103.018 31.8735 103.018 30.2418C103.018 29.2627 102.691 28.3925 101.93 27.3046C101.06 25.9992 99.9718 25.3465 98.6664 25.3465C98.2312 25.3465 97.6873 25.4553 97.0346 25.6729C96.817 25.5641 96.4907 25.6729 96.3819 25.6729C96.1643 25.6729 95.838 25.5641 95.6204 25.2378C95.4029 25.0202 95.1853 24.6938 95.1853 24.1499C95.1853 22.9533 96.3819 21.6479 98.34 21.6479H98.4488C99.7542 21.6479 101.06 22.3006 102.365 23.606C103.344 24.5851 104.214 25.5641 104.758 26.6519V44.4924L108.131 46.4505C108.239 46.5593 108.348 46.5593 108.457 46.5593C108.892 46.5593 109.218 46.2329 109.218 45.7978V21.8655H114.331V37.3127L118.356 38.9445H118.574C118.9 38.9445 119.226 38.6181 119.335 38.2918V38.183C119.988 33.6141 122.055 30.4594 125.427 28.5013V29.3715C125.427 30.0242 125.427 31.656 125.536 32.635C125.536 33.1789 125.536 33.5053 125.645 33.8316C125.645 35.5722 125.862 38.4005 126.515 40.3586C127.603 44.1661 129.561 45.0363 130.975 45.1451H131.084C131.954 45.1451 132.498 44.9275 132.933 44.4924C133.151 44.2748 133.477 43.7309 133.477 43.0782C133.477 42.3167 133.368 41.7728 133.151 41.4465L132.824 40.9026L132.172 41.0113C131.41 41.2289 131.193 41.2289 131.193 41.1201H131.084C130.866 41.1201 130.866 41.1201 130.757 41.0113C130.54 40.9026 130.105 40.4674 129.778 39.2708C129.561 38.4005 129.452 37.0951 129.452 36.4424C129.452 31.4384 130.54 27.631 132.063 26.7607H132.172C132.389 26.6519 132.607 26.4344 132.607 26.108C132.607 25.9992 132.607 25.8905 132.498 25.7817V25.6729C131.736 24.1499 130.105 23.0621 127.82 22.4094H127.385C125.645 22.7357 123.469 23.9324 120.749 26.2168C120.097 26.7607 119.444 27.4134 118.791 27.9573V21.7567H134.238C134.674 21.7567 135 21.4303 135 20.9952V19.2547C134.891 19.0371 134.565 18.7108 134.13 18.7108Z" fill="#EC1C24"/>
<path d="M52.9774 30.2416C52.9774 31.0031 52.9774 31.6558 52.8687 32.4173C52.6511 35.572 51.7808 38.5091 50.5842 41.2287C50.0403 42.3166 49.4964 43.4044 48.8437 44.3834C44.166 51.7807 35.8985 56.7847 26.4343 56.7847C22.4093 56.7847 18.6019 55.9145 15.1209 54.2827C6.20065 50.0402 0 40.9024 0 30.2416C0 19.9072 5.98308 10.8782 14.6857 6.52686C14.033 7.39712 13.3803 8.37617 12.8364 9.35522C12.8364 9.464 12.7276 9.464 12.7276 9.57279C12.4013 9.89914 12.0749 10.1167 11.7486 10.4431C11.3135 10.7694 10.9871 11.2045 10.552 11.6397C10.4432 11.7485 10.3344 11.8572 10.3344 11.966C10.2256 12.0748 10.1168 12.1836 10.1168 12.2924L9.68171 12.7275C9.35536 13.0539 9.13779 13.3802 8.92023 13.7066C7.83239 15.1207 6.96213 16.7525 6.20065 18.3842C6.09186 18.6018 6.09186 18.7106 5.98308 18.9281C5.8743 19.1457 5.8743 19.3633 5.76551 19.4721C5.43916 19.6896 5.43916 19.7984 5.43916 19.9072L5.11281 20.8862C5.00403 21.1038 5.00403 21.3214 4.89525 21.5389C4.89525 21.6477 4.78646 21.7565 4.78646 21.8653C4.78646 22.0829 4.67768 22.3004 4.67768 22.518C4.5689 23.0619 4.35133 23.7146 4.35133 24.3673C4.35133 24.5849 4.35133 24.6937 4.24255 24.9112V27.6308C4.24255 34.8105 7.50604 41.2287 12.7276 45.4713C16.7526 48.7348 21.8654 50.6929 27.4134 50.6929C32.4174 50.6929 37.0951 49.0611 40.9025 46.3415C43.7309 44.3834 46.0153 41.7726 47.6471 38.7267C47.8646 38.2916 48.0822 37.9652 48.2998 37.5301C49.6052 34.7017 50.3666 31.6558 50.4754 28.3923V27.6308C50.4754 26.8693 50.4754 26.1078 50.3666 25.3464L50.4754 25.4551C50.8018 25.7815 51.1281 26.1078 51.5633 26.3254C51.8896 25.7815 52.216 25.2376 52.6511 24.8024C52.8687 25.7815 52.9774 26.8693 53.0862 27.8484C52.8687 28.7186 52.9774 29.4801 52.9774 30.2416Z" fill="#EC1C24"/>
<path d="M50.3667 27.6309V28.3924C50.3667 33.07 48.4086 36.9862 48.191 37.5302C47.9734 37.9653 47.7559 38.2916 47.5383 38.7268C45.9066 41.7727 43.5133 44.3835 40.7938 46.3416C36.9863 49.0612 32.3087 50.6929 27.3046 50.6929C21.7567 50.6929 16.6439 48.7348 12.6189 45.4713C7.39729 41.2288 4.13379 34.8106 4.13379 27.6309V24.9113C4.13379 24.6937 4.13379 24.5849 4.24257 24.3674C4.35136 23.7147 4.56892 23.062 4.67771 22.4093C4.67771 22.1917 4.78649 21.9741 4.78649 21.7566C4.78649 21.6478 4.89527 21.539 4.89527 21.4302C5.00406 21.2127 5.00405 20.9951 5.11284 20.7775C5.22162 20.4512 5.3304 20.2336 5.43919 19.9073C5.43919 19.7985 5.54797 19.6897 5.54797 19.5809C5.65675 19.3634 5.65675 19.1458 5.76554 19.037C5.87432 18.8194 5.87432 18.7107 5.9831 18.4931C6.74459 16.7526 7.61485 15.2296 8.70269 13.8154C8.92025 13.4891 9.2466 13.1627 9.46417 12.8364C9.57295 12.7276 9.68174 12.51 9.8993 12.4012C10.0081 12.2924 10.0081 12.1837 10.1169 12.0749C10.2257 11.9661 10.3344 11.8573 10.3344 11.7485C10.6608 11.3134 11.0959 10.987 11.5311 10.5519C11.8574 10.2256 12.1838 9.89921 12.5101 9.68164C12.5101 9.79042 12.4013 9.89921 12.4013 9.89921C12.4013 10.008 12.2925 10.1168 12.2925 10.2256C10.9871 12.9451 10.1169 16.0999 9.79052 19.5809C9.68174 20.4512 9.68174 21.4302 9.68174 22.4093C9.68174 34.4842 16.7526 44.2747 25.5641 44.2747H26.5431C27.8485 44.2747 29.0452 44.0572 30.2418 43.7308C36.2249 42.0991 40.5762 36.6599 40.5762 30.2417V29.8065C40.4674 25.9991 38.8357 22.5181 36.2249 20.1248C38.0742 20.1248 39.8147 20.4512 41.4464 20.8863C44.7099 21.7566 47.6471 23.2795 50.1491 25.2376L50.2579 25.3464C50.2579 26.1079 50.3667 26.8694 50.3667 27.6309Z" fill="#F6921E"/>
<path d="M50.3666 27.6309V28.3924C50.3666 33.3964 48.1909 37.5302 48.1909 37.639C47.9733 38.0741 47.7558 38.4005 47.5382 38.8356C45.9065 41.8815 43.5132 44.4923 40.7937 46.5592C36.8775 49.3876 32.091 50.9105 27.1957 50.9105C21.8654 50.9105 16.6438 49.0612 12.51 45.6889C7.07083 41.2288 4.0249 34.7018 4.0249 27.7397C4.0249 20.7776 7.17962 14.1418 12.6188 9.68168L12.8363 9.46411C12.8363 9.57289 12.7276 9.57289 12.7276 9.68168C12.7276 9.79046 12.6188 9.89924 12.6188 9.89924C7.2884 14.2506 4.35125 20.7776 4.35125 27.6309C4.35125 34.593 7.39718 41.0113 12.8363 45.4714C16.7525 48.8437 21.8654 50.693 27.1957 50.693C32.091 50.693 36.6599 49.17 40.6849 46.3416C43.4044 44.3835 45.7977 41.664 47.4294 38.7268C47.647 38.2917 47.8646 37.9653 48.0821 37.5302C48.0821 37.5302 50.3666 33.2876 50.2578 28.3924V27.6309C50.2578 26.8694 50.2578 26.108 50.149 25.4553V25.3465L50.2578 25.4553L50.3666 25.564V27.6309Z" fill="#F6921E"/>
<path d="M44.0572 13.2717C44.0572 13.2717 25.129 9.6818 16.3175 26.1081C16.3175 26.1081 17.8405 14.7946 31.3296 9.57302L28.61 4.56899C28.61 4.56899 34.0492 -0.326256 43.5133 0.979143L44.0572 13.2717Z" fill="#EC1C24"/>
<path d="M20.6688 21.9743C20.6688 21.9743 28.1749 12.0751 45.4714 14.6859L45.2538 8.92034C45.2538 8.92034 52.4335 8.70277 58.3078 13.7068L51.1281 24.5851C51.1281 24.5851 46.2329 18.8196 36.0073 18.7108C31.7647 18.602 26.6519 19.146 20.6688 21.9743Z" fill="#F6921E"/>
<path d="M24.6938 25.7816C24.6938 25.7816 23.0621 26.1079 23.1709 25.3464C23.1709 25.0201 23.3884 24.9113 23.4972 25.0201C23.4972 24.9113 23.1709 24.4762 23.9323 24.2586C24.1499 23.9323 24.3675 23.6059 24.4763 23.3883C24.585 23.1708 24.6938 22.8444 25.3465 23.062C25.9992 23.1708 26.6519 23.8235 26.7607 24.041C27.0871 24.041 27.5222 24.1498 27.4134 24.1498L27.1958 24.3674C27.1958 24.3674 27.4134 24.4762 26.7607 24.4762C26.7607 24.5849 26.8695 24.6937 26.9783 24.6937C27.0871 24.8025 26.9783 24.8025 26.9783 24.9113C26.9783 24.9113 27.0871 25.2376 26.7607 25.1289C26.4344 25.0201 26.4344 24.9113 26.3256 24.9113C26.2168 24.9113 25.9992 24.9113 25.9992 25.0201C25.9992 25.1289 26.3256 25.3464 25.9992 25.3464C25.8904 25.4552 26.108 25.564 25.9992 25.564C25.8904 25.6728 25.129 26.2167 24.8026 26.3255C24.4763 26.3255 24.3675 26.2167 24.3675 26.1079C24.3675 25.9991 24.585 25.8903 24.8026 25.8903C24.6938 25.8903 24.8026 25.7816 24.6938 25.7816Z" fill="#EC1C24"/>
<path d="M24.585 27.5221C24.4762 27.5221 23.9323 27.1957 24.2586 27.087C24.4762 26.8694 25.564 26.2167 25.7816 26.1079C25.9992 25.9991 26.3255 26.3255 25.9992 26.543C25.6728 26.8694 24.585 27.5221 24.585 27.5221Z" fill="#EC1C24"/>
<path d="M26.2168 26.7607C26.2168 26.5432 26.4344 25.8905 26.4344 25.7817C26.4344 25.6729 26.9783 25.5641 26.8695 26.2168C26.6519 26.7607 26.2168 26.9783 26.2168 26.7607Z" fill="#EC1C24"/>
<path d="M26.9782 25.4552C26.9782 25.4552 30.0241 25.3464 30.2417 25.4552C30.4593 25.564 31.5471 27.1957 31.2207 28.6099C31.0032 30.0241 30.568 30.3505 28.6099 30.568C28.6099 30.1329 28.5012 28.9363 28.2836 28.6099C28.066 28.2836 27.4133 27.5221 27.1958 27.5221C27.1958 27.8484 27.087 28.8275 27.087 28.8275C27.087 28.8275 26.1079 28.9363 25.9991 28.7187V27.1957C25.9991 27.1957 26.8694 26.4343 26.9782 26.2167C27.087 26.3255 27.1958 26.7606 28.1748 26.6518C28.1748 26.7606 26.9782 26.8694 26.9782 25.4552Z" fill="#EC1C24"/>
<path d="M25.7818 26.8695C25.7818 26.8695 24.8027 27.631 24.5851 27.8486C24.4764 28.0661 24.3676 28.9364 25.5642 28.9364C25.7818 28.3925 25.7818 26.8695 25.7818 26.8695Z" fill="#EC1C24"/>
<path d="M23.4972 28.0661C23.1708 28.0661 22.9532 27.9573 22.9532 27.7397C22.9532 27.5221 23.3884 27.1958 23.7147 27.3046C23.9323 27.4133 24.4762 27.5221 24.4762 28.5012C24.6938 28.7187 25.2377 29.1539 25.9992 29.1539C26.7607 29.1539 27.1958 29.1539 27.1958 29.3714V30.7856C27.1958 30.7856 26.3255 30.7856 24.1499 29.2627C23.9323 29.0451 23.8235 28.8275 23.8235 28.5012C23.8235 28.1748 23.6059 28.0661 23.4972 28.0661Z" fill="#EC1C24"/>
<path d="M22.8445 28.1749C22.5181 28.1749 21.4303 29.0452 22.1918 29.3715L22.6269 28.9364C22.6269 28.9364 22.4094 29.4803 22.8445 29.5891C23.2796 29.6979 23.0621 29.3715 23.2796 29.3715C23.3884 29.5891 23.3884 29.6979 23.606 29.6979C23.8235 29.6979 23.8235 29.0452 23.606 28.7188C23.4972 28.3925 23.2796 28.1749 22.8445 28.1749Z" fill="#EC1C24"/>
<path d="M27.4133 28.2836V31.1119C27.4133 31.1119 28.2836 30.7856 28.3924 30.568C28.3924 30.1329 28.1748 28.2836 27.4133 28.2836Z" fill="#EC1C24"/>
<path d="M25.129 30.1329C25.129 30.1329 26.2169 30.8944 26.8696 31.112C26.7608 31.2208 26.3256 31.8735 26.1081 31.7647C25.9993 31.7647 25.2378 30.6769 25.129 30.1329Z" fill="#EC1C24"/>
<path d="M19.7985 31.2207H21.3214V31.7646H19.9072L19.7985 31.2207Z" fill="#EC1C24"/>
<path d="M36.0073 30.8944H29.8066L30.7857 31.6559H36.0073V30.8944Z" fill="#EC1C24"/>
<path d="M28.61 30.8944C28.7187 30.7856 29.4802 31.3296 29.2627 31.4383C29.0451 31.5471 27.087 32.3086 26.9782 32.3086C26.7606 32.1998 26.8694 31.7647 27.087 31.6559C27.1958 31.5471 28.2836 31.2208 28.61 30.8944Z" fill="#EC1C24"/>
<path d="M26.4343 32.1998C26.2167 32.091 25.0201 33.2876 25.564 33.3964C26.1079 33.5052 27.4133 33.7227 27.7397 33.9403C28.066 33.8315 28.2836 33.5052 28.2836 33.3964C28.5011 33.3964 28.8275 33.7227 29.1538 33.6139C29.4802 33.5052 31.0032 32.4173 31.0032 32.1998C30.6768 31.9822 30.0241 31.5471 29.6978 31.5471C29.4802 31.4383 27.5221 32.6349 26.4343 32.1998Z" fill="#EC1C24"/>
<path d="M25.7816 33.7228C25.8904 33.7228 27.5222 34.2667 27.8485 34.2667C28.2836 34.1579 28.2836 33.8316 28.5012 33.8316C28.7188 33.8316 28.8276 34.0492 29.1539 33.8316C29.4803 33.614 30.2417 32.9613 30.3505 32.8525C30.3505 33.0701 30.3505 33.7228 28.9363 34.3755C27.5222 35.0282 24.1499 36.0073 24.0411 36.4424C24.1499 36.4424 24.585 36.3336 24.9114 36.2248C25.1289 36.3336 25.4553 36.7687 25.3465 37.5302C25.2377 38.2917 24.6938 39.4883 24.6938 39.8147V41.8816C24.6938 41.9903 25.0201 42.9694 24.585 42.8606C24.1499 42.7518 23.9323 42.7518 23.7147 42.8606C23.4972 42.8606 23.1708 43.1869 22.9533 43.0782C22.6269 43.0782 22.1918 42.8606 22.1918 42.7518C22.1918 42.643 22.5181 42.643 22.8445 42.5342C23.1708 42.4255 23.2796 42.0991 23.8235 41.8816C23.8235 41.5552 23.606 38.8356 23.606 38.2917C23.606 37.7478 23.3884 36.5512 23.7147 36.116C23.9323 35.4633 25.2377 33.614 25.7816 33.7228Z" fill="#EC1C24"/>
<path d="M27.8485 35.2458C27.8485 35.4634 28.8276 37.8566 29.2627 37.8566C29.6978 37.8566 33.7228 36.9863 34.4843 37.3127C34.7019 37.639 35.137 38.1829 35.137 38.5093C35.137 38.5093 35.2458 39.2708 35.137 39.3796C35.2458 39.3796 35.5721 39.2708 35.6809 39.0532C35.7897 38.8356 35.6809 37.7478 35.6809 37.5302C35.6809 37.3127 36.2248 36.3336 35.5721 36.4424C34.9194 36.4424 33.0701 36.4424 32.4174 36.3336C31.8735 36.2248 30.4593 35.8985 30.133 36.1161C29.8066 36.3336 29.3715 36.8775 29.3715 36.9863C29.2627 36.9863 29.1539 36.8775 29.3715 36.4424C29.4803 36.0073 30.0242 34.8107 29.9154 34.158C29.589 34.2667 27.8485 35.2458 27.8485 35.2458Z" fill="#EC1C24"/>
<path d="M25.564 31.4384C25.564 31.5472 25.6728 31.7647 25.7816 31.8735L22.6269 31.6559C22.6269 31.6559 22.3005 31.4384 22.4093 31.3296L25.564 31.4384Z" fill="#EC1C24"/>
<path d="M22.0831 31.2208H25.2378C25.2378 31.2208 25.0202 30.8944 24.9114 30.6769H21.9743C21.9743 30.6769 21.6479 30.6769 21.6479 31.3296C21.6479 31.4384 21.8655 31.6559 22.0831 31.2208Z" fill="#EC1C24"/>
<path d="M19.0372 31.7647H19.6899C19.6899 31.7647 19.9075 31.6559 19.6899 31.4383C19.4723 31.2207 19.0372 31.0032 19.3636 30.568C19.0372 30.568 18.6021 30.4593 18.7109 31.4383H18.3845C18.3845 31.4383 18.2757 30.8944 17.5142 30.8944C16.7528 30.8944 14.9034 31.6559 14.9034 31.6559C14.9034 31.6559 16.9703 32.1998 17.5142 32.1998C18.0582 32.1998 18.3845 31.6559 18.3845 31.6559H18.6021C18.6021 31.6559 18.7109 32.091 18.8196 32.1998V32.8525C18.8196 32.8525 18.4933 32.9613 18.6021 33.2876C18.6021 33.614 18.8196 33.614 18.9284 33.614C19.0372 33.614 19.0372 33.5052 19.3636 33.5052C19.4723 33.3964 19.3636 32.9613 19.146 32.8525V32.4174C19.146 32.4174 19.3636 32.1998 19.3636 32.091C19.2548 31.8734 19.0372 31.9822 19.0372 31.7647Z" fill="#EC1C24"/>
<path d="M22.8446 34.8107C23.0621 34.7019 23.1709 34.3756 23.1709 34.3756V32.5263C23.1709 32.0911 22.4094 31.7648 22.3006 31.7648C22.1919 31.8736 21.9743 31.9823 21.8655 31.9823C21.6479 31.9823 21.5392 31.9823 21.3216 31.7648C20.6689 31.7648 20.3425 32.5263 20.3425 32.635C20.3425 32.7438 20.2338 34.158 20.3425 34.3756C20.3425 34.5931 20.5601 34.8107 20.6689 34.9195C20.5601 35.3546 19.9074 37.8566 20.7777 38.183V38.6181H22.9533V38.183C23.606 37.6391 23.0621 35.4634 22.8446 34.8107ZM20.3425 32.5263C20.3425 32.4175 20.6689 31.8736 21.104 31.8736C21.3216 32.0911 21.5392 32.0911 21.7567 32.0911C21.9743 32.0911 22.1919 31.8736 22.3006 31.8736C22.5182 31.9823 22.9533 32.1999 22.9533 32.5263V34.3756C22.9533 34.4844 22.8446 34.5931 22.7358 34.7019H22.3006V33.8317H20.8865V34.5931H20.5601C20.4513 34.4844 20.3425 34.3756 20.3425 34.158V32.5263ZM21.8655 37.6391H21.4304C21.3216 37.6391 21.2128 37.5303 21.2128 37.4215C21.2128 37.3127 21.3216 37.2039 21.4304 37.2039H21.8655C21.9743 37.2039 22.0831 37.3127 22.0831 37.4215C22.0831 37.5303 21.9743 37.6391 21.8655 37.6391ZM22.7358 37.8566L21.6479 36.66L20.6689 37.8566C20.0162 37.6391 20.4513 35.681 20.6689 34.8107H22.7358C22.9533 35.681 23.2797 37.5303 22.7358 37.8566Z" fill="#EC1C24"/>
<path d="M22.4094 35.6809C22.6269 35.3545 22.3006 35.137 22.3006 35.137H20.9952C20.56 35.137 20.6688 35.6809 20.6688 35.6809L21.4303 36.3336C21.6479 36.3336 22.1918 36.0072 22.4094 35.6809Z" fill="#EC1C24"/>
<path d="M21.8654 36.4425L22.6268 37.3127C22.6268 37.3127 22.5181 36.2249 22.5181 35.8986C22.4093 36.0073 21.8654 36.4425 21.8654 36.4425Z" fill="#EC1C24"/>
<path d="M20.7776 35.8986C20.7776 36.2249 20.6688 37.3127 20.6688 37.3127L21.4303 36.4425C21.4303 36.4425 20.9952 36.0073 20.7776 35.8986Z" fill="#EC1C24"/>
<path d="M22.3005 33.614H22.4093V33.5053C22.4093 33.3965 22.3005 33.3965 22.3005 33.3965H21.1039C20.9951 33.3965 20.9951 33.5053 20.9951 33.5053V33.614H21.1039H22.3005Z" fill="#EC1C24"/>
<path d="M20.5601 38.618H20.4513V38.7268C20.4513 38.8356 20.5601 38.8356 20.5601 38.8356H22.7357C22.8445 38.8356 22.8445 38.7268 22.8445 38.7268V38.618H22.7357H20.5601Z" fill="#EC1C24"/>
<path d="M13.2716 30.8944C13.2716 30.8944 4.67772 12.0749 24.6938 0L29.4803 8.81145C29.4803 8.81145 26.2168 9.89928 22.7357 12.9452C18.9283 16.2087 14.9033 21.6479 13.2716 30.8944Z" fill="#F6921E"/>
</svg>
