<svg width="125" height="182" viewBox="0 0 125 182" fill="none" xmlns="http://www.w3.org/2000/svg">
<path d="M105.658 54.5051C105.658 55.8776 105.658 57.0539 105.462 58.4264C105.07 64.1122 103.503 69.4058 101.348 74.3074C100.368 76.268 99.3886 78.2286 98.213 79.9931C89.7883 93.3253 74.898 102.344 57.8525 102.344C50.6033 102.344 43.7459 100.776 37.4763 97.8348C21.4105 90.1884 10.2428 73.7192 10.2428 54.5051C10.2428 35.8793 21.0187 19.6061 36.6926 11.7637C35.5171 13.3322 34.3415 15.0967 33.3619 16.8613C33.3619 17.0573 33.166 17.0573 33.166 17.2534C32.5782 17.8416 31.9904 18.2337 31.4027 18.8219C30.619 19.4101 30.0312 20.1943 29.2475 20.9786C29.0516 21.1746 28.8557 21.3707 28.8557 21.5668C28.6597 21.7628 28.4638 21.9589 28.4638 22.1549L27.6801 22.9392C27.0923 23.5274 26.7005 24.1156 26.3086 24.7037C24.3494 27.2525 22.782 30.1935 21.4105 33.1344C21.2146 33.5265 21.2146 33.7226 21.0187 34.1147C20.8227 34.5068 20.8227 34.899 20.6268 35.095C20.039 35.4871 20.039 35.6832 20.039 35.8793L19.4513 37.6438C19.2553 38.0359 19.2553 38.4281 19.0594 38.8202C19.0594 39.0163 18.8635 39.2123 18.8635 39.4084C18.8635 39.8005 18.6676 40.1926 18.6676 40.5847C18.4716 41.5651 18.0798 42.7414 18.0798 43.9178C18.0798 44.3099 18.0798 44.506 17.8839 44.8981V49.7996C17.8839 62.7397 23.7616 74.3074 33.166 81.9538C40.4152 87.8356 49.6237 91.3647 59.6158 91.3647C68.6284 91.3647 77.0531 88.4238 83.9105 83.5223C89.0046 79.9931 93.119 75.2877 96.0579 69.7979C96.4497 69.0137 96.8416 68.4255 97.2334 67.6413C99.5845 62.5437 100.956 57.0539 101.152 51.1721V49.7996C101.152 48.4272 101.152 47.0548 100.956 45.6824L101.152 45.8784C101.74 46.4666 102.327 47.0548 103.111 47.4469C103.699 46.4666 104.287 45.4863 105.07 44.702C105.462 46.4666 105.658 48.4272 105.854 50.1918C105.462 51.7603 105.658 53.1327 105.658 54.5051Z" fill="white"/>
<path d="M100.956 49.7996V51.1721C100.956 59.6027 97.4294 66.661 97.0375 67.6413C96.6457 68.4255 96.2538 69.0137 95.862 69.7979C92.9231 75.2877 88.6128 79.9931 83.7146 83.5223C76.8573 88.4238 68.4325 91.3647 59.42 91.3647C49.4278 91.3647 40.2193 87.8356 32.9701 81.9538C23.5657 74.3074 17.688 62.7397 17.688 49.7996V44.8981C17.688 44.506 17.688 44.3099 17.8839 43.9178C18.0798 42.7414 18.4717 41.5651 18.6676 40.3887C18.6676 39.9966 18.8635 39.6044 18.8635 39.2123C18.8635 39.0162 19.0595 38.8202 19.0595 38.6241C19.2554 38.232 19.2554 37.8399 19.4513 37.4478C19.6472 36.8596 19.8432 36.4674 20.0391 35.8793C20.0391 35.6832 20.235 35.4871 20.235 35.2911C20.4309 34.899 20.4309 34.5068 20.6269 34.3108C20.8228 33.9186 20.8228 33.7226 21.0187 33.3305C22.3902 30.1935 23.9576 27.4486 25.9168 24.8998C26.3087 24.3116 26.8965 23.7234 27.2883 23.1353C27.4842 22.9392 27.6802 22.5471 28.072 22.351C28.2679 22.1549 28.2679 21.9589 28.4639 21.7628C28.6598 21.5668 28.8557 21.3707 28.8557 21.1746C29.4435 20.3904 30.2272 19.8022 31.0109 19.018C31.5986 18.4298 32.1864 17.8416 32.7742 17.4495C32.7742 17.6455 32.5783 17.8416 32.5783 17.8416C32.5783 18.0376 32.3823 18.2337 32.3823 18.4298C30.0312 23.3313 28.4639 29.0171 27.8761 35.2911C27.6802 36.8596 27.6802 38.6241 27.6802 40.3887C27.6802 62.1515 40.4153 79.7971 56.2852 79.7971H58.0485C60.3996 79.7971 62.5548 79.405 64.7099 78.8168C75.4858 75.8758 83.3228 66.0728 83.3228 54.5051V53.7209C83.1269 46.8587 80.188 40.5847 75.4858 36.2714C78.8165 36.2714 81.9513 36.8596 84.8902 37.6438C90.7679 39.2123 96.0579 41.9572 100.564 45.4863L100.76 45.6823C100.76 47.0548 100.956 48.4272 100.956 49.7996Z" fill="white"/>
<path d="M100.956 49.7998V51.1722C100.956 60.1911 97.0375 67.6414 97.0375 67.8375C96.6456 68.6217 96.2538 69.2099 95.8619 69.9941C92.923 75.4839 88.6127 80.1894 83.7146 83.9145C76.6613 89.0121 68.0406 91.757 59.224 91.757C49.6237 91.757 40.2193 88.424 32.7741 82.346C22.9779 74.3075 17.492 62.5438 17.492 49.9959C17.492 37.4479 23.1738 25.4881 32.9701 17.4496L33.3619 17.0575C33.3619 17.2536 33.166 17.2536 33.166 17.4496C33.166 17.6457 32.9701 17.8417 32.9701 17.8417C23.3697 25.6842 18.0798 37.4479 18.0798 49.7998C18.0798 62.3477 23.5657 73.9154 33.3619 81.9539C40.4152 88.0318 49.6237 91.3649 59.224 91.3649C68.0406 91.3649 76.2694 88.62 83.5187 83.5224C88.4168 79.9933 92.7271 75.0918 95.666 69.7981C96.0578 69.0138 96.4497 68.4257 96.8415 67.6414C96.8415 67.6414 100.956 59.995 100.76 51.1722V49.7998C100.76 48.4274 100.76 47.0549 100.564 45.8786V45.6825L100.76 45.8786L100.956 46.0746V49.7998Z" fill="white"/>
<path d="M89.5923 23.9195C89.5923 23.9195 55.5014 17.4494 39.6315 47.0548C39.6315 47.0548 42.3745 26.6643 66.6691 17.2534L61.771 8.23454C61.771 8.23454 71.5673 -0.588232 88.6127 1.76451L89.5923 23.9195Z" fill="white"/>
<path d="M47.4685 39.6045C47.4685 39.6045 60.9873 21.7629 92.1394 26.4684L91.7475 16.0771C91.7475 16.0771 104.679 15.685 115.258 24.7038L102.327 44.31C102.327 44.31 93.5108 33.9187 75.0939 33.7226C67.4528 33.5266 58.2444 34.5069 47.4685 39.6045Z" fill="white"/>
<path d="M54.7178 46.4666C54.7178 46.4666 51.7789 47.0548 51.9748 45.6824C51.9748 45.0942 52.3667 44.8982 52.5626 45.0942C52.5626 44.8982 51.9748 44.1139 53.3463 43.7218C53.7382 43.1336 54.13 42.5454 54.3259 42.1533C54.5219 41.7612 54.7178 41.173 55.8933 41.5651C57.0689 41.7612 58.2444 42.9375 58.4404 43.3297C59.0281 43.3297 59.8118 43.5257 59.6159 43.5257L59.2241 43.9178C59.2241 43.9178 59.6159 44.1139 58.4404 44.1139C58.4404 44.31 58.6363 44.506 58.8322 44.506C59.0281 44.7021 58.8322 44.7021 58.8322 44.8982C58.8322 44.8982 59.0281 45.4863 58.4404 45.2903C57.8526 45.0942 57.8526 44.8982 57.6567 44.8982C57.4607 44.8982 57.0689 44.8982 57.0689 45.0942C57.0689 45.2903 57.6567 45.6824 57.0689 45.6824C56.873 45.8785 57.2648 46.0745 57.0689 46.0745C56.873 46.2706 55.5015 47.2509 54.9137 47.447C54.3259 47.447 54.13 47.2509 54.13 47.0548C54.13 46.8588 54.5219 46.6627 54.9137 46.6627C54.7178 46.6627 54.9137 46.4666 54.7178 46.4666Z" fill="white"/>
<path d="M54.5218 49.6036C54.3259 49.6036 53.3462 49.0154 53.934 48.8194C54.3259 48.4272 56.2851 47.2509 56.677 47.0548C57.0688 46.8588 57.6566 47.4469 57.0688 47.8391C56.481 48.4272 54.5218 49.6036 54.5218 49.6036Z" fill="white"/>
<path d="M57.4607 48.2311C57.4607 47.839 57.8525 46.6626 57.8525 46.4666C57.8525 46.2705 58.8322 46.0744 58.6362 47.2508C58.2444 48.2311 57.4607 48.6232 57.4607 48.2311Z" fill="white"/>
<path d="M58.8322 45.8785C58.8322 45.8785 64.3181 45.6825 64.7099 45.8785C65.1018 46.0746 67.061 49.0155 66.4732 51.5643C66.0814 54.1131 65.2977 54.7013 61.771 55.0934C61.771 54.3092 61.5751 52.1525 61.1833 51.5643C60.7914 50.9761 59.6159 49.6037 59.224 49.6037C59.224 50.1919 59.0281 51.9564 59.0281 51.9564C59.0281 51.9564 57.2648 52.1525 57.0688 51.7604V49.0155C57.0688 49.0155 58.6362 47.6431 58.8322 47.251C59.0281 47.447 59.224 48.2313 60.9873 48.0352C60.9873 48.2313 58.8322 48.4273 58.8322 45.8785Z" fill="white"/>
<path d="M56.677 48.4272C56.677 48.4272 54.9137 49.7997 54.5218 50.1918C54.3259 50.5839 54.13 52.1524 56.2851 52.1524C56.677 51.1721 56.677 48.4272 56.677 48.4272Z" fill="white"/>
<path d="M52.5626 50.5839C51.9748 50.5839 51.5829 50.3878 51.5829 49.9957C51.5829 49.6036 52.3666 49.0154 52.9544 49.2114C53.3463 49.4075 54.3259 49.6036 54.3259 51.3681C54.7177 51.7602 55.6974 52.5445 57.0688 52.5445C58.4403 52.5445 59.224 52.5445 59.224 52.9366V55.4854C59.224 55.4854 57.6566 55.4854 53.7381 52.7405C53.3463 52.3484 53.1503 51.9563 53.1503 51.3681C53.1503 50.7799 52.7585 50.5839 52.5626 50.5839Z" fill="white"/>
<path d="M51.387 50.78C50.7992 50.78 48.84 52.3485 50.2115 52.9367L50.9952 52.1525C50.9952 52.1525 50.6033 53.1328 51.387 53.3288C52.1707 53.5249 51.7789 52.9367 52.1707 52.9367C52.3666 53.3288 52.3666 53.5249 52.7585 53.5249C53.1503 53.5249 53.1503 52.3485 52.7585 51.7603C52.5626 51.1722 52.1707 50.78 51.387 50.78Z" fill="white"/>
<path d="M59.6158 50.9761V56.0737C59.6158 56.0737 61.1832 55.4855 61.3792 55.0934C61.3792 54.3091 60.9873 50.9761 59.6158 50.9761Z" fill="white"/>
<path d="M55.5015 54.3091C55.5015 54.3091 57.4607 55.6815 58.6363 56.0736C58.4403 56.2697 57.6566 57.4461 57.2648 57.25C57.0689 57.25 55.6974 55.2894 55.5015 54.3091Z" fill="white"/>
<path d="M45.9011 56.2698H48.6441V57.2494H46.097L45.9011 56.2698Z" fill="white"/>
<path d="M75.0939 55.6815H63.9262L65.6895 57.053H75.0939V55.6815Z" fill="white"/>
<path d="M61.771 55.6815C61.9669 55.4855 63.3384 56.4658 62.9465 56.6619C62.5547 56.8579 59.028 58.2303 58.8321 58.2303C58.4403 58.0343 58.6362 57.25 59.028 57.054C59.224 56.8579 61.1832 56.2697 61.771 55.6815Z" fill="white"/>
<path d="M57.8525 58.0343C57.4607 57.8382 55.3055 59.9949 56.2851 60.1909C57.2647 60.387 59.6158 60.7791 60.2036 61.1712C60.7914 60.9752 61.1832 60.387 61.1832 60.1909C61.5751 60.1909 62.1629 60.7791 62.7506 60.5831C63.3384 60.387 66.0814 58.4264 66.0814 58.0343C65.4936 57.6421 64.318 56.8579 63.7303 56.8579C63.3384 56.6618 59.8118 58.8185 57.8525 58.0343Z" fill="white"/>
<path d="M56.677 60.7792C56.8729 60.7792 59.8118 61.7595 60.3996 61.7595C61.1833 61.5634 61.1833 60.9752 61.5751 60.9752C61.967 60.9752 62.1629 61.3674 62.7507 60.9752C63.3384 60.5831 64.7099 59.4068 64.9058 59.2107C64.9058 59.6028 64.9058 60.7792 62.3588 61.9556C59.8118 63.1319 53.7381 64.8965 53.5422 65.6807C53.7381 65.6807 54.5218 65.4847 55.1096 65.2886C55.5015 65.4847 56.0892 66.2689 55.8933 67.6413C55.6974 69.0138 54.7178 71.1705 54.7178 71.7586V75.4838C54.7178 75.6799 55.3055 77.4444 54.5218 77.2484C53.7381 77.0523 53.3463 77.0523 52.9544 77.2484C52.5626 77.2484 51.9748 77.8366 51.583 77.6405C50.9952 77.6405 50.2115 77.2484 50.2115 77.0523C50.2115 76.8562 50.7993 76.8562 51.387 76.6602C51.9748 76.4641 52.1707 75.8759 53.1504 75.4838C53.1504 74.8956 52.7585 69.9941 52.7585 69.0138C52.7585 68.0335 52.3667 65.8768 52.9544 65.0925C53.3463 63.9162 55.6974 60.5831 56.677 60.7792Z" fill="white"/>
<path d="M60.3995 63.524C60.3995 63.9161 62.1629 68.2295 62.9466 68.2295C63.7303 68.2295 70.9795 66.661 72.3509 67.2491C72.7428 67.8373 73.5265 68.8176 73.5265 69.4058C73.5265 69.4058 73.7224 70.7783 73.5265 70.9743C73.7224 70.9743 74.3102 70.7783 74.5061 70.3861C74.702 69.994 74.5061 68.0334 74.5061 67.6413C74.5061 67.2491 75.4857 65.4846 74.3102 65.6807C73.1346 65.6807 69.8039 65.6807 68.6284 65.4846C67.6488 65.2885 65.1017 64.7003 64.514 65.0925C63.9262 65.4846 63.1425 66.4649 63.1425 66.661C62.9466 66.661 62.7506 66.4649 63.1425 65.6807C63.3384 64.8964 64.318 62.7397 64.1221 61.5634C63.5343 61.7594 60.3995 63.524 60.3995 63.524Z" fill="white"/>
<path d="M56.2852 56.6617C56.2852 56.8577 56.4811 57.2495 56.677 57.4454L50.9952 57.0536C50.9952 57.0536 50.4074 56.6617 50.6033 56.4658L56.2852 56.6617Z" fill="white"/>
<path d="M50.0155 56.2696H55.6973C55.6973 56.2696 55.3055 55.6814 55.1096 55.2893H49.8196C49.8196 55.2893 49.2318 55.2893 49.2318 56.4657C49.2318 56.6617 49.6237 57.0539 50.0155 56.2696Z" fill="white"/>
<path d="M44.5296 57.2501H45.7052C45.7052 57.2501 46.097 57.054 45.7052 56.6619C45.3133 56.2698 44.5296 55.8776 45.1174 55.0934C44.5296 55.0934 43.7459 54.8973 43.9418 56.6619H43.3541C43.3541 56.6619 43.1581 55.6816 41.7867 55.6816C40.4152 55.6816 37.0845 57.054 37.0845 57.054C37.0845 57.054 40.807 58.0343 41.7867 58.0343C42.7663 58.0343 43.3541 57.054 43.3541 57.054H43.7459C43.7459 57.054 43.9418 57.8383 44.1378 58.0343V59.2107C44.1378 59.2107 43.55 59.4068 43.7459 59.9949C43.7459 60.5831 44.1378 60.5831 44.3337 60.5831C44.5296 60.5831 44.5296 60.3871 45.1174 60.3871C45.3133 60.191 45.1174 59.4068 44.7255 59.2107V58.4264C44.7255 58.4264 45.1174 58.0343 45.1174 57.8383C44.9215 57.4461 44.5296 57.6422 44.5296 57.2501Z" fill="white"/>
<path d="M51.387 62.7397C51.7788 62.5437 51.9748 61.9555 51.9748 61.9555V58.6224C51.9748 57.8382 50.6033 57.25 50.4074 57.25C50.2114 57.4461 49.8196 57.6421 49.6237 57.6421C49.2318 57.6421 49.0359 57.6421 48.644 57.25C47.4685 57.25 46.8807 58.6224 46.8807 58.8185C46.8807 59.0146 46.6848 61.5634 46.8807 61.9555C46.8807 62.3476 47.2726 62.7397 47.4685 62.9358C47.2726 63.72 46.097 68.2295 47.6644 68.8176V69.6019H51.5829V68.8176C52.7585 67.8373 51.7788 63.9161 51.387 62.7397ZM46.8807 58.6224C46.8807 58.4264 47.4685 57.4461 48.2522 57.4461C48.644 57.8382 49.0359 57.8382 49.4277 57.8382C49.8196 57.8382 50.2114 57.4461 50.4074 57.4461C50.7992 57.6421 51.5829 58.0342 51.5829 58.6224V61.9555C51.5829 62.1515 51.387 62.3476 51.1911 62.5437H50.4074V60.9752H47.8603V62.3476H47.2726C47.0766 62.1515 46.8807 61.9555 46.8807 61.5634V58.6224ZM49.6237 67.8373H48.84C48.644 67.8373 48.4481 67.6413 48.4481 67.4452C48.4481 67.2491 48.644 67.0531 48.84 67.0531H49.6237C49.8196 67.0531 50.0155 67.2491 50.0155 67.4452C50.0155 67.6413 49.8196 67.8373 49.6237 67.8373ZM51.1911 68.2295L49.2318 66.0728L47.4685 68.2295C46.2929 67.8373 47.0766 64.3082 47.4685 62.7397H51.1911C51.5829 64.3082 52.1707 67.6413 51.1911 68.2295Z" fill="white"/>
<path d="M50.6033 64.3082C50.9952 63.72 50.4074 63.3279 50.4074 63.3279H48.0563C47.2726 63.3279 47.4685 64.3082 47.4685 64.3082L48.84 65.4846C49.2319 65.4846 50.2115 64.8964 50.6033 64.3082Z" fill="white"/>
<path d="M49.6237 65.6806L50.9951 67.2491C50.9951 67.2491 50.7992 65.2885 50.7992 64.7003C50.6033 64.8964 49.6237 65.6806 49.6237 65.6806Z" fill="white"/>
<path d="M47.6644 64.7003C47.6644 65.2885 47.4685 67.2491 47.4685 67.2491L48.84 65.6806C48.84 65.6806 48.0563 64.8964 47.6644 64.7003Z" fill="white"/>
<path d="M50.4074 60.5829H50.6033V60.387C50.6033 60.191 50.4074 60.191 50.4074 60.191H48.2522C48.0563 60.191 48.0563 60.387 48.0563 60.387V60.5829H48.2522H50.4074Z" fill="white"/>
<path d="M47.2726 69.6018H47.0767V69.7977C47.0767 69.9937 47.2726 69.9937 47.2726 69.9937H51.1911C51.387 69.9937 51.387 69.7977 51.387 69.7977V69.6018H51.1911H47.2726Z" fill="white"/>
<path d="M34.1456 55.6815C34.1456 55.6815 18.6676 21.7628 54.7177 0L63.3384 15.881C63.3384 15.881 57.4607 17.8416 51.1911 23.3313C44.3337 29.2132 37.0845 39.0163 34.1456 55.6815Z" fill="white"/>
<path d="M42.1238 113.378H1.37148C0.587776 113.378 0 113.967 0 114.751V117.888C0 118.672 0.587776 119.26 1.37148 119.26H31.7398V136.122C30.9561 134.945 29.9765 133.769 28.8009 132.592C25.2743 128.867 21.3558 127.103 17.4373 127.103C14.3025 127.103 11.5596 128.671 9.40439 131.612C7.64107 133.965 6.66144 136.906 6.66144 139.455C6.66144 142.199 7.05329 145.533 9.20847 148.67C11.7555 152.395 15.674 153.571 19.2006 153.571C23.9028 153.571 27.8213 150.238 27.8213 146.121C27.8213 143.572 26.6458 141.611 24.2947 140.435L22.1395 139.259V142.592C21.9436 143.572 20.1803 144.944 18.4169 144.944C16.8495 144.944 15.2821 144.356 14.4984 143.376C13.9107 142.592 13.5188 141.611 13.7147 140.631C13.7147 139.455 14.1066 138.474 15.0862 137.298C16.0658 136.122 17.0455 135.533 18.6129 135.533C22.7273 135.533 26.058 137.494 28.8009 141.415C30.9561 144.748 32.1317 148.081 32.1317 151.61V160.041L38.2053 163.766C38.4013 163.962 38.5972 163.962 38.7931 163.962C39.5768 163.962 40.1646 163.374 40.1646 162.59V119.26H42.5157C43.2994 119.26 43.8871 118.672 43.8871 117.888V114.751C43.2994 113.967 42.7116 113.378 42.1238 113.378Z" fill="white"/>
<path d="M123.433 113.378H71.9044C71.1207 113.378 70.5329 113.967 70.5329 114.751V120.437C65.6348 115.143 61.1285 112.594 57.0141 112.594C53.0956 112.594 49.9608 113.574 47.2179 115.535C44.4749 117.692 43.1035 120.241 43.1035 123.181C43.1035 132.2 53.2915 132.2 55.6426 130.828C56.0345 130.632 56.6223 130.24 57.406 130.24C59.3652 130.24 60.1489 131.808 60.1489 133.181C60.1489 135.337 57.21 137.102 53.6834 137.102C51.7241 137.102 50.3527 136.514 49.569 135.337L48.0016 132.985L46.826 135.729C46.6301 136.318 46.2382 137.102 46.2382 138.082C46.2382 140.239 47.2179 142.199 49.1771 143.768C51.1364 145.336 53.2915 146.121 55.6426 146.121C59.5611 146.121 62.6959 144.748 64.8511 142.003C66.6144 139.847 67.3981 137.102 67.3981 134.161C67.3981 132.396 66.8103 130.828 65.4389 128.867C63.8715 126.514 61.9122 125.338 59.5611 125.338C58.7774 125.338 57.7978 125.534 56.6223 125.926C56.2304 125.73 55.6426 125.926 55.4467 125.926C55.0549 125.926 54.4671 125.73 54.0752 125.142C53.6834 124.75 53.2915 124.162 53.2915 123.181C53.2915 121.025 55.4467 118.672 58.9734 118.672H59.1693C61.5204 118.672 63.8715 119.848 66.2226 122.201C67.9859 123.966 69.5533 125.73 70.5329 127.691V159.845L76.6066 163.374C76.8025 163.57 76.9984 163.57 77.1944 163.57C77.9781 163.57 78.5658 162.982 78.5658 162.198V119.064H87.7743V146.905L95.0235 149.846H95.4154C96.0031 149.846 96.5909 149.258 96.7868 148.669V148.473C97.9624 140.239 101.685 134.553 107.759 131.024V132.592C107.759 133.769 107.759 136.71 107.955 138.474C107.955 139.455 107.955 140.043 108.15 140.631C108.15 143.768 108.542 148.866 109.718 152.395C111.677 159.257 115.204 160.825 117.751 161.021H117.947C119.514 161.021 120.494 160.629 121.277 159.845C121.669 159.453 122.257 158.473 122.257 157.296C122.257 155.924 122.061 154.943 121.669 154.355L121.082 153.375L119.906 153.571C118.534 153.963 118.143 153.963 118.143 153.767H117.947C117.555 153.767 117.555 153.767 117.359 153.571C116.967 153.375 116.183 152.591 115.596 150.434C115.204 148.866 115.008 146.513 115.008 145.336C115.008 136.318 116.967 129.455 119.71 127.887H119.906C120.298 127.691 120.69 127.299 120.69 126.711C120.69 126.514 120.69 126.318 120.494 126.122V125.926C119.122 123.181 116.183 121.221 112.069 120.044H111.285C108.15 120.633 104.232 122.789 99.3339 126.907C98.1583 127.887 96.9828 129.063 95.8072 130.044V118.868H123.629C124.412 118.868 125 118.28 125 117.496V114.359C124.804 113.967 124.216 113.378 123.433 113.378Z" fill="white"/>
<path d="M4.11442 175.726V178.275L6.26959 177.491L6.85737 178.079V178.863C6.85737 179.647 6.66145 180.432 6.07367 181.02C5.68182 181.608 4.89812 181.804 4.11442 181.804C3.1348 181.804 2.3511 181.412 1.76333 180.628C1.17555 180.039 0.783701 179.255 0.391851 178.275L0.979624 177.883C1.76332 180.039 2.74295 181.02 4.11442 181.02C4.7022 181.02 5.09404 180.824 5.48589 180.432C5.87774 180.039 6.07367 179.647 6.07367 179.059C6.07367 178.863 6.07368 178.667 5.87775 178.471L3.9185 179.255L3.33072 178.471V175.726H0V175.138H7.44514V175.726H4.11442Z" fill="white"/>
<path d="M8.22883 181.608V175.726H7.24921V175.138H9.79623V175.726H9.01253V181.608H8.22883Z" fill="white"/>
<path d="M13.9107 175.726V176.118C14.4985 176.118 15.0862 176.314 15.674 176.706C16.2618 177.099 16.6536 177.491 16.6536 178.079C16.6536 178.471 16.4577 178.863 16.0659 179.255C15.674 179.451 15.2822 179.647 14.8903 179.647H14.6944V178.863H15.0862C15.674 178.863 15.8699 178.667 15.8699 178.079C15.8699 177.491 15.2822 177.099 13.9107 176.902V181.608H13.127L11.9514 179.843C11.3637 179.255 10.7759 179.059 9.9922 179.059L9.79628 178.079C10.1881 177.687 11.3637 177.099 13.127 176.118V175.726H9.60034V175.138H17.0455V175.726H13.9107ZM13.127 176.902C12.7351 177.099 12.3433 177.295 12.1474 177.491L11.1677 178.471C11.5596 178.667 11.9514 179.059 12.1474 179.451C12.3433 179.647 12.7351 180.039 13.127 180.628V176.902Z" fill="white"/>
<path d="M27.0377 173.961C25.8621 173.177 24.6866 172.785 23.9029 172.785C23.1192 172.785 22.5314 172.981 21.9436 173.373C21.3558 173.765 21.1599 174.354 21.1599 175.138H21.9436V175.726H21.1599V181.412H20.3762V175.726H19.5925V175.138H20.3762C20.3762 174.158 20.7681 173.373 21.3558 172.785C21.9436 172.197 22.7273 172.001 23.7069 172.001C24.2947 172.001 24.8825 172.197 25.6662 172.393C26.058 172.589 26.6458 172.981 27.4295 173.373L27.0377 173.961Z" fill="white"/>
<path d="M27.6254 175.726V181.608H26.8417C26.4499 181.02 25.8621 180.432 24.8825 179.843C23.9029 179.255 23.1191 179.059 22.3354 179.059L22.1395 178.079C22.5314 177.687 23.3151 177.295 24.4906 176.903C24.8825 176.706 25.6662 176.51 27.0376 175.922V175.53H21.7477V174.942H28.605V175.53H27.6254V175.726ZM26.8417 176.903C26.058 177.099 24.8825 177.687 23.3151 178.471C24.6865 179.059 25.8621 179.647 26.8417 180.432V176.903Z" fill="white"/>
<path d="M28.2131 175.138H35.4624V175.726H28.2131V175.138ZM32.3276 181.608C31.5439 181.608 30.7602 181.216 29.9765 180.432C29.3887 179.843 28.9968 179.059 28.605 178.079L28.9968 177.687C29.1928 178.471 29.5846 179.255 30.1724 179.843C30.7602 180.628 31.3479 181.02 32.1316 181.02C32.7194 181.02 33.1113 180.824 33.5031 180.432C33.895 180.039 34.0909 179.647 34.0909 179.059C33.5031 179.451 33.1113 179.647 32.5235 179.647C32.1316 179.647 31.5439 179.451 31.3479 179.255C30.9561 178.863 30.7602 178.471 30.7602 178.079C30.7602 177.687 30.9561 177.295 31.152 176.902C31.3479 176.706 31.7398 176.51 32.3276 176.51C32.7194 176.51 32.9153 176.51 33.1113 176.706C33.3072 176.903 33.5031 177.099 33.5031 177.491C33.5031 177.687 33.3072 178.079 33.1113 178.275L32.5235 177.883C32.7194 177.687 32.7194 177.687 32.7194 177.491C32.7194 177.295 32.5235 177.099 32.3276 177.099C32.1316 177.099 31.9357 177.099 31.7398 177.295C31.5439 177.491 31.5439 177.687 31.5439 177.883C31.5439 178.275 31.7398 178.471 31.9357 178.667C32.1316 178.863 32.3276 179.059 32.7194 179.059C33.3072 179.059 33.895 178.863 34.2868 178.275L35.0705 179.059C35.0705 179.843 34.8746 180.628 34.2868 181.02C33.699 181.216 33.1113 181.608 32.3276 181.608Z" fill="white"/>
<path d="M36.2461 181.608V175.726H35.2665V175.138H37.8135V175.726H36.8339V181.608H36.2461Z" fill="white"/>
<path d="M40.7523 182C39.9686 182 39.3809 181.804 38.989 181.608C38.4012 181.02 38.0094 180.039 38.0094 179.059C38.0094 178.471 38.2053 177.883 38.5972 177.295C38.7931 176.902 39.1849 176.314 39.7727 175.726H37.4216V175.138H41.1442V175.726C40.5564 175.922 39.9686 176.314 39.5768 177.099C38.989 177.687 38.7931 178.471 38.7931 179.059C38.7931 180.628 39.3809 181.412 40.7523 181.412C40.9483 181.412 41.1442 181.412 41.3401 181.216V182H40.7523Z" fill="white"/>
<path d="M45.6505 175.726V181.412H44.8668V177.687C44.8668 177.491 44.6709 177.295 44.4749 177.099C44.0831 176.314 43.4953 175.922 42.7116 175.922C42.5157 175.922 42.1238 176.118 41.9279 176.314L41.5361 176.706C41.9279 176.51 42.1238 176.51 42.3198 176.51C42.7116 176.51 42.9075 176.51 43.2994 176.706C43.4953 176.903 43.6912 177.099 43.6912 177.491C43.6912 177.883 43.4953 178.275 43.1035 178.667C42.7116 179.059 42.3198 179.451 41.9279 179.451L41.5361 178.863C41.9279 178.667 42.1238 178.471 42.5157 178.275C42.9075 177.883 43.1035 177.687 43.1035 177.295C43.1035 177.099 42.9075 176.903 42.5157 176.903C42.1238 176.903 41.9279 176.706 41.732 176.706H41.5361L41.1442 175.922L41.9279 175.138C42.3198 174.942 42.5157 174.746 42.9075 174.746C43.6912 174.746 44.4749 175.138 45.0627 176.118V174.746H46.4342V175.334H45.6505V175.726Z" fill="white"/>
<path d="M52.116 175.726V181.608H51.3323C50.9405 181.02 50.3527 180.432 49.3731 180.039C48.3935 179.451 47.6097 179.255 46.826 179.255L46.6301 178.275C47.8057 177.491 49.3731 176.902 51.3323 176.118V175.726H46.2383V175.138H52.8997V175.726H52.116ZM51.3323 176.902C50.1568 177.295 48.9812 177.883 48.0016 178.471C49.1772 178.863 50.3527 179.451 51.3323 180.432V176.902ZM49.3731 181.804C49.1772 181.608 48.7853 181.216 48.1975 181.02L48.5894 180.432C48.9812 180.628 49.3731 180.824 49.7649 181.216L49.3731 181.804Z" fill="white"/>
<path d="M62.8919 173.961C61.7163 173.177 60.5408 172.785 59.7571 172.785C58.9734 172.785 58.3856 172.981 57.7978 173.373C57.21 173.765 57.0141 174.354 57.0141 175.138H57.7978V175.726H57.0141V181.412H56.2304V175.726H55.4467V175.138H56.2304C56.2304 174.158 56.6223 173.373 57.21 172.785C57.7978 172.197 58.5815 172.001 59.5611 172.001C60.1489 172.001 60.7367 172.197 61.5204 172.393C61.9122 172.589 62.5 172.981 63.2837 173.373L62.8919 173.961Z" fill="white"/>
<path d="M61.5204 175.726V178.275L63.6755 177.491L64.2633 178.079V178.863C64.2633 179.647 64.0674 180.432 63.4796 181.02C63.0878 181.608 62.3041 181.804 61.5204 181.804C60.5407 181.804 59.757 181.412 59.1693 180.628C58.5815 180.039 58.1897 179.255 57.7978 178.275L58.3856 177.883C59.1693 180.039 60.1489 181.02 61.5204 181.02C62.1081 181.02 62.5 180.824 62.8918 180.432C63.2837 180.039 63.4796 179.647 63.4796 179.059C63.4796 178.863 63.4796 178.667 63.2837 178.471L61.3244 179.255L60.5407 178.667V175.922H57.21V175.334H64.6552V175.922H61.5204V175.726Z" fill="white"/>
<path d="M72.1003 173.961C70.9247 173.177 69.7492 172.785 68.9655 172.785C68.1818 172.785 67.594 172.981 67.0062 173.373C66.4185 173.765 66.2225 174.354 66.2225 175.138H67.0062V175.726H66.2225V181.412H65.4388V175.726H64.6552V175.138H65.4388C65.4388 174.158 65.8307 173.373 66.4185 172.785C67.0062 172.197 67.7899 172.001 68.7696 172.001C69.3573 172.001 69.9451 172.197 70.7288 172.393C71.1207 172.589 71.7084 172.981 72.4921 173.373L72.1003 173.961Z" fill="white"/>
<path d="M71.5126 175.726C71.7085 176.51 72.2963 176.902 73.2759 176.902H73.6677L74.2555 177.687C73.8637 178.667 73.6677 179.255 73.6677 179.647C73.6677 180.628 73.8637 181.216 74.0596 181.608L73.4718 181.804C73.08 181.216 72.884 180.628 72.884 180.039C72.884 179.647 72.884 179.255 73.08 178.863C73.08 178.667 73.2759 178.275 73.4718 177.687C72.884 177.687 72.2963 177.491 71.9044 177.099C71.3166 176.706 71.1207 176.314 70.9248 175.726C70.1411 176.314 69.7492 176.902 69.7492 177.687C69.7492 178.079 69.9452 178.275 70.337 178.275C70.5329 178.275 70.7289 178.275 70.9248 178.079C71.1207 177.883 71.3166 177.883 71.3166 177.687H71.9044C72.1003 177.883 72.1003 178.275 72.1003 178.863C72.1003 180.432 71.3166 181.02 69.7492 181.02C69.5533 181.02 69.1615 181.02 68.7696 180.824C68.5737 180.824 68.3778 180.628 67.9859 180.432C67.79 180.039 67.3981 179.451 67.0063 178.667L67.3981 178.275C67.5941 178.863 67.9859 179.451 68.5737 180.236L69.1615 180.432C69.3574 180.628 69.5533 180.628 69.7492 180.628C70.1411 180.628 70.5329 180.432 70.9248 180.236C71.3166 180.039 71.3166 179.647 71.3166 179.255C71.3166 179.059 71.3166 178.863 71.1207 178.667C70.7289 179.059 70.337 179.255 69.9452 179.255C69.5533 179.255 69.1615 179.059 68.9655 178.863C68.7696 178.667 68.5737 178.275 68.5737 177.883C68.5737 177.295 68.7696 176.706 69.3574 176.118H66.4185V175.53H74.4514V176.118H71.5126V175.726Z" fill="white"/>
<path d="M75.8229 175.726V180.824H76.2147C76.8025 180.824 77.3903 180.628 78.174 180.235C78.9577 179.843 79.3495 179.255 79.3495 178.667C79.3495 178.079 78.9577 177.687 78.3699 177.687C78.174 177.687 77.7821 177.883 77.3903 178.079L76.9984 177.491C77.3903 177.098 77.9781 177.098 78.5658 177.098C78.9577 177.098 79.3495 177.295 79.7414 177.687C79.9373 178.079 80.1332 178.471 80.1332 178.863C80.1332 179.451 79.7414 180.039 79.1536 180.628C78.5658 181.02 77.9781 181.412 77.3903 181.412C76.8025 181.608 76.2147 181.608 75.2351 181.608V175.726H74.6473V175.138H79.1536V174.942C79.1536 174.55 78.9577 174.158 78.5658 173.962C78.174 173.765 77.7821 173.569 77.3903 173.569C76.8025 173.569 76.0188 173.765 75.2351 174.354L75.0392 173.765C76.0188 173.177 76.8025 172.981 77.5862 172.981C78.174 172.981 78.7618 173.177 79.3495 173.569C79.7414 173.962 80.1332 174.55 80.1332 175.138H80.9169V175.726H75.8229Z" fill="white"/>
<path d="M81.3088 181.608V175.726H80.3292V175.138H83.0721V175.726H82.0925V181.608H81.3088Z" fill="white"/>
<path d="M89.7335 175.726V181.608H88.9498V180.432C88.9498 179.059 88.558 178.471 87.9702 178.471C87.7743 178.471 87.5784 178.667 87.3824 178.863C87.1865 179.059 87.1865 179.255 87.1865 179.647H86.4028C86.4028 179.451 86.2069 179.059 86.2069 178.863C86.011 178.667 85.815 178.471 85.4232 178.471C85.0313 178.471 84.8354 178.667 84.6395 178.863C84.4436 179.059 84.4436 179.451 84.4436 179.647C84.4436 180.432 84.8354 180.628 85.815 180.628H86.011L85.815 181.412H85.6191C85.0313 181.412 84.6395 181.216 84.2476 180.824C83.8558 180.432 83.6599 180.039 83.6599 179.451C83.6599 178.863 83.8558 178.471 84.2476 178.079C84.6395 177.687 85.0313 177.491 85.6191 177.491C86.2069 177.491 86.5987 177.883 86.9906 178.471C87.3824 177.883 87.9702 177.491 88.3621 177.491C88.7539 177.491 89.1458 177.883 89.3417 178.471V175.922H83.0721V175.334H90.7132V175.922H89.7335V175.726Z" fill="white"/>
<path d="M94.2398 179.059C94.2398 179.451 94.2398 179.843 94.4357 180.236C94.6316 180.824 95.0235 181.02 95.4153 181.02C95.6112 181.02 95.8072 181.02 96.0031 180.824L96.199 181.412C96.0031 181.608 95.6112 181.608 95.4153 181.608C94.2398 181.608 93.4561 180.628 93.4561 178.667C93.4561 177.491 94.2398 176.314 95.6112 175.138H96.7868V175.726C96.0031 175.922 95.4153 176.314 95.0235 176.902C94.4357 177.491 94.2398 178.275 94.2398 179.059Z" fill="white"/>
<path d="M103.252 175.726V181.608H102.469V180.432C102.469 179.059 102.077 178.471 101.489 178.471C101.293 178.471 101.097 178.667 100.901 178.863C100.705 179.059 100.705 179.255 100.705 179.647H99.9217C99.9217 179.451 99.7257 179.059 99.7257 178.863C99.5298 178.667 99.3339 178.471 98.942 178.471C98.5502 178.471 98.3543 178.667 98.1583 178.863C97.9624 179.059 97.9624 179.451 97.9624 179.647C97.9624 180.432 98.3543 180.628 99.3339 180.628H99.5298L99.3339 181.412H99.138C98.5502 181.412 98.1583 181.216 97.7665 180.824C97.3746 180.432 97.1787 180.039 97.1787 179.451C97.1787 178.863 97.3746 178.471 97.7665 178.079C98.1583 177.687 98.5502 177.491 99.138 177.491C99.7257 177.491 100.118 177.883 100.509 178.471C100.901 177.883 101.489 177.491 101.881 177.491C102.273 177.491 102.665 177.883 102.861 178.471V175.922H96.5909V175.334H104.232V175.922H103.252V175.726Z" fill="white"/>
<path d="M109.718 175.726V181.608H108.934V181.216C108.934 180.628 108.542 180.039 107.955 179.451C107.367 178.863 106.583 178.471 106.191 178.471C105.995 178.471 105.603 178.471 105.408 178.667C105.212 178.863 105.016 179.059 105.016 179.255C105.016 179.451 105.016 179.843 105.212 179.843C105.408 180.039 105.603 180.039 105.995 180.039C106.191 180.039 106.387 180.039 106.583 179.843L106.779 180.628C106.583 180.824 106.191 180.824 105.799 180.824C105.408 180.824 105.016 180.628 104.624 180.236C104.428 179.843 104.232 179.451 104.232 179.059C104.232 178.471 104.428 178.079 104.624 177.883C105.016 177.491 105.408 177.295 105.799 177.295C106.975 177.295 107.955 177.883 108.738 179.255V175.53H103.448V174.942H110.11V175.53H109.718V175.726Z" fill="white"/>
<path d="M113.245 182C112.461 182 111.873 181.804 111.481 181.608C110.893 181.02 110.502 180.039 110.502 179.059C110.502 178.471 110.698 177.883 111.089 177.295C111.285 176.902 111.677 176.314 112.265 175.726H109.914V175.138H113.636V175.726C113.049 175.922 112.461 176.314 112.069 177.099C111.481 177.687 111.285 178.471 111.285 179.059C111.285 180.628 111.873 181.412 113.245 181.412C113.44 181.412 113.636 181.412 113.832 181.216V182H113.245Z" fill="white"/>
<path d="M114.028 175.726V178.275C115.204 177.491 116.183 176.903 116.967 176.706L117.751 177.687C117.359 178.667 117.163 179.255 117.163 179.843C117.163 180.236 117.359 180.824 117.555 181.412L116.967 181.608C116.771 180.824 116.575 180.432 116.575 180.039C116.575 179.255 116.575 178.471 116.771 177.687C115.987 178.079 115.008 178.667 113.832 179.647L113.245 179.059V175.726H112.657V175.138H118.339V175.726H114.028Z" fill="white"/>
<path d="M124.02 175.726V181.608H123.237V181.216C123.237 180.628 122.845 180.039 122.257 179.451C121.669 178.863 120.886 178.471 120.494 178.471C120.298 178.471 119.906 178.471 119.71 178.667C119.514 178.863 119.318 179.059 119.318 179.255C119.318 179.451 119.318 179.843 119.514 179.843C119.71 180.039 119.906 180.039 120.298 180.039C120.494 180.039 120.69 180.039 120.886 179.843L121.082 180.628C120.886 180.824 120.494 180.824 120.102 180.824C119.71 180.824 119.318 180.628 118.926 180.236C118.534 179.843 118.534 179.451 118.534 179.059C118.534 178.471 118.73 178.079 118.926 177.883C119.318 177.491 119.71 177.295 120.102 177.295C121.277 177.295 122.257 177.883 123.041 179.255V175.53H117.751V174.942H124.412V175.53H124.02V175.726Z" fill="white"/>
</svg>
