<svg width="14" height="14" viewBox="0 0 14 14" fill="none" xmlns="http://www.w3.org/2000/svg">
<path d="M10.4539 13.125C10.4537 12.893 10.3614 12.6706 10.1973 12.5067L5.72192 8.03132C5.58646 7.8959 5.479 7.73512 5.40569 7.55816C5.33238 7.3812 5.29465 7.19153 5.29465 6.99999C5.29465 6.80845 5.33238 6.61878 5.40569 6.44182C5.479 6.26486 5.58646 6.10408 5.72192 5.96866L10.1914 1.49624C10.3508 1.33121 10.439 1.11019 10.437 0.880763C10.435 0.651341 10.343 0.43188 10.1808 0.269648C10.0185 0.107416 9.79907 0.0153934 9.56964 0.0133998C9.34022 0.0114062 9.1192 0.0996013 8.95417 0.25899L4.48467 4.72791C3.8837 5.33006 3.54618 6.14604 3.54618 6.99678C3.54618 7.84752 3.8837 8.6635 4.48467 9.26566L8.96 13.741C9.0822 13.8633 9.23788 13.9466 9.40739 13.9805C9.57691 14.0144 9.75266 13.9973 9.91248 13.9314C10.0723 13.8655 10.209 13.7537 10.3054 13.6102C10.4017 13.4667 10.4534 13.2979 10.4539 13.125Z" fill="black"/>
</svg>
