<svg width="25" height="21" viewBox="0 0 25 21" fill="none" xmlns="http://www.w3.org/2000/svg">
<path d="M0.831749 3.72721C1.3308 3.2044 2.01996 2.89546 2.80418 2.89546H6.74905V2.84793C6.74905 2.25383 6.98669 1.68348 7.39068 1.30326C7.79468 0.899264 8.34126 0.661621 8.93536 0.661621H16.0646C16.6825 0.661621 17.2291 0.899264 17.6331 1.30326C18.0371 1.70725 18.2747 2.25383 18.2747 2.84793V2.89546H22.1958C22.98 2.89546 23.6692 3.2044 24.1683 3.72721C24.6673 4.22626 25 4.93919 25 5.69964V17.5342C25 18.3185 24.6911 19.0076 24.1683 19.5067C23.6692 20.0057 22.9563 20.3384 22.1958 20.3384H2.80418C2.01996 20.3384 1.3308 20.0295 0.831749 19.5067C0.332701 19.0076 0 18.2947 0 17.5342V5.69964C0 4.91542 0.308935 4.22626 0.831749 3.72721ZM1.23574 17.5342H1.25951C1.25951 17.962 1.42586 18.3422 1.71103 18.6274C1.9962 18.9126 2.37642 19.0789 2.80418 19.0789H22.1958C22.6236 19.0789 23.0038 18.9126 23.289 18.6274C23.5741 18.3422 23.7405 17.962 23.7405 17.5342V5.69964C23.7405 5.27189 23.5741 4.89166 23.289 4.60649C23.0038 4.32132 22.6236 4.15497 22.1958 4.15497H17.6093C17.2529 4.15497 16.9677 3.8698 16.9677 3.51333V2.82417C16.9677 2.56276 16.8726 2.32512 16.7063 2.15877C16.5399 1.99242 16.3023 1.89736 16.0409 1.89736H8.93536C8.67395 1.89736 8.43631 1.99242 8.26996 2.15877C8.10361 2.32512 8.00855 2.56276 8.00855 2.82417V3.51333C8.00855 3.8698 7.72338 4.15497 7.36692 4.15497H2.78042C2.35266 4.15497 1.97243 4.32132 1.68726 4.60649C1.40209 4.89166 1.23574 5.27189 1.23574 5.69964V17.5342Z" fill="white"/>
<path d="M12.5002 5.771C14.1162 5.771 15.5895 6.4364 16.6352 7.48202C17.7046 8.55141 18.3462 10.001 18.3462 11.617C18.3462 13.233 17.6808 14.7064 16.6352 15.752C15.5658 16.8214 14.1162 17.463 12.5002 17.463C10.8842 17.463 9.41083 16.7976 8.3652 15.752C7.29581 14.6826 6.65418 13.233 6.65418 11.617C6.65418 10.001 7.31958 8.52765 8.3652 7.48202C9.41083 6.4364 10.8842 5.771 12.5002 5.771ZM9.26825 14.8727C10.1 15.6807 11.2407 16.2035 12.5002 16.2035C13.7597 16.2035 14.9004 15.6807 15.7321 14.8727C16.5639 14.041 17.0629 12.9003 17.0629 11.6408C17.0629 10.3813 16.5401 9.24058 15.7321 8.40883C14.9004 7.57708 13.7597 7.07803 12.5002 7.07803C11.2407 7.07803 10.1 7.60084 9.26825 8.40883C8.4365 9.24058 7.93745 10.3813 7.93745 11.6408C7.91368 12.9003 8.4365 14.041 9.26825 14.8727Z" fill="white"/>
<path d="M4.04014 8.07609C3.39704 8.07609 2.87569 7.55475 2.87569 6.91164C2.87569 6.26853 3.39704 5.74719 4.04014 5.74719C4.68325 5.74719 5.20459 6.26853 5.20459 6.91164C5.20459 7.55475 4.68325 8.07609 4.04014 8.07609Z" fill="white"/>
</svg>
