<svg width="12" height="12" viewBox="0 0 12 12" fill="none" xmlns="http://www.w3.org/2000/svg">
<path d="M0 9.50017V12H2.49983L9.87262 4.62722L7.37278 2.12738L0 9.50017ZM11.8054 2.69186C11.8671 2.63017 11.916 2.55694 11.9494 2.47634C11.9828 2.39574 12 2.30935 12 2.2221C12 2.13486 11.9828 2.04847 11.9494 1.96787C11.916 1.88727 11.8671 1.81403 11.8054 1.75235L10.24 0.194589C10.1783 0.132897 10.1051 0.0839601 10.0244 0.0505724C9.94385 0.0171846 9.85746 0 9.77022 0C9.68297 0 9.59658 0.0171846 9.51598 0.0505724C9.43538 0.0839601 9.36215 0.132897 9.30046 0.194589L8.08062 1.41443L10.5856 3.91298L11.8054 2.69314V2.69186Z" fill="white"/>
</svg>
