<svg width="14" height="14" viewBox="0 0 14 14" fill="none" xmlns="http://www.w3.org/2000/svg">
<path d="M3.54608 13.125C3.54629 12.893 3.63861 12.6706 3.80275 12.5067L8.27808 8.03132C8.41354 7.8959 8.521 7.73512 8.59431 7.55816C8.66762 7.3812 8.70535 7.19153 8.70535 6.99999C8.70535 6.80845 8.66762 6.61878 8.59431 6.44182C8.521 6.26486 8.41354 6.10408 8.27808 5.96866L3.80858 1.49624C3.64919 1.33121 3.561 1.11019 3.56299 0.880763C3.56499 0.651341 3.65701 0.43188 3.81924 0.269648C3.98147 0.107416 4.20093 0.0153934 4.43036 0.0133998C4.65978 0.0114062 4.8808 0.0996013 5.04583 0.25899L9.51533 4.72791C10.1163 5.33006 10.4538 6.14604 10.4538 6.99678C10.4538 7.84752 10.1163 8.6635 9.51533 9.26566L5.04 13.741C4.9178 13.8633 4.76212 13.9466 4.59261 13.9805C4.42309 14.0144 4.24734 13.9973 4.08752 13.9314C3.92771 13.8655 3.79099 13.7537 3.69463 13.6102C3.59827 13.4667 3.54658 13.2979 3.54608 13.125Z" fill="#6E6E6E"/>
</svg>
