<svg width="45" height="45" viewBox="0 0 45 45" fill="none" xmlns="http://www.w3.org/2000/svg">
<circle cx="22.5" cy="22.5" r="22.5" fill="#B2B2B2"/>
<g clip-path="url(#clip0_10_4871)">
<path d="M22.5 0.00100708C10.0749 0.00100708 0 10.0739 0 22.5C0 34.9261 10.0739 44.999 22.5 44.999C34.9271 44.999 45 34.9261 45 22.5C45 10.0739 34.9271 0.00100708 22.5 0.00100708ZM22.5 6.72847C26.6114 6.72847 29.943 10.0611 29.943 14.1705C29.943 18.2809 26.6114 21.6125 22.5 21.6125C18.3906 21.6125 15.059 18.2809 15.059 14.1705C15.059 10.0611 18.3906 6.72847 22.5 6.72847ZM22.4951 39.1166C18.3945 39.1166 14.6389 37.6232 11.7422 35.1515C11.0365 34.5496 10.6293 33.667 10.6293 32.7409C10.6293 28.5732 14.0025 25.2377 18.1712 25.2377H26.8308C31.0005 25.2377 34.3608 28.5732 34.3608 32.7409C34.3608 33.668 33.9556 34.5486 33.2489 35.1505C30.3532 37.6232 26.5966 39.1166 22.4951 39.1166Z" fill="#EAEAEA"/>
</g>
<defs>
<clipPath id="clip0_10_4871">
<rect width="45" height="45" fill="white"/>
</clipPath>
</defs>
</svg>
