<svg width="25" height="25" viewBox="0 0 25 25" fill="none" xmlns="http://www.w3.org/2000/svg">
<path d="M22.4292 13.2993C22.4292 13.62 22.4292 13.8949 22.3831 14.2157C22.291 15.5443 21.9226 16.7813 21.4159 17.9267C21.1857 18.3849 20.9554 18.8431 20.6791 19.2554C18.6987 22.3709 15.1984 24.4784 11.1916 24.4784C9.48749 24.4784 7.87554 24.1119 6.40176 23.4247C2.62518 21.6378 0 17.7893 0 13.2993C0 8.94682 2.53307 5.1441 6.21753 3.31146C5.9412 3.67799 5.66486 4.09033 5.43458 4.50268C5.43458 4.54849 5.38853 4.54849 5.38853 4.59431C5.25036 4.73176 5.11219 4.82339 4.97403 4.96084C4.7898 5.09828 4.65164 5.28155 4.46741 5.46481C4.42136 5.51063 4.3753 5.55644 4.3753 5.60226C4.32925 5.64807 4.28319 5.69389 4.28319 5.73971L4.09897 5.92297C3.9608 6.06042 3.86869 6.19787 3.77658 6.33531C3.31602 6.93092 2.94757 7.61816 2.62518 8.3054C2.57912 8.39703 2.57912 8.44285 2.53307 8.53448C2.48701 8.62611 2.48701 8.71774 2.44096 8.76356C2.30279 8.85519 2.30279 8.90101 2.30279 8.94682L2.16462 9.35916C2.11857 9.4508 2.11857 9.54243 2.07251 9.63406C2.07251 9.67988 2.02646 9.72569 2.02646 9.77151C2.02646 9.86314 1.9804 9.95477 1.9804 10.0464C1.93434 10.2755 1.84223 10.5504 1.84223 10.8253C1.84223 10.9169 1.84223 10.9627 1.79618 11.0544V12.1998C1.79618 15.2236 3.17785 17.9267 5.38853 19.7136C7.09259 21.088 9.25722 21.9127 11.6061 21.9127C13.7246 21.9127 15.705 21.2255 17.317 20.0801C18.5144 19.2554 19.4816 18.1558 20.1724 16.873C20.2646 16.6897 20.3567 16.5523 20.4488 16.369C21.0014 15.1778 21.3238 13.8949 21.3699 12.5205V12.1998C21.3699 11.879 21.3699 11.5583 21.3238 11.2376L21.3699 11.2834C21.5081 11.4209 21.6462 11.5583 21.8305 11.65C21.9686 11.4209 22.1068 11.1918 22.291 11.0085C22.3831 11.4209 22.4292 11.879 22.4752 12.2914C22.3831 12.6579 22.4292 12.9786 22.4292 13.2993Z" fill="#6E6E6E"/>
<path d="M21.3238 12.1998V12.5205C21.3238 14.4906 20.4948 16.1399 20.4027 16.369C20.3106 16.5523 20.2185 16.6897 20.1264 16.873C19.4356 18.1558 18.4223 19.2554 17.2709 20.0801C15.659 21.2255 13.6786 21.9127 11.56 21.9127C9.21116 21.9127 7.04654 21.0881 5.34247 19.7136C3.1318 17.9268 1.75012 15.2236 1.75012 12.1998V11.0544C1.75012 10.9627 1.75012 10.9169 1.79618 10.8253C1.84223 10.5504 1.93435 10.2755 1.9804 10.0006C1.9804 9.90897 2.02646 9.81734 2.02646 9.7257C2.02646 9.67989 2.07251 9.63407 2.07251 9.58826C2.11857 9.49662 2.11857 9.40499 2.16462 9.31336C2.21068 9.17591 2.25674 9.08428 2.30279 8.94683C2.30279 8.90102 2.34885 8.8552 2.34885 8.80939C2.3949 8.71775 2.3949 8.62612 2.44096 8.58031C2.48701 8.48867 2.48701 8.44286 2.53307 8.35123C2.85546 7.61817 3.22391 6.97675 3.68447 6.38114C3.77658 6.24369 3.91474 6.10625 4.00686 5.9688C4.05291 5.92298 4.09897 5.83135 4.19108 5.78553C4.23714 5.73972 4.23714 5.6939 4.28319 5.64809C4.32925 5.60227 4.3753 5.55646 4.3753 5.51064C4.51347 5.32738 4.69769 5.18993 4.88192 5.00666C5.02008 4.86922 5.15825 4.73177 5.29642 4.64014C5.29642 4.68595 5.25036 4.73177 5.25036 4.73177C5.25036 4.77758 5.20431 4.8234 5.20431 4.86922C4.65164 6.01461 4.28319 7.34328 4.14502 8.80939C4.09897 9.17591 4.09897 9.58826 4.09897 10.0006C4.09897 15.0862 7.0926 19.2096 10.8231 19.2096H11.2376C11.7903 19.2096 12.2969 19.118 12.8035 18.9805C15.3366 18.2933 17.1788 16.0025 17.1788 13.2993V13.1161C17.1328 11.5125 16.4419 10.0464 15.3366 9.03847C16.1195 9.03847 16.8564 9.17591 17.5473 9.35918C18.9289 9.7257 20.1724 10.3671 21.2317 11.1918L21.2778 11.2376C21.2778 11.5583 21.3238 11.8791 21.3238 12.1998Z" fill="#6E6E6E"/>
<path d="M21.3239 12.1998V12.5205C21.3239 14.628 20.4028 16.369 20.4028 16.4148C20.3106 16.5981 20.2185 16.7356 20.1264 16.9188C19.4356 18.2017 18.4224 19.3013 17.271 20.1718C15.613 21.363 13.5865 22.0044 11.514 22.0044C9.25725 22.0044 7.04657 21.2255 5.29645 19.8052C2.99366 17.9268 1.7041 15.1778 1.7041 12.2456C1.7041 9.31338 3.03972 6.51861 5.34251 4.64015L5.43462 4.54852C5.43462 4.59434 5.38857 4.59434 5.38857 4.64015C5.38857 4.68597 5.34251 4.73179 5.34251 4.73179C3.08578 6.56442 1.84227 9.31338 1.84227 12.1998C1.84227 15.132 3.13183 17.8351 5.43462 19.7136C7.09263 21.1339 9.25725 21.9128 11.514 21.9128C13.5865 21.9128 15.5208 21.2713 17.2249 20.0801C18.3763 19.2554 19.3895 18.11 20.0804 16.873C20.1725 16.6897 20.2646 16.5523 20.3567 16.369C20.3567 16.369 21.3239 14.5822 21.2778 12.5205V12.1998C21.2778 11.8791 21.2778 11.5584 21.2318 11.2835V11.2376L21.2778 11.2835L21.3239 11.3293V12.1998Z" fill="#6E6E6E"/>
<path d="M18.6526 6.15207C18.6526 6.15207 10.6388 4.64014 6.90833 11.5583C6.90833 11.5583 7.55311 6.79349 13.264 4.59433L12.1126 2.4868C12.1126 2.4868 14.4154 0.425079 18.4223 0.97487L18.6526 6.15207Z" fill="#6E6E6E"/>
<path d="M8.75061 9.81735C8.75061 9.81735 11.9285 5.6481 19.2513 6.74768L19.1592 4.31943C19.1592 4.31943 22.1989 4.2278 24.6859 6.33533L21.6462 10.9169C21.6462 10.9169 19.5737 8.48868 15.2445 8.44287C13.4483 8.39705 11.2837 8.62613 8.75061 9.81735Z" fill="#6E6E6E"/>
<path d="M10.4547 11.4209C10.4547 11.4209 9.76389 11.5583 9.80994 11.2376C9.80994 11.1001 9.90206 11.0543 9.94811 11.1001C9.94811 11.0543 9.80994 10.8711 10.1323 10.7794C10.2244 10.642 10.3166 10.5045 10.3626 10.4129C10.4087 10.3213 10.4547 10.1838 10.7311 10.2755C11.0074 10.3213 11.2837 10.5962 11.3298 10.6878C11.468 10.6878 11.6522 10.7336 11.6061 10.7336L11.514 10.8252C11.514 10.8252 11.6061 10.8711 11.3298 10.8711C11.3298 10.9169 11.3758 10.9627 11.4219 10.9627C11.468 11.0085 11.4219 11.0085 11.4219 11.0543C11.4219 11.0543 11.468 11.1918 11.3298 11.146C11.1916 11.1001 11.1916 11.0543 11.1456 11.0543C11.0995 11.0543 11.0074 11.0543 11.0074 11.1001C11.0074 11.146 11.1456 11.2376 11.0074 11.2376C10.9613 11.2834 11.0535 11.3292 11.0074 11.3292C10.9613 11.375 10.6389 11.6041 10.5008 11.6499C10.3626 11.6499 10.3166 11.6041 10.3166 11.5583C10.3166 11.5125 10.4087 11.4667 10.5008 11.4667C10.4547 11.4667 10.5008 11.4209 10.4547 11.4209Z" fill="#6E6E6E"/>
<path d="M10.4086 12.1539C10.3625 12.1539 10.1322 12.0165 10.2704 11.9706C10.3625 11.879 10.8231 11.6041 10.9152 11.5583C11.0073 11.5125 11.1455 11.6499 11.0073 11.7416C10.8691 11.879 10.4086 12.1539 10.4086 12.1539Z" fill="#6E6E6E"/>
<path d="M11.0995 11.8332C11.0995 11.7416 11.1916 11.4667 11.1916 11.4209C11.1916 11.375 11.4219 11.3292 11.3758 11.6041C11.2837 11.8332 11.0995 11.9248 11.0995 11.8332Z" fill="#6E6E6E"/>
<path d="M11.4218 11.2834C11.4218 11.2834 12.7114 11.2376 12.8035 11.2834C12.8956 11.3292 13.3562 12.0165 13.218 12.6121C13.1259 13.2077 12.9417 13.3451 12.1127 13.4368C12.1127 13.2535 12.0666 12.7495 11.9745 12.6121C11.8824 12.4746 11.606 12.1539 11.5139 12.1539C11.5139 12.2914 11.4679 12.7037 11.4679 12.7037C11.4679 12.7037 11.0534 12.7495 11.0073 12.6579V12.0165C11.0073 12.0165 11.3758 11.6958 11.4218 11.6041C11.4679 11.65 11.5139 11.8332 11.9284 11.7874C11.9284 11.8332 11.4218 11.879 11.4218 11.2834Z" fill="#6E6E6E"/>
<path d="M10.9153 11.879C10.9153 11.879 10.5008 12.1997 10.4087 12.2914C10.3626 12.383 10.3166 12.7495 10.8232 12.7495C10.9153 12.5205 10.9153 11.879 10.9153 11.879Z" fill="#6E6E6E"/>
<path d="M9.94805 12.383C9.80989 12.383 9.71777 12.3372 9.71777 12.2456C9.71777 12.154 9.902 12.0165 10.0402 12.0623C10.1323 12.1081 10.3626 12.154 10.3626 12.5663C10.4547 12.6579 10.6849 12.8412 11.0073 12.8412C11.3297 12.8412 11.5139 12.8412 11.5139 12.9328V13.5284C11.5139 13.5284 11.1455 13.5284 10.2244 12.887C10.1323 12.7954 10.0862 12.7037 10.0862 12.5663C10.0862 12.4289 9.99411 12.383 9.94805 12.383Z" fill="#6E6E6E"/>
<path d="M9.67168 12.4288C9.53351 12.4288 9.07295 12.7954 9.39534 12.9328L9.57957 12.7495C9.57957 12.7495 9.48745 12.9786 9.67168 13.0244C9.8559 13.0703 9.76379 12.9328 9.8559 12.9328C9.90196 13.0244 9.90196 13.0703 9.99407 13.0703C10.0862 13.0703 10.0862 12.7954 9.99407 12.6579C9.94801 12.5205 9.8559 12.4288 9.67168 12.4288Z" fill="#6E6E6E"/>
<path d="M11.6061 12.4747V13.6659C11.6061 13.6659 11.9745 13.5284 12.0206 13.4368C12.0206 13.2535 11.9285 12.4747 11.6061 12.4747Z" fill="#6E6E6E"/>
<path d="M10.6389 13.2535C10.6389 13.2535 11.0995 13.5743 11.3758 13.6659C11.3298 13.7117 11.1455 13.9866 11.0534 13.9408C11.0074 13.9408 10.685 13.4826 10.6389 13.2535Z" fill="#6E6E6E"/>
<path d="M8.3822 13.7117H9.02698V13.9407H8.42826L8.3822 13.7117Z" fill="#6E6E6E"/>
<path d="M15.2444 13.5742H12.6193L13.0338 13.8949H15.2444V13.5742Z" fill="#6E6E6E"/>
<path d="M12.1126 13.5742C12.1587 13.5284 12.4811 13.7575 12.389 13.8033C12.2969 13.8491 11.4678 14.1698 11.4218 14.1698C11.3297 14.124 11.3757 13.9407 11.4678 13.8949C11.5139 13.8491 11.9745 13.7116 12.1126 13.5742Z" fill="#6E6E6E"/>
<path d="M11.1916 14.124C11.0995 14.0782 10.5928 14.5821 10.8231 14.628C11.0534 14.6738 11.6061 14.7654 11.7442 14.857C11.8824 14.8112 11.9745 14.6738 11.9745 14.628C12.0666 14.628 12.2048 14.7654 12.343 14.7196C12.4811 14.6738 13.1259 14.2156 13.1259 14.124C12.9877 14.0324 12.7114 13.8491 12.5732 13.8491C12.4811 13.8033 11.6521 14.3072 11.1916 14.124Z" fill="#6E6E6E"/>
<path d="M10.9152 14.7655C10.9613 14.7655 11.6521 14.9945 11.7903 14.9945C11.9745 14.9487 11.9745 14.8113 12.0666 14.8113C12.1587 14.8113 12.2048 14.9029 12.343 14.8113C12.4811 14.7196 12.8035 14.4447 12.8496 14.3989C12.8496 14.4906 12.8496 14.7655 12.2508 15.0403C11.6521 15.3152 10.2244 15.7276 10.1783 15.9109C10.2244 15.9109 10.4086 15.865 10.5468 15.8192C10.6389 15.865 10.7771 16.0483 10.731 16.369C10.6849 16.6897 10.4547 17.1937 10.4547 17.3311V18.2016C10.4547 18.2475 10.5928 18.6598 10.4086 18.614C10.2244 18.5682 10.1323 18.5682 10.0402 18.614C9.94806 18.614 9.80989 18.7514 9.71778 18.7056C9.57961 18.7056 9.39539 18.614 9.39539 18.5682C9.39539 18.5224 9.53355 18.5224 9.67172 18.4765C9.80989 18.4307 9.85594 18.2933 10.0862 18.2016C10.0862 18.0642 9.99411 16.9188 9.99411 16.6897C9.99411 16.4606 9.902 15.9567 10.0402 15.7734C10.1323 15.4985 10.6849 14.7196 10.9152 14.7655Z" fill="#6E6E6E"/>
<path d="M11.7903 15.4068C11.7903 15.4985 12.2048 16.5064 12.389 16.5064C12.5732 16.5064 14.2773 16.1399 14.5997 16.2773C14.6918 16.4148 14.876 16.6439 14.876 16.7813C14.876 16.7813 14.9221 17.102 14.876 17.1478C14.9221 17.1478 15.0602 17.102 15.1063 17.0104C15.1524 16.9188 15.1063 16.4606 15.1063 16.369C15.1063 16.2773 15.3366 15.865 15.0602 15.9108C14.7839 15.9108 14.001 15.9108 13.7246 15.865C13.4943 15.8192 12.8956 15.6817 12.7575 15.7734C12.6193 15.865 12.4351 16.0941 12.4351 16.1399C12.389 16.1399 12.343 16.0941 12.4351 15.9108C12.4811 15.7275 12.7114 15.2236 12.6653 14.9487C12.5272 14.9945 11.7903 15.4068 11.7903 15.4068Z" fill="#6E6E6E"/>
<path d="M10.8232 13.8033C10.8232 13.8491 10.8692 13.9408 10.9153 13.9866L9.57966 13.895C9.57966 13.895 9.44149 13.8033 9.48755 13.7575L10.8232 13.8033Z" fill="#6E6E6E"/>
<path d="M9.34938 13.7117H10.685C10.685 13.7117 10.5929 13.5742 10.5468 13.4826H9.30333C9.30333 13.4826 9.16516 13.4826 9.16516 13.7575C9.16516 13.8033 9.25727 13.8949 9.34938 13.7117Z" fill="#6E6E6E"/>
<path d="M8.05981 13.9407H8.33615C8.33615 13.9407 8.42826 13.8949 8.33615 13.8033C8.24404 13.7117 8.05981 13.62 8.19798 13.4368C8.05981 13.4368 7.87559 13.3909 7.92165 13.8033H7.78348C7.78348 13.8033 7.73742 13.5742 7.41503 13.5742C7.09264 13.5742 6.30969 13.8949 6.30969 13.8949C6.30969 13.8949 7.18475 14.124 7.41503 14.124C7.64531 14.124 7.78348 13.8949 7.78348 13.8949H7.87559C7.87559 13.8949 7.92165 14.0782 7.9677 14.124V14.3989C7.9677 14.3989 7.82953 14.4447 7.87559 14.5822C7.87559 14.7196 7.9677 14.7196 8.01376 14.7196C8.05981 14.7196 8.05981 14.6738 8.19798 14.6738C8.24404 14.628 8.19798 14.4447 8.10587 14.3989V14.2156C8.10587 14.2156 8.19798 14.124 8.19798 14.0782C8.15192 13.9865 8.05981 14.0324 8.05981 13.9407Z" fill="#6E6E6E"/>
<path d="M9.67167 15.2236C9.76378 15.1778 9.80984 15.0403 9.80984 15.0403V14.2614C9.80984 14.0782 9.48745 13.9407 9.44139 13.9407C9.39534 13.9866 9.30323 14.0324 9.25717 14.0324C9.16506 14.0324 9.119 14.0324 9.02689 13.9407C8.75056 13.9407 8.61239 14.2614 8.61239 14.3073C8.61239 14.3531 8.56633 14.9487 8.61239 15.0403C8.61239 15.1319 8.7045 15.2236 8.75056 15.2694C8.7045 15.4527 8.42816 16.5064 8.79661 16.6439V16.8271H9.71773V16.6439C9.99406 16.4148 9.76378 15.4985 9.67167 15.2236ZM8.61239 14.2614C8.61239 14.2156 8.75056 13.9866 8.93478 13.9866C9.02689 14.0782 9.119 14.0782 9.21111 14.0782C9.30322 14.0782 9.39534 13.9866 9.44139 13.9866C9.5335 14.0324 9.71773 14.124 9.71773 14.2614V15.0403C9.71773 15.0861 9.67167 15.1319 9.62562 15.1778H9.44139V14.8112H8.84267V15.1319H8.7045C8.65844 15.0861 8.61239 15.0403 8.61239 14.9487V14.2614ZM9.25717 16.4148H9.07295C9.02689 16.4148 8.98083 16.369 8.98083 16.3232C8.98083 16.2773 9.02689 16.2315 9.07295 16.2315H9.25717C9.30323 16.2315 9.34928 16.2773 9.34928 16.3232C9.34928 16.369 9.30323 16.4148 9.25717 16.4148ZM9.62562 16.5064L9.16506 16.0025L8.75056 16.5064C8.47422 16.4148 8.65844 15.5901 8.75056 15.2236H9.62562C9.71773 15.5901 9.85589 16.369 9.62562 16.5064Z" fill="#6E6E6E"/>
<path d="M9.48749 15.5902C9.57961 15.4527 9.44144 15.3611 9.44144 15.3611H8.88877C8.70454 15.3611 8.7506 15.5902 8.7506 15.5902L9.07299 15.8651C9.1651 15.8651 9.39538 15.7276 9.48749 15.5902Z" fill="#6E6E6E"/>
<path d="M9.2572 15.9108L9.57959 16.2774C9.57959 16.2774 9.53354 15.8192 9.53354 15.6818C9.48748 15.7276 9.2572 15.9108 9.2572 15.9108Z" fill="#6E6E6E"/>
<path d="M8.79667 15.6818C8.79667 15.8192 8.75061 16.2774 8.75061 16.2774L9.073 15.9108C9.073 15.9108 8.88878 15.7276 8.79667 15.6818Z" fill="#6E6E6E"/>
<path d="M9.44146 14.7201H9.48752V14.674C9.48752 14.628 9.44146 14.628 9.44146 14.628H8.93485C8.88879 14.628 8.88879 14.674 8.88879 14.674V14.7201H8.93485H9.44146Z" fill="#6E6E6E"/>
<path d="M8.7045 16.8271H8.65845V16.8732C8.65845 16.9193 8.7045 16.9193 8.7045 16.9193H9.62562C9.67168 16.9193 9.67168 16.8732 9.67168 16.8732V16.8271H9.62562H8.7045Z" fill="#6E6E6E"/>
<path d="M5.61884 13.5742C5.61884 13.5742 1.98043 5.64807 10.4547 0.5625L12.4812 4.27359C12.4812 4.27359 11.0995 4.73175 9.6257 6.0146C8.01374 7.38907 6.30968 9.67987 5.61884 13.5742Z" fill="#6E6E6E"/>
</svg>
