<svg width="23" height="22" viewBox="0 0 23 22" fill="none" xmlns="http://www.w3.org/2000/svg">
<path d="M22.4292 10.2993C22.4292 10.62 22.4292 10.8949 22.3831 11.2157C22.291 12.5443 21.9226 13.7813 21.4159 14.9267C21.1857 15.3849 20.9554 15.8431 20.6791 16.2554C18.6987 19.3709 15.1984 21.4784 11.1916 21.4784C9.48749 21.4784 7.87554 21.1119 6.40176 20.4247C2.62518 18.6378 0 14.7893 0 10.2993C0 5.94682 2.53307 2.1441 6.21753 0.311462C5.9412 0.67799 5.66486 1.09033 5.43458 1.50268C5.43458 1.54849 5.38853 1.54849 5.38853 1.59431C5.25036 1.73176 5.11219 1.82339 4.97403 1.96084C4.7898 2.09828 4.65164 2.28155 4.46741 2.46481C4.42136 2.51063 4.3753 2.55644 4.3753 2.60226C4.32925 2.64807 4.28319 2.69389 4.28319 2.73971L4.09897 2.92297C3.9608 3.06042 3.86869 3.19787 3.77658 3.33531C3.31602 3.93092 2.94757 4.61816 2.62518 5.3054C2.57912 5.39703 2.57912 5.44285 2.53307 5.53448C2.48701 5.62611 2.48701 5.71774 2.44096 5.76356C2.30279 5.85519 2.30279 5.90101 2.30279 5.94682L2.16462 6.35916C2.11857 6.4508 2.11857 6.54243 2.07251 6.63406C2.07251 6.67988 2.02646 6.72569 2.02646 6.77151C2.02646 6.86314 1.9804 6.95477 1.9804 7.0464C1.93434 7.27548 1.84223 7.55038 1.84223 7.82527C1.84223 7.91691 1.84223 7.96272 1.79618 8.05435V9.19975C1.79618 12.2236 3.17785 14.9267 5.38853 16.7136C7.09259 18.088 9.25722 18.9127 11.6061 18.9127C13.7246 18.9127 15.705 18.2255 17.317 17.0801C18.5144 16.2554 19.4816 15.1558 20.1724 13.873C20.2646 13.6897 20.3567 13.5523 20.4488 13.369C21.0014 12.1778 21.3238 10.8949 21.3699 9.52046V9.19975C21.3699 8.87904 21.3699 8.55833 21.3238 8.23762L21.3699 8.28343C21.5081 8.42088 21.6462 8.55833 21.8305 8.64996C21.9686 8.42088 22.1068 8.1918 22.291 8.00854C22.3831 8.42088 22.4292 8.87904 22.4752 9.29138C22.3831 9.65791 22.4292 9.97862 22.4292 10.2993Z" fill="#EC1C24"/>
</svg>
