<svg width="22" height="21" viewBox="0 0 22 21" fill="none" xmlns="http://www.w3.org/2000/svg">
<path d="M10.9878 9.74993C9.06616 9.74993 7.51404 7.69507 7.51404 5.15103C7.51404 2.60699 9.06616 0.552124 10.9878 0.552124C12.9094 0.552124 14.4615 2.60699 14.4615 5.15103C14.4615 7.69507 12.9094 9.74993 10.9878 9.74993ZM10.9878 1.53072C9.48498 1.53072 8.25317 3.16152 8.25317 5.15109C8.25317 7.14066 9.48498 8.77146 10.9878 8.77146C12.4906 8.77146 13.7224 7.14066 13.7224 5.15109C13.7224 3.16152 12.4906 1.53072 10.9878 1.53072Z" fill="#6E6E6E"/>
<path d="M18.1569 10.1413C16.8019 10.1413 15.7179 8.70614 15.7179 6.91226C15.7179 5.11833 16.8019 3.68323 18.1569 3.68323C19.512 3.68346 20.5958 5.11862 20.5958 6.91226C20.5958 8.7062 19.512 10.1413 18.1569 10.1413ZM18.1569 4.66194C17.2207 4.66194 16.457 5.67297 16.457 6.9125C16.457 8.15202 17.2207 9.16305 18.1569 9.16305C19.093 9.16283 19.8569 8.15178 19.8569 6.91226C19.8569 5.67303 19.093 4.66194 18.1569 4.66194Z" fill="#6E6E6E"/>
<path d="M3.81866 10.1413C2.46363 10.1413 1.37964 8.70614 1.37964 6.91226C1.37964 5.11833 2.46367 3.68323 3.81866 3.68323C5.1737 3.68323 6.25769 5.11839 6.25769 6.91226C6.25769 8.7062 5.17365 10.1413 3.81866 10.1413ZM3.81866 4.66194C2.88244 4.66194 2.11872 5.67297 2.11872 6.9125C2.11872 8.15202 2.8824 9.16305 3.81866 9.16305C4.75493 9.16305 5.5186 8.15202 5.5186 6.9125C5.5186 5.67297 4.75493 4.66194 3.81866 4.66194Z" fill="#6E6E6E"/>
<path d="M18.1816 17.3495C17.1962 17.3495 16.5803 17.2842 16.0628 17.1863L15.7673 17.121V16.5666C15.7673 15.1967 15.4469 13.8269 14.831 12.5874L14.7078 12.359L14.8063 12.0981C15.4715 10.3369 16.8018 9.19525 18.1568 9.19525C20.2016 9.19525 21.9755 11.6414 22 14.5768C22.0002 17.3494 20.0538 17.3494 18.1815 17.3494L18.1816 17.3495ZM16.5064 16.2731C16.9252 16.3384 17.4426 16.371 18.1816 16.371C20.5219 16.371 21.2611 16.11 21.2611 14.577C21.2365 12.1961 19.8076 10.1738 18.157 10.1738C17.1222 10.1738 16.1122 10.9892 15.5456 12.2937C16.1367 13.5331 16.4571 14.9032 16.5064 16.2731V16.2731Z" fill="#6E6E6E"/>
<path d="M3.81865 17.3495C1.94635 17.3495 0 17.3495 0 14.577C0 11.6742 1.74926 9.1955 3.81865 9.1955C5.19823 9.1955 6.50395 10.3372 7.16917 12.0983L7.26764 12.3593L7.14442 12.5877C6.52852 13.8272 6.2082 15.1642 6.23293 16.5343V17.0888L5.93735 17.1541C5.42008 17.2842 4.80417 17.3495 3.81864 17.3495L3.81865 17.3495ZM3.81865 10.174C2.16803 10.174 0.739129 12.2288 0.739129 14.5772C0.739129 16.1102 1.47826 16.3712 3.81865 16.3712C4.55778 16.3712 5.07505 16.3386 5.49382 16.2733C5.5184 14.9035 5.83872 13.5337 6.43004 12.2942C5.86345 10.9894 4.85333 10.174 3.81865 10.174V10.174Z" fill="#6E6E6E"/>
<path d="M10.9878 20.448C8.15473 20.448 5.4693 20.448 5.4693 16.5666C5.4693 12.4243 8.05614 8.77142 10.9878 8.77142C13.9195 8.77142 16.5063 12.4243 16.5063 16.5666C16.5063 20.448 13.8208 20.448 10.9878 20.448ZM10.9878 9.74996C8.45028 9.74996 6.20838 12.9463 6.20838 16.5667C6.20838 19.2085 7.66187 19.4695 10.9878 19.4695C14.3137 19.4695 15.7672 19.2086 15.7672 16.5667C15.7672 12.9463 13.5253 9.74996 10.9878 9.74996Z" fill="#6E6E6E"/>
</svg>
